<svg width="3200" height="2000" viewBox="0 0 3200 2000" fill="none" xmlns="http://www.w3.org/2000/svg">
<g clip-path="url(#clip0_394_125)">
<path d="M3200 0H0V2000H3200V0Z" fill="white"/>
<path d="M417.727 1799.27C417.727 1799.27 81.4013 1394.13 245.771 977.046C352.911 705.18 754.809 556.211 981.621 705.18C1078.22 768.628 1388.15 707.32 1553.63 444.639C1875.2 -65.8121 2997.49 244.193 2793.17 1027.91C2694.3 1407.18 3094.09 1420.96 2890.38 1800.07L417.727 1799.27Z" fill="#EBF3FA"/>
<path d="M666.684 1132.49C666.684 1132.49 632.764 1092.92 664.592 1067.78C664.592 1067.78 687.841 1053.71 706.798 1054.85C706.798 1054.85 679.937 1099.89 688.627 1104.37C697.317 1108.85 714.94 1052.02 714.94 1052.02C714.94 1052.02 767.846 1046.89 784.865 1055.08C784.865 1055.08 739.637 1092.09 749.162 1094.29C758.687 1096.5 807.539 1060.17 807.539 1060.17C807.539 1060.17 856.779 1068.55 854.154 1098.59C851.529 1128.62 834.562 1137.9 827.105 1137.1C819.647 1136.3 776.026 1119.65 775.076 1125.76C774.126 1131.87 800.384 1151.84 818.771 1152.77C818.771 1152.77 784.056 1191.06 760.983 1180.01C737.911 1168.96 735.941 1151.45 721.559 1144.88C707.177 1138.31 694.9 1138.32 700.837 1145.02C706.775 1151.72 732.804 1158.23 741.029 1172.78C749.254 1187.33 756.633 1197.14 732.762 1193.55C708.891 1189.96 670.09 1172.49 668.387 1152.49C666.684 1132.49 666.684 1132.49 666.684 1132.49Z" fill="#C8DBF4"/>
<path d="M829.958 1099.4C829.958 1099.4 696.217 1094.24 666.683 1132.49C666.683 1132.49 660.151 1152.05 640.051 1169.87L636.918 1178.41C636.918 1178.41 660.093 1153.97 668.386 1152.49C668.386 1152.49 655.417 1105.11 829.958 1099.4Z" fill="#C8DBF4"/>
<path d="M640.052 1169.87C640.052 1169.87 611.346 1191.1 609.352 1229.03L614.562 1229.5C614.562 1229.5 623.73 1190.27 640.302 1174.94C656.874 1159.6 640.052 1169.87 640.052 1169.87Z" fill="#C8DBF4"/>
<path d="M548.087 1082.73C548.087 1082.73 602.045 1052.51 576.864 1011.5C576.864 1011.5 556.72 986.321 535.137 979.846C535.137 979.846 546.648 1041 535.137 1042.44C523.626 1043.87 527.223 973.371 527.223 973.371C527.223 973.371 470.388 946.033 448.085 948.191C448.085 948.191 483.337 1007.9 471.826 1006.47C460.315 1005.03 420.746 944.594 420.746 944.594C420.746 944.594 362.472 933.802 353.119 968.335C343.766 1002.87 358.874 1020.13 367.508 1022.29C376.141 1024.45 431.538 1023.73 430.099 1030.93C428.66 1038.12 391.249 1049.63 370.386 1043.16C370.386 1043.16 393.408 1099.99 423.624 1097.11C453.84 1094.24 463.193 1075.53 481.898 1074.09C500.603 1072.65 514.273 1077.69 504.92 1082.73C495.567 1087.76 463.913 1084.38 448.804 1097.22C433.696 1110.06 421.466 1117.98 449.524 1123.73C477.582 1129.49 527.942 1125.89 538.014 1104.31C548.087 1082.73 548.087 1082.73 548.087 1082.73Z" fill="#C8DBF4"/>
<path d="M379.738 979.127C379.738 979.127 530.819 1028.05 548.085 1082.72C548.085 1082.72 547.366 1107.19 562.474 1135.24V1146.04C562.474 1146.04 546.647 1109.34 538.014 1104.31C538.014 1104.31 571.826 1056.82 379.738 979.127Z" fill="#C8DBF4"/>
<path d="M562.473 1135.24C562.473 1135.24 585.772 1170.62 572.49 1213.69L566.496 1212.08C566.496 1212.08 572.314 1164.64 560.124 1140.79C547.933 1116.93 562.473 1135.24 562.473 1135.24Z" fill="#C8DBF4"/>
<path d="M633.927 1041.05C633.927 1041.05 562.801 1001.22 595.993 947.167C595.993 947.167 622.547 913.975 650.997 905.44C650.997 905.44 635.823 986.05 650.997 987.946C666.17 989.842 661.429 896.905 661.429 896.905C661.429 896.905 736.348 860.867 765.747 863.713C765.747 863.713 719.278 942.426 734.452 940.529C749.625 938.633 801.785 858.971 801.785 858.971C801.785 858.971 878.601 844.746 890.93 890.266C903.259 935.786 883.344 958.547 871.963 961.392C860.583 964.237 787.56 963.288 789.457 972.772C791.353 982.256 840.668 997.429 868.17 988.894C868.17 988.894 837.823 1063.81 797.992 1060.02C758.161 1056.23 745.833 1031.57 721.176 1029.67C696.519 1027.78 678.5 1034.41 690.829 1041.05C703.158 1047.69 744.885 1043.23 764.8 1060.16C784.715 1077.09 800.837 1087.52 763.851 1095.11C726.866 1102.7 660.481 1097.95 647.205 1069.5C633.927 1041.05 633.927 1041.05 633.927 1041.05Z" fill="#D4E4F8"/>
<path d="M855.841 904.491C855.841 904.491 656.688 968.979 633.928 1041.05C633.928 1041.05 634.876 1073.3 614.961 1110.28V1124.51C614.961 1124.51 635.824 1076.14 647.205 1069.5C647.205 1069.5 602.633 1006.91 855.841 904.491Z" fill="#D4E4F8"/>
<path d="M614.962 1110.28C614.962 1110.28 584.249 1156.92 601.758 1213.69L609.659 1211.57C609.659 1211.57 601.989 1149.04 618.057 1117.59C634.127 1086.14 614.962 1110.28 614.962 1110.28Z" fill="#D4E4F8"/>
<path d="M631.532 1336.81C708.479 1336.81 770.857 1274.43 770.857 1197.48H492.207C492.207 1274.43 554.585 1336.81 631.532 1336.81Z" fill="#D4E4F8"/>
<path d="M772.782 1343.9H490.285C490.285 1334.4 497.981 1326.71 507.474 1326.71H755.593C765.086 1326.71 772.782 1334.4 772.782 1343.9Z" fill="#D4E4F8"/>
<path d="M774.023 1197.48H487.625V1201.75H774.023V1197.48Z" fill="#9FC1F4"/>
<path d="M1350.45 1796.37L1351.14 1796.36C1356.77 1796.26 1361.12 1791.66 1360.59 1786.36L1323.03 1411.29L1290.26 1414.22L1344.19 1791.3C1344.61 1794.25 1347.3 1796.43 1350.45 1796.37Z" fill="#8CB4F4"/>
<path d="M988.824 1796.37L988.135 1796.36C982.506 1796.26 978.158 1791.66 978.688 1786.36L1016.24 1411.29L1049.02 1414.22L995.088 1791.3C994.667 1794.25 991.973 1796.43 988.824 1796.37Z" fill="#8CB4F4"/>
<path d="M1615.4 1796.37L1616.09 1796.36C1621.72 1796.26 1626.07 1791.66 1625.54 1786.36L1587.98 1411.29L1555.21 1414.22L1609.14 1791.3C1609.56 1794.25 1612.25 1796.43 1615.4 1796.37Z" fill="#8CB4F4"/>
<path d="M1000.01 1356.74L933.347 1027.53C924.79 982.959 961.724 942.202 1009.68 943.298L1138.25 946.234C1182.6 947.247 1221.16 976.931 1233.49 1019.55L1331.02 1356.74H1000.01Z" fill="#8CB4F4"/>
<path d="M1040.34 1356.74L973.679 1027.53C965.122 982.959 1002.06 942.202 1050.01 943.298L1178.58 946.234C1222.93 947.247 1261.49 976.931 1273.82 1019.55L1371.35 1356.74H1040.34Z" fill="#8CB4F4"/>
<path d="M1018.59 1416.78H1527.25C1537.47 1416.78 1545.83 1408.42 1545.83 1398.2V1375.32C1545.83 1365.1 1537.47 1356.74 1527.25 1356.74H1000.01V1398.2C1000.01 1408.42 1008.37 1416.78 1018.59 1416.78Z" fill="#8CB4F4"/>
<path d="M1257.29 1416.78H1581.55C1589.78 1416.78 1596.52 1410.04 1596.52 1401.81V1371.7C1596.52 1363.47 1589.78 1356.74 1581.55 1356.74H1257.29C1249.06 1356.74 1242.32 1363.47 1242.32 1371.7V1401.81C1242.32 1410.04 1249.06 1416.78 1257.29 1416.78Z" fill="#8CB4F4"/>
<path d="M848.239 1352.45V1363.68C848.239 1367.61 846.966 1370.82 845.412 1370.82H435.556C434.003 1370.82 432.73 1367.61 432.73 1363.68V1352.45C432.73 1348.52 434.003 1345.3 435.556 1345.3H845.412C846.966 1345.31 848.239 1348.52 848.239 1352.45Z" fill="#9ABFE2"/>
<path d="M848.241 1352.45V1363.68C848.241 1367.61 847.072 1370.82 845.647 1370.82H520.266C518.84 1370.82 517.672 1367.61 517.672 1363.68V1352.45C517.672 1348.52 518.84 1345.3 520.266 1345.3H845.647C847.073 1345.31 848.241 1348.52 848.241 1352.45Z" fill="#BAD4F4"/>
<path d="M744.504 1370.83H453.531V1794.93H744.504V1370.83Z" fill="#C8DBF4"/>
<path d="M826.047 1370.83H535.074V1794.93H826.047V1370.83Z" fill="#DFEBFD"/>
<path d="M810.417 1771.52H550.715V1382.81H810.417V1771.52ZM553.519 1768.71H807.612V1385.61H553.519V1768.71Z" fill="#B7D3F3"/>
<path d="M809.014 1511.4H552.117V1514.2H809.014V1511.4Z" fill="#B7D3F3"/>
<path d="M809.014 1642.49H552.117V1645.29H809.014V1642.49Z" fill="#B7D3F3"/>
<path d="M706.889 1407.88H659.218C656.905 1407.88 655.012 1405.98 655.012 1403.67C655.012 1401.36 656.905 1399.46 659.218 1399.46H706.889C709.203 1399.46 711.095 1401.36 711.095 1403.67C711.095 1405.98 709.202 1407.88 706.889 1407.88Z" fill="#B7D3F3"/>
<path d="M706.889 1536.07H659.218C656.905 1536.07 655.012 1534.18 655.012 1531.87C655.012 1529.55 656.905 1527.66 659.218 1527.66H706.889C709.203 1527.66 711.095 1529.55 711.095 1531.87C711.095 1534.18 709.202 1536.07 706.889 1536.07Z" fill="#B7D3F3"/>
<path d="M706.889 1669.71H659.218C656.905 1669.71 655.012 1667.81 655.012 1665.5C655.012 1663.19 656.905 1661.3 659.218 1661.3H706.889C709.203 1661.3 711.095 1663.19 711.095 1665.5C711.095 1667.81 709.202 1669.71 706.889 1669.71Z" fill="#B7D3F3"/>
<path d="M1990.51 608.279H1806.08C1797.61 608.279 1790.68 601.351 1790.68 592.885V414.874C1790.68 406.407 1797.61 399.48 1806.08 399.48H1990.51C1998.98 399.48 2005.91 406.407 2005.91 414.874V592.885C2005.91 601.352 1998.98 608.279 1990.51 608.279Z" fill="#C0D8FB"/>
<path d="M1982.52 599.233H1814.07C1806.34 599.233 1800.01 592.906 1800.01 585.173V422.585C1800.01 414.852 1806.33 408.525 1814.07 408.525H1982.52C1990.26 408.525 1996.58 414.852 1996.58 422.585V585.173C1996.58 592.906 1990.26 599.233 1982.52 599.233Z" fill="#DFEBFD"/>
<path d="M1898.29 432.04C1900.76 432.04 1902.75 430.044 1902.75 427.582C1902.75 425.12 1900.76 423.124 1898.29 423.124C1895.83 423.124 1893.84 425.12 1893.84 427.582C1893.84 430.044 1895.83 432.04 1898.29 432.04Z" fill="#B7D3F3"/>
<path d="M1929.81 433.883C1931 431.731 1933.72 430.956 1935.87 432.152C1938.02 433.348 1938.8 436.063 1937.6 438.215C1936.41 440.367 1933.69 441.143 1931.54 439.946C1929.39 438.75 1928.61 436.035 1929.81 433.883Z" fill="#B7D3F3"/>
<path d="M1960.63 458.368C1962.7 457.033 1965.46 457.629 1966.79 459.698C1968.13 461.767 1967.53 464.527 1965.46 465.861C1963.39 467.196 1960.63 466.6 1959.3 464.531C1957.96 462.462 1958.56 459.703 1960.63 458.368Z" fill="#B7D3F3"/>
<path d="M1975.9 496.267C1978.36 496.267 1980.35 498.263 1980.35 500.725C1980.35 503.187 1978.36 505.183 1975.9 505.183C1973.43 505.183 1971.44 503.187 1971.44 500.725C1971.44 498.263 1973.43 496.267 1975.9 496.267Z" fill="#B7D3F3"/>
<path d="M1968.1 540.248C1969.84 541.989 1969.84 544.812 1968.1 546.553C1966.36 548.294 1963.54 548.294 1961.79 546.553C1960.05 544.812 1960.05 541.99 1961.79 540.248C1963.54 538.507 1966.36 538.507 1968.1 540.248Z" fill="#B7D3F3"/>
<path d="M1940.1 568.317C1941.84 570.058 1941.84 572.881 1940.1 574.622C1938.36 576.363 1935.54 576.363 1933.8 574.622C1932.06 572.881 1932.06 570.058 1933.8 568.317C1935.54 566.576 1938.36 566.576 1940.1 568.317Z" fill="#B7D3F3"/>
<path d="M1893.84 582.785C1893.84 580.323 1895.83 578.326 1898.29 578.326C1900.76 578.326 1902.75 580.322 1902.75 582.785C1902.75 585.247 1900.76 587.243 1898.29 587.243C1895.83 587.243 1893.84 585.247 1893.84 582.785Z" fill="#B7D3F3"/>
<path d="M1866.64 433.883C1865.44 431.731 1862.73 430.956 1860.57 432.152C1858.42 433.348 1857.65 436.063 1858.84 438.215C1860.04 440.367 1862.75 441.143 1864.91 439.946C1867.06 438.75 1867.83 436.035 1866.64 433.883Z" fill="#B7D3F3"/>
<path d="M1835.82 458.368C1833.75 457.033 1830.99 457.629 1829.65 459.698C1828.32 461.767 1828.91 464.527 1830.98 465.861C1833.05 467.196 1835.81 466.6 1837.15 464.531C1838.48 462.462 1837.89 459.703 1835.82 458.368Z" fill="#B7D3F3"/>
<path d="M1820.55 496.267C1818.09 496.267 1816.09 498.263 1816.09 500.725C1816.09 503.187 1818.09 505.183 1820.55 505.183C1823.01 505.183 1825.01 503.187 1825.01 500.725C1825.01 498.263 1823.01 496.267 1820.55 496.267Z" fill="#B7D3F3"/>
<path d="M1828.34 540.248C1826.6 541.989 1826.6 544.812 1828.34 546.553C1830.09 548.294 1832.91 548.294 1834.65 546.553C1836.39 544.812 1836.39 541.99 1834.65 540.248C1832.91 538.507 1830.09 538.507 1828.34 540.248Z" fill="#B7D3F3"/>
<path d="M1856.34 568.317C1854.6 570.058 1854.6 572.881 1856.34 574.622C1858.08 576.363 1860.9 576.363 1862.65 574.622C1864.39 572.881 1864.39 570.058 1862.65 568.317C1860.9 566.576 1858.08 566.576 1856.34 568.317Z" fill="#B7D3F3"/>
<path d="M1897.09 500.725C1897.09 498.263 1899.09 496.267 1901.55 496.267C1904.01 496.267 1906.01 498.263 1906.01 500.725C1906.01 503.187 1904.01 505.183 1901.55 505.183C1899.09 505.183 1897.09 503.187 1897.09 500.725Z" fill="#B7D3F3"/>
<path d="M1902.16 445.029H1900.94V500.724H1902.16V445.029Z" fill="#B7D3F3"/>
<path d="M1929.42 475.98L1899.89 499.16L1902.15 502.032L1931.67 478.853L1929.42 475.98Z" fill="#B7D3F3"/>
<path d="M1443.13 1287.84C1415.62 1335.74 1381.01 1354.22 1381.01 1354.22H1237.02C1237.02 1354.22 1464.13 1251.31 1443.13 1287.84Z" fill="#2A2B2B"/>
<path d="M1620.73 1763.66C1619.17 1778.77 1640.19 1782.67 1664.56 1784.15C1688.93 1785.62 1681.5 1790.54 1714.85 1796.95C1748.2 1803.36 1761.69 1794.36 1764.16 1789.87C1766.36 1785.89 1750.89 1779.46 1734.41 1772.2C1732.33 1771.29 1730.26 1770.36 1728.18 1769.42C1709.64 1761.03 1699.36 1744.21 1685 1728.56C1671.39 1713.73 1658.83 1666.61 1658.83 1666.61L1613.53 1656.42C1613.53 1656.42 1625.82 1698.85 1630.06 1716.95C1632.55 1727.6 1628.58 1739.43 1625.07 1748.43C1623.18 1753.33 1621.27 1758.34 1620.73 1763.66Z" fill="#FFB27D"/>
<path d="M1664.56 1784.15C1688.93 1785.62 1681.5 1790.54 1714.85 1796.95C1748.2 1803.36 1761.69 1794.36 1764.16 1789.87C1766.36 1785.89 1750.89 1779.46 1734.41 1772.2L1734.15 1772.48C1734.15 1772.48 1710.57 1780.2 1683.53 1772.54C1661.49 1766.3 1640.25 1752.86 1625.07 1748.43C1623.18 1753.33 1621.27 1758.34 1620.73 1763.66C1619.17 1778.77 1640.19 1782.67 1664.56 1784.15Z" fill="#0F2549"/>
<path d="M1552.09 1238.78C1527.71 1221.67 1366.45 1191.15 1284.16 1182.32L1193.2 1103.36C1193.2 1103.36 1115.78 1218.04 1115.16 1305.77C1114.88 1346.67 1133.72 1350.73 1133.72 1350.74C1133.72 1350.74 1425.31 1352.91 1438.09 1354.22C1459.01 1356.38 1486.61 1408.5 1493.5 1455.97C1500.4 1503.44 1621.99 1696.51 1621.99 1696.51C1621.99 1696.51 1647.35 1704.64 1659.07 1703.95C1671.69 1703.21 1677.52 1698.98 1677.52 1698.98C1677.52 1698.98 1607.07 1277.39 1552.09 1238.78Z" fill="#2A2B2B"/>
<path d="M1545.31 1763.66C1543.75 1778.77 1564.76 1782.67 1589.13 1784.15C1613.51 1785.62 1606.08 1790.54 1639.43 1796.95C1672.78 1803.36 1686.27 1794.36 1688.74 1789.87C1690.94 1785.89 1675.47 1779.46 1658.99 1772.2C1656.91 1771.29 1654.84 1770.36 1652.76 1769.42C1634.21 1761.03 1623.94 1744.21 1609.58 1728.56C1595.97 1713.73 1583.41 1666.61 1583.41 1666.61L1538.11 1656.42C1538.11 1656.42 1550.4 1698.85 1554.64 1716.95C1557.12 1727.6 1553.16 1739.43 1549.65 1748.43C1547.76 1753.33 1545.85 1758.34 1545.31 1763.66Z" fill="#FFB27D"/>
<path d="M1589.13 1784.15C1613.5 1785.62 1606.08 1790.54 1639.43 1796.95C1672.78 1803.36 1686.27 1794.36 1688.74 1789.87C1690.93 1785.89 1675.47 1779.46 1658.99 1772.2L1658.72 1772.48C1658.72 1772.48 1635.14 1780.2 1608.1 1772.54C1586.06 1766.3 1564.83 1752.86 1549.65 1748.43C1547.76 1753.33 1545.85 1758.34 1545.31 1763.66C1543.75 1778.77 1564.76 1782.67 1589.13 1784.15Z" fill="#2A2B2B"/>
<path d="M1476 1238.78C1454.82 1223.91 1391.13 1212.38 1320.81 1203.83C1301.37 1201.46 1285.41 1187.33 1280.66 1168.33L1117.11 1103.36C1117.11 1103.36 1039.69 1218.04 1039.08 1305.77C1038.79 1346.67 1057.63 1350.73 1057.64 1350.74C1057.64 1350.74 1349.22 1352.91 1362 1354.22C1382.92 1356.38 1410.52 1408.5 1417.42 1455.97C1424.31 1503.44 1545.91 1696.51 1545.91 1696.51C1545.91 1696.51 1571.26 1704.64 1582.99 1703.95C1595.6 1703.21 1601.44 1698.98 1601.44 1698.98C1601.44 1698.98 1530.98 1277.39 1476 1238.78Z" fill="#141414"/>
<path d="M1257.15 626.916C1234.68 615.114 1200.48 613.518 1194.93 612.771C1128.44 603.836 1088.43 700.44 1086.08 729.712C1081.74 783.666 1053.2 791.892 1013.02 825.681C932.469 893.433 956.091 972.162 1000.14 1001.41C1026.57 1018.97 1073.15 1001.41 1073.15 1001.41C1073.81 1001.87 1200.55 930.561 1263.02 896.162C1356.68 882.849 1314.42 656.99 1257.15 626.916Z" fill="#2A2B2B"/>
<path d="M1243.29 862.93C1243.58 863.079 1213.75 876.647 1192.21 869.532C1171.95 862.857 1154.11 832.357 1154.4 832.312C1163.19 831.037 1172.13 822.364 1174.62 770.963L1178.52 771.943L1243.99 788.49C1243.99 788.49 1241.4 809.23 1240.33 828.84C1239.42 845.305 1239.61 860.975 1243.29 862.93Z" fill="#FFB27D"/>
<path d="M1243.98 788.491C1243.98 788.491 1243.98 792.759 1241.54 812.054C1204.51 802.715 1188.18 790.437 1176.67 776.385L1243.98 788.491Z" fill="#ED975D"/>
<path d="M1257.95 791.102C1257.95 791.102 1171.38 805.198 1163.43 751.149C1155.48 697.1 1138.95 662.519 1193.89 651.234C1248.83 639.949 1262.63 658.99 1269.67 676.386C1276.71 693.781 1280.26 786.043 1257.95 791.102Z" fill="#FFB27D"/>
<path d="M1258.03 648.97C1258.03 648.97 1218.72 711.03 1183.62 725.728C1148.52 740.426 1131.28 732.964 1131.28 732.964C1131.28 732.964 1147.25 708.754 1151.41 676.247C1152.63 666.665 1158.88 658.45 1167.85 654.858C1193.03 644.771 1241.75 628.865 1258.03 648.97Z" fill="#2A2B2B"/>
<path d="M1223.5 654.969C1223.5 654.969 1246.54 666.783 1256.03 677.855C1265.19 688.54 1275.77 717.532 1275.01 730.552C1275.01 730.552 1286.38 668.155 1262.7 646.706C1237.6 623.962 1223.5 654.969 1223.5 654.969Z" fill="#2A2B2B"/>
<path d="M1312.55 994.972C1309.92 1170.95 1311.83 1134.18 1292.58 1150.87C1287.94 1154.89 1274.9 1157.29 1257.74 1158.42C1203.78 1162 1108.92 1153.11 1105.32 1143.14C1092.87 1108.64 1101.66 1097.92 1091.27 1045.09C1090.19 1039.48 1088.85 1033.39 1087.28 1026.77C1078.62 990.488 1070.19 978.145 1100.91 919.856C1128.77 867.056 1161.52 824.163 1164.13 825.709C1237.62 869.335 1240.13 832.766 1240.13 832.766C1240.13 832.766 1313.84 909.136 1312.55 994.972Z" fill="white"/>
<path d="M1240.13 832.766C1240.13 832.766 1315.35 845.516 1324.23 878.076C1333.11 910.635 1385.36 1102.04 1385.36 1102.04C1385.36 1102.04 1346.92 1108.95 1329.16 1091.19C1311.4 1073.43 1267.37 926.421 1267.37 926.421L1240.13 832.766Z" fill="white"/>
<path d="M1257.74 1158.42C1203.78 1162.01 1108.92 1153.12 1105.31 1143.14C1092.87 1108.64 1101.65 1097.92 1091.27 1045.09L1117.3 971.806C1117.3 971.806 1112.99 1053.42 1137.06 1074.88C1161.1 1096.35 1235.6 1116.32 1247.3 1134.25C1252.94 1142.86 1256.65 1151.49 1257.74 1158.42Z" fill="#EBF3FF"/>
<path d="M1195.91 1124.1C1195.91 1124.1 1249.15 1112.24 1257.74 1116.97C1266.33 1121.69 1287.32 1138.9 1289.95 1144.89C1292.58 1150.87 1270.83 1140.34 1263.75 1138.44C1259.17 1137.21 1247.11 1141.41 1241.14 1143.4C1216.01 1151.77 1200.62 1147.46 1200.62 1147.46L1195.91 1124.1Z" fill="#FFB27D"/>
<path d="M1164.12 825.709C1164.12 825.709 1088.78 830.112 1064.04 864.625C1029.2 913.207 960.104 1120.26 999.705 1147.87C1044.3 1178.97 1202.68 1156.01 1202.68 1156.01C1202.68 1156.01 1207.95 1131.37 1200.62 1119.45C1193.28 1107.54 1074.12 1088.29 1068.62 1082.79C1063.12 1077.29 1137.37 975.54 1137.37 959.04C1137.37 942.54 1164.12 825.709 1164.12 825.709Z" fill="white"/>
<path d="M1260.31 1131.79C1260.31 1131.79 1271.47 1146.18 1275.12 1147.89C1278.78 1149.61 1281.14 1149.18 1281.14 1149.18L1273.63 1135.65L1260.31 1131.79Z" fill="#FFB27D"/>
<path d="M1257.73 1116.97L1290.16 1132.72C1290.16 1132.72 1288.79 1134.98 1284.79 1134.79C1280.8 1134.61 1270.73 1130.93 1270.73 1130.93L1257.73 1116.97Z" fill="#FFB27D"/>
<path d="M1377.2 1154.3H1226.58C1226.58 1147.67 1231.96 1142.3 1238.59 1142.3H1377.2V1154.3Z" fill="#FF5C26"/>
<path d="M1376.77 990.267H1609.63L1553.78 1154.3H1319.4L1376.77 990.267Z" fill="#FF5C26"/>
<path d="M1613.06 990.264L1557.21 1154.3H1322.83L1380.2 990.264H1613.06Z" fill="#FF5C26"/>
<path d="M1487.51 1070.77C1486.07 1077.04 1479.81 1082.12 1473.54 1082.12C1467.28 1082.12 1463.37 1077.04 1464.82 1070.77C1466.26 1064.5 1472.52 1059.42 1478.78 1059.42C1485.05 1059.42 1488.96 1064.5 1487.51 1070.77Z" fill="white"/>
<path d="M1174.52 1191.21H2195.01C2199.3 1191.21 2202.78 1187.73 2202.78 1183.44V1162.07C2202.78 1157.78 2199.3 1154.3 2195.01 1154.3H1174.52C1170.23 1154.3 1166.75 1157.78 1166.75 1162.07V1183.44C1166.75 1187.73 1170.23 1191.21 1174.52 1191.21Z" fill="#778398"/>
<path d="M2220 1799.12L2220.43 1799.06C2225.66 1798.42 2229.36 1793.75 2228.7 1788.64L2137.76 1173.08L2104.47 1174.03L2211.47 1792.93C2212.15 1796.89 2215.91 1799.62 2220 1799.12Z" fill="#778398"/>
<path d="M1140.35 1799.12L1139.91 1799.06C1134.68 1798.42 1130.98 1793.75 1131.64 1788.64L1222.58 1173.08L1255.87 1174.03L1148.88 1792.93C1148.19 1796.89 1144.43 1799.62 1140.35 1799.12Z" fill="#778398"/>
<path d="M1350.87 1799.12L1350.44 1799.06C1345.21 1798.42 1341.51 1793.75 1342.17 1788.64L1433.1 1173.08L1466.4 1174.03L1359.4 1792.93C1358.72 1796.89 1354.95 1799.62 1350.87 1799.12Z" fill="#778398"/>
<path d="M3030.66 1804.19H204.387C202.262 1804.19 200.523 1802.45 200.523 1800.33V1797.17C200.523 1795.04 202.262 1793.3 204.387 1793.3H3030.66C3032.78 1793.3 3034.52 1795.04 3034.52 1797.17V1800.33C3034.52 1802.45 3032.78 1804.19 3030.66 1804.19Z" fill="#2E3552"/>
<path d="M1887.38 1798.62H2067.83C2076.51 1788.03 2073.31 1748.95 2072 1736.18C2071.73 1733.62 2071.54 1732.12 2071.54 1732.12C2071.54 1732.12 2009.92 1682.83 2001.45 1720.57C2001.2 1721.75 2000.88 1722.91 2000.54 1724.05C1989.88 1759.35 1942.05 1775.4 1914.43 1779.86C1896.47 1782.78 1889.83 1792.11 1887.38 1798.62Z" fill="#2A2B2B"/>
<path d="M2379.77 1212.26C2373.25 1212.26 2070.66 1269.07 2020.61 1331.03C1995.6 1361.98 1991.89 1719.44 1991.89 1719.44C1991.89 1719.44 2022.82 1757.79 2089.63 1735.52C2089.63 1735.52 2138.61 1490.96 2135 1416.78C2134 1396.27 2341.74 1413.81 2379.77 1403.97C2417.79 1394.13 2510.7 1311.41 2490.23 1271.11C2469.76 1230.82 2379.77 1212.26 2379.77 1212.26Z" fill="#2A2B2B"/>
<path d="M2021.91 1124.73C2021.91 1124.73 1960.87 1125.55 1946.43 1131.74C1932 1137.93 1902.72 1152.12 1910.55 1154.3C1918.39 1156.48 1955.78 1153.41 1963.86 1154.64C1971.94 1155.88 1981.9 1154.3 1986.85 1154.3C1991.8 1154.3 2014.88 1154.3 2014.88 1154.3L2021.91 1124.73Z" fill="#FFB27D"/>
<path d="M1950.54 978.248C1950.54 978.248 1929.73 963.377 1909.52 960.49C1898 958.843 1886.79 956.79 1880.02 954.404C1861.37 947.833 1824.06 914.287 1826.89 910.351C1835.93 897.74 1879.49 924.428 1887.09 921.563C1894.7 918.698 1872.48 902.902 1880.21 897.346C1884.24 894.445 1893.68 908.988 1901.4 910.448C1911.84 912.424 1920.01 927.168 1923.15 927.937C1929.26 929.435 1956.06 949.365 1956.06 949.365L1950.54 978.248Z" fill="#FFB27D"/>
<path d="M2349.63 804.589C2349.63 804.589 2303.17 818.989 2257.39 945.05C2211.61 1071.11 2194.23 1077.92 2177.59 1082.86C2160.95 1087.81 2014.89 1116.89 2014.89 1116.89V1154.3H2239.94C2239.94 1154.3 2324.33 1074.03 2349.63 1019.98C2374.93 965.944 2349.63 804.589 2349.63 804.589Z" fill="#FF5C26"/>
<path d="M1807.62 1798.62H1988.08C1996.75 1788.03 1993.56 1748.95 1992.24 1736.18C1991.97 1733.62 1991.79 1732.12 1991.79 1732.12C1991.79 1732.12 1930.17 1682.83 1921.7 1720.57C1921.44 1721.75 1921.13 1722.91 1920.79 1724.05C1910.12 1759.35 1862.29 1775.4 1834.67 1779.86C1816.71 1782.78 1810.08 1792.11 1807.62 1798.62Z" fill="#1B3051"/>
<path d="M2290.6 1212.26C2284.09 1212.26 1981.49 1269.07 1931.44 1331.03C1906.44 1361.98 1902.72 1719.44 1902.72 1719.44C1902.72 1719.44 1933.65 1757.79 2000.46 1735.52C2000.46 1735.52 2049.45 1490.96 2045.83 1416.78C2044.83 1396.27 2252.58 1413.81 2290.6 1403.97C2328.62 1394.13 2421.53 1311.41 2401.06 1271.11C2380.59 1230.82 2290.6 1212.26 2290.6 1212.26Z" fill="#141414"/>
<path d="M2309.54 844.54C2331.3 842.743 2354.13 836.941 2373.85 830.54C2398.51 822.539 2418.39 810.845 2405.58 788.307C2393.77 767.536 2374.67 721.135 2375.96 682.696L2330.08 719.673L2298.91 744.787C2298.91 744.787 2299.04 759.593 2302.44 785.542C2303.07 790.272 2303.8 795.378 2304.65 800.835C2305.35 805.243 2303.32 809.646 2299.53 811.998C2299.29 812.144 2299.06 812.29 2298.83 812.437C2283.34 822.169 2291.3 846.045 2309.54 844.54Z" fill="#FFB27D"/>
<path d="M2298.91 738.675C2298.91 738.675 2297.32 744.051 2300.06 763.903C2327.84 759.37 2353.82 737.207 2353.82 737.207C2339.67 733.323 2334.53 718.037 2323.99 719.462L2298.91 738.675Z" fill="#ED975D"/>
<path d="M2273.21 743.202C2273.21 743.202 2380.09 760.959 2390.13 694.227C2400.16 627.494 2420.72 584.843 2352.9 570.684C2285.08 556.525 2267.96 579.991 2259.19 601.451C2250.43 622.91 2245.67 736.863 2273.21 743.202Z" fill="#FFB27D"/>
<path d="M2243.47 571.919C2238.88 587.988 2251.16 607.562 2271.78 614.005C2302.39 623.57 2295.63 661.115 2309.4 660.605C2323.18 660.095 2328.73 639.024 2341.04 655.859C2351.53 670.218 2332.3 687.243 2333.62 695.117C2335.9 708.636 2357.07 736.295 2376.15 734.908C2395.24 733.52 2430.95 642.827 2423.81 614.77C2416.66 586.712 2388.1 557.124 2361.06 553.043C2334.02 548.962 2296.47 560.636 2287.8 560.636C2279.13 560.636 2245.95 563.239 2243.47 571.919Z" fill="#141414"/>
<path d="M2491.65 897.206C2476.2 835.027 2433.5 769.783 2404.63 769.838C2355.44 769.932 2284.71 782.913 2256.16 853.353C2235.13 905.233 2207.08 1203.66 2238.78 1224.88C2311.25 1273.4 2479.24 1372.45 2509.08 1271.44C2536.43 1178.9 2518.46 1005.12 2491.65 897.206Z" fill="#FF5C26"/>
<path d="M2372.16 835.331C2358.13 798.823 2312.86 786.202 2281.99 810.219C2265.29 823.209 2244.85 841.707 2220.15 868.007C2128.34 965.774 2109.68 965.166 2092.44 963.147C2075.19 961.128 1929.51 930.209 1929.51 930.209C1929.51 930.209 1922.05 935.711 1917.66 944.607C1911.8 956.488 1914.75 964.585 1914.75 964.585C1909.04 960.897 1966.39 1000.43 1994.94 1016.19C2032.63 1037 2089.43 1056.52 2112.06 1063.93C2118.47 1066.03 2125.38 1065.92 2131.73 1063.63C2165.31 1051.53 2278.08 1007.43 2369.87 930.899C2394.06 910.734 2385.17 869.181 2372.16 835.331Z" fill="#FF5C26"/>
<path d="M2409.59 770.436L2398.45 745.344C2398.45 745.344 2298.75 753.474 2281.99 810.218C2281.99 810.218 2359.28 771.653 2409.59 770.436Z" fill="white"/>
<path d="M2651.64 1796.37L2652.33 1796.36C2657.95 1796.26 2662.3 1791.66 2661.77 1786.36L2624.22 1411.29L2591.45 1414.22L2645.37 1791.3C2645.79 1794.25 2648.49 1796.43 2651.64 1796.37Z" fill="#8CB4F4"/>
<path d="M2458.33 1796.37L2459.02 1796.36C2464.65 1796.26 2469 1791.66 2468.47 1786.36L2430.91 1411.29L2398.14 1414.22L2452.07 1791.3C2452.49 1794.25 2455.18 1796.43 2458.33 1796.37Z" fill="#8CB4F4"/>
<path d="M2095.43 1796.37L2094.74 1796.36C2089.12 1796.26 2084.77 1791.66 2085.3 1786.36L2122.85 1411.29L2155.62 1414.22L2101.7 1791.3C2101.27 1794.25 2098.58 1796.43 2095.43 1796.37Z" fill="#73A2E5"/>
<path d="M2641.02 1358.16L2676.67 1044.9C2681.34 999.754 2666.24 955.552 2601.09 952.131L2486.49 945.15C2418.56 942.347 2387.89 998.881 2379.29 1042.4L2311.25 1386.76L2641.02 1358.16Z" fill="#8CB4F4"/>
<path d="M2621.87 1416.78H2113.21C2102.99 1416.78 2094.63 1408.42 2094.63 1398.2V1375.32C2094.63 1365.1 2102.99 1356.74 2113.21 1356.74H2640.45V1398.2C2640.45 1408.42 2632.09 1416.78 2621.87 1416.78Z" fill="#73A2E5"/>
<path d="M2626.02 1416.78H2325.68C2317.75 1416.78 2311.25 1410.28 2311.25 1402.35V1371.16C2311.25 1363.23 2317.75 1356.73 2325.68 1356.73H2640.46V1402.35C2640.46 1410.28 2633.96 1416.78 2626.02 1416.78Z" fill="#8CB4F4"/>
</g>
<defs>
<clipPath id="clip0_394_125">
<rect width="3200" height="2000" fill="white"/>
</clipPath>
</defs>
</svg>
