<svg width="750" height="500" viewBox="0 0 750 500" fill="none" xmlns="http://www.w3.org/2000/svg">
<g clip-path="url(#clip0_34_1391)">
<path d="M750 0H0V500H750V0Z" fill="#C5C9F0"/>
<path d="M384.499 103.927C342.362 94.019 311.683 103.648 276.639 115.74C259.365 121.7 241.879 128.003 223.676 130.401C210.089 132.191 196.363 132.666 182.725 134.021C168.546 135.43 154.373 137.208 140.457 140.336C117.014 145.606 76.1828 155.316 78.6878 186.878C79.6908 199.517 88.3188 211.005 87.4478 223.654C86.3308 239.865 71.2068 252.422 61.2988 263.876C47.6218 279.687 35.3218 297.233 37.5778 319.213C39.3968 336.942 50.9118 352.521 65.1088 363.295C79.3058 374.069 96.1068 380.756 112.661 387.358C137.875 397.414 159.197 409.191 179.032 427.889C190.522 438.721 202.756 449.453 217.648 454.703C237.659 461.758 263.17 455.619 271.319 434.428C275.761 422.875 277.01 409.426 283.9 398.931C290.997 388.12 305.961 379.023 319.162 380.773C340.662 383.623 349.047 399.574 359.295 416.351C364.3 424.544 370.241 432.09 378.647 437.009C393.066 445.446 407.473 442.156 422.674 438.733C439.098 435.035 455.69 432.046 472.409 430.047C500.774 426.657 529.313 428.175 557.578 431.74C584.417 435.126 623.386 452.772 645.521 428.824C655.219 418.332 657.15 403.968 653.618 390.565C648.557 371.36 637.666 350.039 638.254 330.092C639.122 300.644 652.395 281.043 668.618 258.033C676.387 247.015 682.372 234.772 682.092 220.987C681.449 189.271 661.566 164.92 640.836 143.053C620.151 121.234 599.486 96.373 578.557 77.026" stroke="#ED725A" stroke-width="1.5" stroke-miterlimit="10"/>
<path d="M685.801 136.311C685.801 140.919 682.066 144.654 677.458 144.654C672.85 144.654 669.115 140.919 669.115 136.311C669.115 131.703 672.851 127.968 677.458 127.968C682.066 127.968 685.801 131.703 685.801 136.311Z" stroke="#ED725A" stroke-width="1.5" stroke-miterlimit="10"/>
<path d="M406.484 418.79C406.484 423.398 402.749 427.133 398.141 427.133C393.533 427.133 389.798 423.398 389.798 418.79C389.798 414.182 393.534 410.447 398.141 410.447C402.749 410.447 406.484 414.182 406.484 418.79Z" stroke="#ED725A" stroke-width="1.5" stroke-miterlimit="10"/>
<path d="M377.344 55.517C380.808 55.517 383.615 58.325 383.615 61.788V185.771C383.615 189.235 380.807 192.042 377.344 192.042H136.709C133.245 192.042 130.438 189.234 130.438 185.771V61.788C130.438 58.325 133.246 55.517 136.709 55.517H377.344ZM377.344 54.017H136.709C132.424 54.017 128.938 57.503 128.938 61.788V185.771C128.938 190.056 132.424 193.542 136.709 193.542H377.344C381.629 193.542 385.115 190.056 385.115 185.771V61.788C385.116 57.503 381.629 54.017 377.344 54.017Z" fill="white"/>
<path d="M377.344 192.042H136.709C133.245 192.042 130.438 189.234 130.438 185.771V72.2401H383.616V185.771C383.616 189.235 380.808 192.042 377.344 192.042Z" fill="#AFB9E8"/>
<path d="M145.165 64.368C145.165 66.35 143.558 67.9571 141.576 67.9571C139.594 67.9571 137.987 66.35 137.987 64.368C137.987 62.386 139.594 60.7791 141.576 60.7791C143.558 60.7791 145.165 62.386 145.165 64.368Z" stroke="white" stroke-width="1.5" stroke-miterlimit="10"/>
<path d="M159.077 64.368C159.077 66.35 157.47 67.9571 155.488 67.9571C153.506 67.9571 151.899 66.35 151.899 64.368C151.899 62.386 153.506 60.7791 155.488 60.7791C157.47 60.7791 159.077 62.386 159.077 64.368Z" stroke="white" stroke-width="1.5" stroke-miterlimit="10"/>
<path d="M130.438 72.2401H383.616" stroke="white" stroke-width="1.5" stroke-miterlimit="10"/>
<path d="M363.261 174.653C360.715 171.278 356.37 168.172 352.978 170.496C350.132 172.446 350.026 176.849 350.247 180.509C342.177 169.085 332.575 158.952 321.842 150.532C316.026 145.97 309.342 141.753 302.198 142.303C295.054 142.853 291.348 152.878 293.226 160.421C273.72 134.592 251.966 116.271 229.311 100.418C221.579 95.008 212.999 89.791 203.826 86.707C194.069 83.426 180.591 79.581 171.775 87.199C167.998 90.463 166.03 95.443 165.494 100.406C164.831 106.549 165.87 113.036 167.544 118.955C171.548 133.114 177.97 146.464 185.419 159.04C192.871 171.62 209.262 192.279 209.262 192.279H371.019C369.78 185.838 367.094 179.734 363.261 174.653Z" fill="#909DF4"/>
<path d="M278.198 166.973C278.198 166.973 247.143 140.04 233.823 135.473C220.503 130.906 193.133 138.242 192.79 138.242C192.446 138.242 168.289 192.046 168.289 192.046H267.365L278.198 166.973Z" fill="#FFC41D"/>
<path d="M337.194 240.096C339.459 242.459 341.813 244.736 344.249 246.923C346.599 249.033 349.173 250.915 351.465 253.074C352.03 253.607 352.546 254.19 353.06 254.772C354.934 256.892 356.824 259.035 358.189 261.514C358.371 261.844 358.548 262.186 358.821 262.445C359.095 262.704 359.492 262.868 359.853 262.76C360.228 262.648 360.466 262.283 360.625 261.925C361.285 260.439 361.121 258.715 360.717 257.14C360.458 256.126 360.104 255.14 359.821 254.133C359.586 253.299 359.243 252.401 359.369 251.536C366.022 254.315 371.434 259.352 377.5 263.248C378.742 264.046 381.479 264.343 381.94 263.245C382.55 261.792 373.699 255.234 369.645 250.899C372.701 252.461 375.943 254.096 378.702 256.151C380.614 257.575 382.701 258.79 384.982 259.515C386.262 259.922 389.201 260.525 388.602 258.187C388.425 257.497 387.905 256.955 387.395 256.459C383.432 252.612 378.649 249.894 374.485 246.266C379.173 248.115 383.475 251.428 388.511 251.602C389.002 251.619 389.532 251.592 389.919 251.29C390.508 250.831 390.705 250.192 390.322 249.551C389.938 248.91 389.277 248.496 388.64 248.106C383.967 245.247 379.098 242.088 374.425 239.229C376.938 239.911 379.262 241.142 381.669 242.134C384.077 243.126 386.674 243.893 389.258 243.571C390.09 243.467 391.123 242.932 390.934 242.116C390.843 241.721 390.483 241.456 390.148 241.228C384.468 237.345 378.788 233.462 373.109 229.58C371.516 228.491 369.922 227.401 368.288 226.373C366.321 225.135 364.05 224.216 362.223 222.823C360.796 221.736 359.073 220.929 357.543 219.989C353.763 217.667 350.102 215.163 346.552 212.502" fill="#FFCAA3"/>
<path d="M359.494 251.515C357.706 250.728 355.89 250.004 354.051 249.344" stroke="black" stroke-miterlimit="10"/>
<path d="M369.912 250.887C367.486 249.227 364.973 247.694 362.386 246.298" stroke="black" stroke-miterlimit="10"/>
<path d="M374.498 246.17C372.505 244.907 370.513 243.644 368.52 242.381" stroke="black" stroke-miterlimit="10"/>
<path d="M376.693 240.466C375.209 239.649 373.781 238.731 372.421 237.721" stroke="black" stroke-miterlimit="10"/>
<path d="M240.974 136.311C253.241 140.167 259.397 140.519 270.371 147.328C282.033 154.563 310.882 184.961 310.882 184.961C310.882 184.961 349.811 212.407 364.401 222.785L338.192 247.766C309.203 230.436 279.447 209.747 257.472 184.099" fill="#FFC41D"/>
<path d="M196.464 186.828C196.464 186.828 208.63 180.303 213.984 178.956C221.4 177.091 230.196 176.564 232.554 177.282C233.658 177.618 237.813 179.325 239.987 181.868C242.296 182.878 243.234 183.384 244.605 183.961C245.976 184.538 246.62 186.152 248.056 187.382C249.491 188.612 251.067 192.038 251.067 192.038C251.067 192.038 240.119 192.075 237.044 192.177C233.968 192.279 230.647 198.151 223.766 200.231" fill="#FFCAA3"/>
<path d="M221.529 131.471C213.089 131.403 204.87 129.204 196.447 129.199C181.148 129.19 172.367 137.216 164.925 148.341C159.29 156.765 153.984 167.132 149.991 176.381C145.331 187.177 140.111 199.199 138.751 210.989C138.129 216.382 138.904 221.952 141.397 226.745C146.01 235.612 156.26 237.161 162.239 237.825C168.218 238.49 178.695 236.47 183.826 233.288C210.833 216.542 228.69 199.759 228.69 199.759L199.636 184.866L185.698 190.32L203.3 157.78" fill="#FFC41D"/>
<path d="M201.871 160.422L185.699 190.322" stroke="black" stroke-miterlimit="10"/>
<path d="M199.637 184.868C191.306 188.101 182.974 191.333 174.643 194.566C168.955 196.773 163.379 201.14 158.848 205.2" stroke="black" stroke-miterlimit="10"/>
<path d="M189.655 188.929L219.755 207.451" stroke="black" stroke-miterlimit="10"/>
<path d="M270.56 174.437C266.575 181.025 261.057 192.039 261.057 192.039" stroke="black" stroke-miterlimit="10"/>
<path d="M353.774 215.25L324.573 239.572" stroke="black" stroke-miterlimit="10"/>
<path d="M238.862 184.987C240.979 185.549 243.133 185.974 245.305 186.259C245.976 186.347 246.675 186.431 247.243 186.798" stroke="black" stroke-miterlimit="10"/>
<path d="M240.731 182.438C240.355 182.249 239.959 182.104 239.563 181.959C237.467 181.189 235.309 180.408 233.077 180.466" stroke="black" stroke-miterlimit="10"/>
<path d="M233.929 193.397C235.062 192.581 236.462 192.211 237.85 192.067C240.732 191.768 243.817 192.389 246.583 191.305" stroke="black" stroke-miterlimit="10"/>
<path d="M125.694 213.079C126.161 224.475 133.433 235.331 143.794 240.1" stroke="black" stroke-miterlimit="10"/>
<path d="M117.628 212.584C117.864 220.02 120.934 227.226 125.694 231.515" stroke="black" stroke-miterlimit="10"/>
<path d="M281.506 140.45C290.392 147.971 298.646 156.24 306.151 165.14" stroke="black" stroke-miterlimit="10"/>
<path d="M281.703 131.533C287.9 136.135 293.58 141.433 298.6 147.296" stroke="black" stroke-miterlimit="10"/>
<path d="M209.954 146.638C205.258 144.951 200.907 142.441 196.613 139.9C194.792 138.822 192.952 137.718 191.482 136.195C190.012 134.672 188.931 132.657 188.973 130.541C189.012 128.591 189.988 126.772 191.201 125.244C194.985 120.478 201.101 118.004 207.161 117.454C213.221 116.904 219.301 118.074 225.224 119.472C234.127 121.573 243.216 124.366 250.085 130.407C252.018 132.108 253.768 134.079 254.848 136.417C256.339 139.646 256.449 143.375 255.812 146.874C255.175 150.373 253.833 153.698 252.5 156.995" fill="#FFC41D"/>
<path d="M234.039 111.464L222.067 114.952L222.335 120.971L216.275 131.31C216.275 131.31 230.6 136.858 235.986 148.171C241.853 149.043 244.202 144.287 244.202 144.287L249.97 130.466" fill="#FFCAA3"/>
<path d="M262.21 123.478C263.242 117.543 264.485 111.122 264.388 106.396C264.306 102.395 263.694 96.3531 261.11 93.2191C257.784 89.1831 251.727 89.1181 246.643 88.5511C238.295 87.6211 232.526 95.1831 230.055 102.247C228.157 107.674 228.313 112.971 230.071 118.565C232.369 125.876 240.517 135.696 251.119 134.491C256.745 133.852 261.117 129.763 262.21 123.478Z" fill="#FFCAA3"/>
<path d="M251.965 110.509C251.863 111.392 251.233 112.045 250.557 111.967C249.881 111.889 249.416 111.11 249.518 110.226C249.62 109.343 250.251 108.69 250.926 108.768C251.602 108.846 252.067 109.625 251.965 110.509Z" fill="black"/>
<path d="M263.518 111.605C263.416 112.488 262.785 113.141 262.11 113.063C261.434 112.985 260.969 112.206 261.071 111.322C261.173 110.439 261.804 109.786 262.479 109.864C263.155 109.943 263.62 110.722 263.518 111.605Z" fill="black"/>
<path d="M258.396 109.649C258.139 111.694 258.35 113.772 258.354 115.824C258.357 117.094 258.402 119.331 256.752 119.619C255.67 119.808 253.313 119.163 253.313 119.163" stroke="black" stroke-miterlimit="10"/>
<path d="M254.236 122.79L249.908 119.146C249.908 119.146 246.73 123.3 248.371 124.805C251.023 127.238 254.236 122.79 254.236 122.79Z" fill="white"/>
<path d="M261.263 94.483C263.172 97.47 264.226 99.873 264.307 108.834C265.221 108.606 266.147 108.373 266.968 107.912C267.789 107.451 268.507 106.726 268.748 105.816C269.195 104.13 267.939 102.462 267.87 100.719C267.82 99.46 268.396 98.259 269.08 97.2C269.606 96.385 270.222 95.573 270.348 94.611C270.526 93.256 269.677 91.968 268.665 91.049C266.405 88.998 263.376 88.181 260.78 86.676C259.522 85.947 258.853 84.808 257.685 83.952C256.366 82.985 254.956 82.143 253.48 81.439C250.075 79.813 246.339 78.935 242.573 78.775C235.275 78.463 228.065 81.188 222.977 86.286C216.251 93.027 213.551 105.883 217.771 113.328C220.15 117.524 222.334 120.972 222.334 120.972C222.604 121.401 228.424 116.176 228.781 115.466C229.142 114.746 229.278 113.939 229.499 113.164C230.252 110.523 232.878 110.08 235.129 109.255C238.412 108.053 240.054 105.13 240.69 101.831C241.056 99.935 241.11 97.993 241.163 96.063C241.152 96.495 243.805 97.427 244.202 97.55C248.116 98.757 252.539 98.97 256.512 97.901C257.685 97.586 258.935 97.182 259.862 96.381C260.116 96.162 261.685 94.913 261.263 94.483Z" fill="#1E1611"/>
<path d="M236.806 129.19C237.015 129.342 241.171 133.881 249.121 134.591" stroke="black" stroke-miterlimit="10"/>
<path d="M244.961 104.226C245.668 102.841 247.083 101.841 248.626 101.639C250.168 101.437 251.793 102.038 252.834 103.194" stroke="black" stroke-miterlimit="10"/>
<path d="M259.657 104.415C260.182 103.242 261.294 102.493 262.265 102.659C263.236 102.825 263.969 103.903 264.029 105.16" stroke="black" stroke-miterlimit="10"/>
<path d="M256.126 112.784C255.115 115.79 251.917 117.387 248.984 116.351C246.051 115.315 244.493 112.037 245.504 109.031C246.515 106.025 249.713 104.428 252.646 105.464C255.579 106.5 257.137 109.778 256.126 112.784Z" stroke="#572A2F" stroke-miterlimit="10"/>
<path d="M266.905 114.189C266.361 117.32 264.343 119.57 262.397 119.215C260.451 118.86 259.314 116.034 259.857 112.904C260.401 109.773 262.419 107.523 264.365 107.878C266.312 108.233 267.449 111.058 266.905 114.189Z" stroke="#572A2F" stroke-miterlimit="10"/>
<path d="M260.372 111.244L256.42 110.504" stroke="#572A2F" stroke-miterlimit="10"/>
<path d="M245.728 108.466L233.823 109.375" stroke="#572A2F" stroke-miterlimit="10"/>
<path d="M237.226 111.52C237.167 108.634 233.272 106.371 230.71 107.291C224.55 109.503 226.625 120.535 232.349 121.593C233.968 121.892 236.293 121.255 236.866 119.421" fill="#FFCAA3"/>
<path d="M230.263 112.211L235.557 117.007" stroke="black" stroke-miterlimit="10"/>
<path d="M234.507 107.962C235.796 108.738 236.842 109.93 237.464 111.336" stroke="black" stroke-miterlimit="10"/>
<path d="M227.186 116.39C227.98 118.749 229.601 121.246 232.167 121.671C233.948 121.966 235.988 121.186 236.717 119.338" stroke="black" stroke-miterlimit="10"/>
<path d="M213.592 100.15C213.712 96.2681 214.138 92.3571 215.401 88.6841C216.664 85.0111 218.816 81.5681 221.921 79.2351C223.64 77.9441 225.605 77.0201 227.593 76.2031C229.267 75.5151 230.977 74.8951 232.748 74.5181C239.383 73.1061 246.255 75.2051 252.47 77.9231" fill="#FFC36C"/>
<path d="M255.442 78.4551C253.804 76.8761 251.685 75.8561 249.481 75.2911C248.167 74.9541 246.808 74.771 245.454 74.838C244.75 74.873 244.05 74.9761 243.358 75.1121C238.549 76.0581 234.214 78.5811 230.046 81.1601C224.48 84.6041 218.924 88.3111 214.842 93.4271C213.368 95.2741 212.064 97.4051 211.932 99.7641C211.859 101.071 212.154 102.374 212.582 103.612C213.304 105.699 215.001 108.676 216.422 110.367C228.663 98.916 242.412 89.857 258.286 84.475C258.203 82.202 257.08 80.0341 255.442 78.4551Z" fill="#FFC36C"/>
<path d="M214.385 94.0201C214.385 94.0201 224.719 79.6131 243.9 74.8251" stroke="black" stroke-miterlimit="10"/>
<path d="M219.755 95.6481C221.268 98.2641 222.819 100.927 225.072 102.942" stroke="black" stroke-miterlimit="10"/>
<path d="M231.83 84.816C233.397 88.118 235.342 91.253 237.618 94.142" stroke="black" stroke-miterlimit="10"/>
<path d="M244.639 77.933C247.281 80.656 249.54 83.75 251.328 87.097" stroke="black" stroke-miterlimit="10"/>
<path d="M249.058 76.3751C251.328 79.1711 253.318 82.4911 254.8 85.7291" stroke="black" stroke-miterlimit="10"/>
<path d="M213.747 97.261C214.489 101.412 216.918 104.93 220.018 107.429" stroke="black" stroke-miterlimit="10"/>
<path d="M206.679 127.47C212.53 129.656 218.44 131.87 223.646 135.321C228.853 138.771 234.125 143.619 235.985 149.582" stroke="black" stroke-miterlimit="10"/>
<path d="M240.038 147.766C242.702 146.488 244.866 144.198 245.991 141.466" stroke="black" stroke-miterlimit="10"/>
<path d="M188.971 129.911C191.677 145.451 212.177 142.478 221.726 147.296" stroke="black" stroke-miterlimit="10"/>
<path d="M256.162 141.201C255.788 143.335 255.05 145.463 253.634 147.103C251.506 149.566 248.198 150.586 245.072 151.492" stroke="black" stroke-miterlimit="10"/>
<path d="M247.901 147.766C249.323 157.539 250.762 168.491 250.307 178.356" stroke="black" stroke-miterlimit="10"/>
<path d="M226.178 145.521C227.661 149.582 226.964 160.593 226.803 170.526" stroke="black" stroke-miterlimit="10"/>
<path d="M325.395 430.092H102.759C99.2948 430.092 96.4878 427.284 96.4878 423.821V273.073H331.666V423.821C331.666 427.285 328.858 430.092 325.395 430.092Z" fill="#D4BCDD"/>
<path d="M325.395 252.751C328.859 252.751 331.666 255.559 331.666 259.022V423.821C331.666 427.285 328.858 430.092 325.395 430.092H102.759C99.2948 430.092 96.4878 427.284 96.4878 423.821V259.022C96.4878 255.558 99.2958 252.751 102.759 252.751H325.395ZM325.395 251.251H102.759C98.4738 251.251 94.9878 254.737 94.9878 259.022V423.821C94.9878 428.106 98.4738 431.592 102.759 431.592H325.394C329.679 431.592 333.165 428.106 333.165 423.821V259.022C333.166 254.737 329.68 251.251 325.395 251.251Z" fill="white"/>
<path d="M114.385 263.507C114.385 265.916 112.432 267.869 110.024 267.869C107.615 267.869 105.663 265.916 105.663 263.507C105.663 261.098 107.616 259.146 110.024 259.146C112.432 259.146 114.385 261.099 114.385 263.507Z" stroke="white" stroke-width="1.5" stroke-miterlimit="10"/>
<path d="M126.929 267.868C129.337 267.868 131.29 265.916 131.29 263.507C131.29 261.098 129.337 259.146 126.929 259.146C124.52 259.146 122.568 261.098 122.568 263.507C122.568 265.916 124.52 267.868 126.929 267.868Z" stroke="white" stroke-width="1.5" stroke-miterlimit="10"/>
<path d="M96.4878 273.073H331.666" stroke="white" stroke-width="1.5" stroke-miterlimit="10"/>
<path d="M309.068 430.092C305.91 422.305 301.608 415.012 296.353 408.539C293.127 404.565 289.378 400.787 284.645 399.039C279.912 397.29 274.005 398.056 270.787 402.037C268.325 405.082 267.857 409.288 267.49 413.233C259.694 404.865 251.798 396.412 242.289 390.205C232.78 383.998 221.24 379.583 210.229 381.997C198.019 384.674 198.019 400.106 198.019 400.106C198.019 400.106 190.534 389.614 189.858 388.627C184.852 381.305 179.189 374.599 173.162 368.159C167.243 361.835 161.614 355.184 154.946 349.663C148.301 344.162 137.517 337.137 128.586 340.466C123.94 342.198 122.66 346.229 123.691 350.877C124.655 355.227 125.163 359.586 126.515 363.868C119.004 355.496 110.456 347.787 100.547 342.576C93.3969 338.816 78.4789 332.445 71.0579 338.603C68.9179 340.379 67.9459 343.321 67.8829 346.151C67.4939 363.473 79.9749 382.088 90.0309 394.886C100.348 408.017 112.795 419.648 125.684 430.092H309.068Z" fill="#FFDD99"/>
<path d="M263.879 351.832C262.545 359.195 262.941 366.807 262.977 374.33C263.013 381.854 263.619 386.776 260.897 393.605C258.44 399.772 253.308 401.867 250.629 407.907C249.265 410.983 244.092 430.078 244.092 430.078H174.619C174.619 430.078 172.671 400.062 183.384 374.447C194.097 348.831 207.489 344.237 207.489 344.237L247.014 334.042L263.879 351.832Z" fill="#1F54BF"/>
<path d="M354.896 307.052C356.957 304.566 359.84 303.006 362.308 300.984C364.583 299.121 366.283 296.508 368.17 294.251C370.478 291.49 372.272 288.349 374.274 285.37C376.422 282.173 379.175 279.587 381.901 276.896C382.279 276.522 382.666 276.137 382.881 275.651C383.27 274.773 382.817 273.619 381.809 273.347C379.839 272.816 377.738 273.32 375.827 274.035C374.692 274.46 370.843 275.823 370.609 273.656C370.345 271.207 372.395 267.631 373.181 265.361C374.202 262.408 375.248 259.448 376.077 256.433C376.866 253.561 376.687 248.042 375.16 247.952C373.632 247.862 374.785 248.777 374.387 248.993C375.025 248.153 373.908 246.214 372.992 245.635C372.076 245.056 370.884 246.931 370.61 247.942C370.922 246.955 370.055 245.324 369.321 245.256C368.253 245.157 367.423 246.169 366.786 246.994C366.149 247.819 365.583 248.741 364.682 249.293C364.689 248.585 364.583 247.875 364.368 247.195C363.672 246.801 362.872 247.453 362.369 248.047C352.13 260.136 345.202 275.126 333.844 286.764" fill="#E27769"/>
<path d="M370.85 271.995C370.886 274.971 370.81 277.948 370.623 280.919" stroke="black" stroke-miterlimit="10"/>
<path d="M374.061 248.284C373.167 251.093 371.441 253.467 370.144 256.08C368.079 260.239 366.234 264.5 364.318 268.728" stroke="black" stroke-miterlimit="10"/>
<path d="M370.536 247.732C369.911 249.046 369.198 250.318 368.403 251.536C367.551 252.842 366.607 254.085 365.695 255.349C363.087 258.963 360.736 262.762 358.664 266.708" stroke="black" stroke-miterlimit="10"/>
<path d="M364.328 249.742C363.638 251.214 362.512 252.427 361.449 253.657C358.119 257.509 355.252 261.76 352.929 266.291" stroke="black" stroke-miterlimit="10"/>
<path d="M227.075 338.025C239.505 332.823 247.647 327.361 259.953 321.818C271.049 316.821 286.62 312.722 297.561 307.388C312.691 300.012 326.878 291.865 339.315 280.705L361.909 304.492C361.909 304.492 329.98 337.064 318.833 343.413C291.97 358.714 282.185 361.579 254.261 376.183" fill="#1F54BF"/>
<path d="M262.661 372.093C262.819 366.475 264.1 360.891 266.408 355.766" stroke="black" stroke-miterlimit="10"/>
<path d="M331.774 286.959L354.182 312.109" stroke="black" stroke-miterlimit="10"/>
<path d="M223.459 406.982C232.935 407.158 242.371 408.654 250.586 413.646C254.531 416.043 256.729 419.25 257.816 423.701C258.734 427.459 259.031 431.478 258.693 435.333C258.661 435.699 258.378 436.036 258.063 436.112C257.618 436.22 256.723 435.776 256.723 435.776C256.723 435.776 257.531 439.598 256.675 440.393C256.079 440.947 254.954 440.194 254.531 439.733C254.038 439.196 253.365 437.824 253.365 437.824C253.365 437.824 253.93 440.017 253.453 440.395C252.745 440.955 250.698 439.535 250.214 438.098C249.916 438.914 249.43 439.671 248.677 439.471C246.309 438.842 244.456 435.492 242.507 433.831C239.917 431.623 236.443 431.473 233.212 431.522C231.725 431.544 230.234 431.581 228.751 431.434C227.232 431.283 225.864 430.687 224.382 430.387C221.624 429.829 218.747 429.574 215.949 429.411" fill="#E27769"/>
<path d="M240.958 426.72C243.559 427.801 246.315 429.005 247.779 431.234C248.217 431.901 248.518 432.633 248.787 433.369C249.353 434.921 249.785 436.51 250.216 438.097" stroke="black" stroke-miterlimit="10"/>
<path d="M244.69 422.02C246.169 422.96 247.619 423.963 248.873 425.187C250.127 426.411 251.184 427.869 251.755 429.525C252.081 430.472 252.244 431.466 252.408 432.454C252.745 434.489 253.094 436.522 253.453 438.553" stroke="black" stroke-miterlimit="10"/>
<path d="M249.769 418.79C252.232 420.626 254.161 423.171 255.262 426.039C256.236 428.575 256.561 431.306 256.879 434.005C256.98 434.86 257.08 435.715 257.181 436.57" stroke="black" stroke-miterlimit="10"/>
<path d="M213.023 339.844C213.023 339.844 193.412 342.745 185.886 347.068C174.12 353.827 168.948 364.143 161.45 381.637C153.952 399.131 150.911 406.808 150.838 412.604C150.73 421.137 154.571 430.08 170.266 430.08C198.225 430.08 220.319 430.08 220.319 430.08L230.418 406.49L191.47 400.396L202.218 375.233" fill="#1F54BF"/>
<path d="M230.417 406.49L191.469 400.396L202.217 375.233" stroke="black" stroke-miterlimit="10"/>
<path d="M177.637 403.996C177.937 403.996 183.865 400.302 191.47 400.396" stroke="black" stroke-miterlimit="10"/>
<path d="M219.673 404.809L208.989 430.08" stroke="black" stroke-miterlimit="10"/>
<path d="M243.431 345.852C243.946 343.191 243.928 340.351 243.501 337.497" stroke="black" stroke-miterlimit="10"/>
<path d="M201.925 345.18C204.086 350.576 208.866 355.05 214.088 357.339C220.663 360.22 229.581 360.753 235.865 356.905C238.792 355.112 240.806 352.755 242.076 350.063" stroke="black" stroke-miterlimit="10"/>
<path d="M312.539 355.296C324.248 349.331 334.954 341.404 344.075 331.944" stroke="black" stroke-miterlimit="10"/>
<path d="M334.38 349.636C340.056 345.24 345.378 340.387 350.278 335.14" stroke="black" stroke-miterlimit="10"/>
<path d="M146.589 397.886C144.112 405.964 143.218 414.524 143.974 422.939" stroke="black" stroke-miterlimit="10"/>
<path d="M138.77 399.091C137.207 403.624 136.313 408.388 136.128 413.18" stroke="black" stroke-miterlimit="10"/>
<path d="M219.586 315.727L208.861 322.915L211.176 330.581L207.951 342.137C207.745 342.874 207.87 343.658 208.296 344.293C210.048 346.902 215.485 353.385 226.261 353.375C237.651 353.364 237.491 345.809 237.491 345.809L239.565 329.717" fill="#E27769"/>
<path d="M241.16 314.769C238.211 309.274 236.526 305.874 233.428 302.085C230.805 298.877 226.448 294.344 222.34 293.441C217.051 292.276 212.074 296.092 207.569 298.878C200.172 303.452 200.301 313.299 202.799 320.634C204.718 326.269 208.686 328.419 213.692 331.855C220.234 336.345 234.454 338.376 240.559 333.456C245.126 329.777 244.283 320.589 241.16 314.769Z" fill="#E27769"/>
<path d="M225.351 314.285C225.701 315.137 225.457 316.044 224.805 316.312C224.154 316.58 223.342 316.107 222.992 315.255C222.642 314.404 222.886 313.496 223.538 313.228C224.189 312.96 225.001 313.433 225.351 314.285Z" fill="black"/>
<path d="M235.853 308.499C236.203 309.35 235.959 310.258 235.308 310.526C234.657 310.794 233.845 310.32 233.495 309.469C233.145 308.617 233.389 307.71 234.041 307.442C234.691 307.174 235.503 307.647 235.853 308.499Z" fill="black"/>
<path d="M230.229 312.2C231.405 313.248 232.822 313.953 234.241 314.608C235.12 315.014 238.051 315.795 237.397 317.221C236.977 318.137 235.263 319.584 235.263 319.584" stroke="black" stroke-miterlimit="10"/>
<path d="M208.77 339.202C208.77 339.202 210.109 335.776 210.435 334.551C210.984 332.482 209.243 332.376 208.643 330.554C208.33 329.605 208.587 328.442 208.798 327.502C209.25 325.485 210.289 323.22 209.358 321.184C208.769 319.895 207.503 319.078 206.49 318.087C205.476 317.096 204.651 315.585 205.258 314.304C205.976 312.788 208.097 312.675 209.398 311.616C210.698 310.558 211.002 308.692 210.913 307.018C210.824 305.344 210.438 303.658 210.731 302.008C210.784 301.711 210.866 301.403 211.076 301.186C211.711 300.528 212.77 301.165 213.567 301.613C215 302.419 216.733 302.319 218.232 301.712C218.992 301.404 219.689 300.84 219.963 300.067C220.133 299.59 220.131 299.071 220.214 298.571C220.297 298.071 220.494 297.547 220.926 297.282C221.24 297.09 221.628 297.066 221.995 297.082C223.152 297.134 224.291 297.539 225.221 298.231C226 298.811 226.437 299.231 227.419 299.194C228.362 299.158 229.269 298.846 230.211 299.12C231.347 299.451 232.106 300.492 232.776 301.467C234.62 304.151 236.464 306.835 238.308 309.519C239.23 308.188 240.166 306.828 240.62 305.274C241.073 303.72 240.968 301.911 239.948 300.654C238.965 299.443 237.287 298.9 236.452 297.582C235.529 296.126 235.672 294.022 235.572 292.373C235.463 290.573 234.909 288.756 233.881 287.236C232.886 285.765 231.214 284.622 229.443 284.757C228.418 284.835 227.443 285.327 226.416 285.296C225.781 285.277 225.17 285.059 224.587 284.808C221.886 283.649 219.545 281.768 216.854 280.587C214.163 279.406 210.787 279.047 208.465 280.849C207.274 281.773 206.484 283.173 205.188 283.942C201.451 286.16 196.089 281.982 192.528 284.471C190.23 286.077 190.159 289.555 188.224 291.584C185.75 294.178 181.25 293.496 178.443 295.725C175.611 297.974 175.6 302.458 177.299 305.651C178.139 307.229 179.362 308.854 179 310.604C178.774 311.694 177.969 312.553 177.285 313.432C176.308 314.69 175.513 316.142 175.318 317.723C175.123 319.304 175.608 321.025 176.826 322.051C177.583 322.689 178.736 322.991 179.309 323.817C179.954 324.747 180.135 326.414 180.262 327.51C180.374 328.473 180.386 329.457 180.677 330.382C181.472 332.907 184.259 334.411 186.906 334.412C188.127 334.412 189.467 334.183 190.471 334.877C191.303 335.451 191.642 336.49 192.146 337.366C193.786 340.214 197.776 341.411 200.713 339.936C201.817 339.382 202.837 338.492 204.072 338.473C205.299 338.456 207.608 339.404 208.77 339.202Z" fill="#2C221D"/>
<path d="M226.017 336.047C229.323 336.871 235.587 337.044 240.335 334.044" stroke="black" stroke-miterlimit="10"/>
<path d="M217.077 314.028C217.067 310.712 219.257 307.532 222.833 308.159" stroke="black" stroke-miterlimit="10"/>
<path d="M229.403 305.767C229.291 304.822 230.001 303.717 231.07 303.174C232.139 302.631 233.468 302.713 234.215 303.322" stroke="black" stroke-miterlimit="10"/>
<path d="M214.567 323.611C212.676 321.297 208.057 321.94 206.556 324.326C202.949 330.063 211.687 337.728 217.027 334.934C218.538 334.144 220.025 332.139 219.321 330.279" fill="#E27769"/>
<path d="M209.334 328.621L216.712 329.148" stroke="black" stroke-miterlimit="10"/>
<path d="M210.079 322.448C211.625 322.256 213.239 322.561 214.643 323.309" stroke="black" stroke-miterlimit="10"/>
<path d="M209.496 333.992C211.65 335.408 214.566 336.407 216.928 335.114C218.567 334.217 219.731 332.278 219.145 330.307" stroke="black" stroke-miterlimit="10"/>
<path d="M231.379 320.129C230.903 321.905 231.491 324.239 233.529 324.606C235.057 324.882 236.711 323.941 237.205 322.462" stroke="black" stroke-miterlimit="10"/>
<path d="M639.287 218.99H416.387C412.923 218.99 410.116 216.182 410.116 212.719V102.533H645.558V212.718C645.558 216.182 642.75 218.99 639.287 218.99Z" fill="#D5D8BC"/>
<path d="M639.287 85.8101C642.751 85.8101 645.558 88.6181 645.558 92.0811V212.718C645.558 216.182 642.75 218.989 639.287 218.989H416.387C412.923 218.989 410.116 216.181 410.116 212.718V92.0821C410.116 88.6181 412.924 85.8111 416.387 85.8111L639.287 85.8101ZM639.287 84.3101H416.387C412.102 84.3101 408.616 87.7961 408.616 92.0811V212.718C408.616 217.003 412.102 220.489 416.387 220.489H639.286C643.571 220.489 647.057 217.003 647.057 212.718V92.0821C647.058 87.7971 643.572 84.3101 639.287 84.3101Z" fill="white"/>
<path d="M421.254 91.0731C423.236 91.0731 424.843 92.6801 424.843 94.6621C424.843 96.6441 423.236 98.2511 421.254 98.2511C419.272 98.2511 417.665 96.6441 417.665 94.6621C417.665 92.6801 419.272 91.0731 421.254 91.0731ZM421.254 89.5731C418.448 89.5731 416.165 91.8561 416.165 94.6621C416.165 97.4681 418.448 99.7511 421.254 99.7511C424.06 99.7511 426.343 97.4681 426.343 94.6621C426.343 91.8561 424.06 89.5731 421.254 89.5731Z" fill="white"/>
<path d="M435.166 91.0731C437.148 91.0731 438.755 92.6801 438.755 94.6621C438.755 96.6441 437.148 98.2511 435.166 98.2511C433.184 98.2511 431.577 96.6441 431.577 94.6621C431.577 92.6801 433.184 91.0731 435.166 91.0731ZM435.166 89.5731C432.36 89.5731 430.077 91.8561 430.077 94.6621C430.077 97.4681 432.36 99.7511 435.166 99.7511C437.972 99.7511 440.255 97.4681 440.255 94.6621C440.255 91.8561 437.972 89.5731 435.166 89.5731Z" fill="white"/>
<path d="M410.116 102.533H645.558" stroke="white" stroke-width="1.5" stroke-miterlimit="10"/>
<path d="M613.41 198.169C609.002 190.805 604.327 183.164 597.087 178.672C589.847 174.18 579.246 174.01 573.841 180.653C569.05 186.541 569.94 195.126 571.088 202.675C565.757 195.869 559.513 189.802 552.582 184.695C547.233 180.754 541.335 177.328 534.839 176.093C528.095 174.81 520.401 176.224 514.868 180.395C507.316 186.087 507.432 195.049 508.173 203.694C499.007 186.32 488.82 169.084 474.709 155.197C471.057 151.603 466.765 148.491 461.829 147.114C458.998 146.325 455.803 146.171 453.265 147.653C449.407 149.904 448.386 154.985 448.276 159.451C448.143 164.839 448.764 170.245 450.116 175.463C447.653 172.817 444.404 170.858 440.854 170.179C432.686 168.615 424.625 174.793 424.159 183.178C423.675 191.901 428.983 200.228 433.037 207.555C434.582 210.347 436.17 213.129 437.919 215.8C438.26 216.321 439.561 218.911 440.351 218.911C440.355 218.911 625.091 218.911 625.091 218.911C621.198 212.403 617.304 204.674 613.41 198.169Z" fill="#B5AE6B"/>
<mask id="mask0_34_1391" style="mask-type:luminance" maskUnits="userSpaceOnUse" x="410" y="85" width="236" height="134">
<path d="M639.287 218.99H416.387C412.923 218.99 410.116 216.182 410.116 212.719V92.082C410.116 88.618 412.924 85.811 416.387 85.811H639.286C642.75 85.811 645.557 88.619 645.557 92.082V212.719C645.558 216.182 642.75 218.99 639.287 218.99Z" fill="white"/>
</mask>
<g mask="url(#mask0_34_1391)">
<path d="M629.575 210.732L567.787 92.312L550.228 91.2791L536.44 102.533L500.968 128.324L540.844 245.187L629.575 210.732Z" fill="white"/>
<path d="M513.488 126.619C516.936 129.492 521.738 130.662 526.121 129.697" stroke="black" stroke-miterlimit="10"/>
<path d="M530.442 128.324C534.76 126.872 538.591 124.009 541.207 120.279C543.823 116.549 545.21 111.972 545.104 107.417" stroke="black" stroke-miterlimit="10"/>
<path d="M612.715 166.704C602.025 146.316 569.944 82.064 561.48 85.228C551.768 88.858 540.844 98.218 540.844 98.218C540.844 98.218 546.077 114.967 546.476 116.555C547.931 122.346 549.428 128.125 550.968 133.894C554.802 148.255 558.218 162.828 562.953 176.926C567.762 191.245 573.09 205.397 578.835 219.366C581.138 224.966 582.988 231.529 587.37 235.912C589.855 238.443 593.332 240.208 596.866 239.897C599.306 239.682 601.548 238.523 603.718 237.387C613.265 232.387 639.875 220.464 639.875 220.464C639.875 220.464 626.198 192.419 612.715 166.704Z" fill="#3980FF"/>
<path d="M558.206 245.065C555.608 235.601 551.16 226.892 547.866 217.693C543.557 205.658 539.728 193.456 535.282 181.469C528.5 163.184 518.883 137.899 511.521 119.84C511.521 119.84 498.024 127.583 495.302 129.46C492.58 131.338 493.171 135.805 493.171 135.805C503.914 175.87 536.452 266.863 536.452 266.863C540.304 264.827 549.858 259.46 553.71 257.424C558.787 254.742 559.666 250.382 558.206 245.065Z" fill="#3980FF"/>
<path d="M497.981 127.776C510.459 146.945 520.174 162.554 533.179 181.37" stroke="black" stroke-miterlimit="10"/>
<path d="M557.783 90.067C560.372 115.496 561.95 141.027 562.515 166.581" stroke="black" stroke-miterlimit="10"/>
</g>
<path d="M428.258 225.81C425.655 227.795 422.978 229.682 420.235 231.467C417.588 233.189 414.755 234.651 412.156 236.431C411.515 236.87 410.916 237.367 410.318 237.862C408.139 239.668 405.942 241.493 404.211 243.732C403.981 244.03 403.753 244.341 403.443 244.554C403.133 244.768 402.715 244.868 402.375 244.706C402.022 244.537 401.843 244.14 401.741 243.762C401.318 242.192 401.746 240.514 402.388 239.02C402.801 238.058 403.302 237.139 403.737 236.187C404.098 235.399 404.575 234.565 404.584 233.691C397.582 235.411 391.458 239.552 384.863 242.466C383.513 243.063 380.763 242.935 380.476 241.778C380.097 240.249 389.854 235.134 394.528 231.476C391.268 232.548 387.812 233.663 384.77 235.268C382.661 236.38 380.412 237.258 378.046 237.623C376.719 237.827 373.722 237.971 374.674 235.753C374.955 235.099 375.552 234.643 376.134 234.232C380.643 231.042 385.788 229.095 390.462 226.153C385.545 227.257 380.784 229.867 375.781 229.262C375.294 229.203 374.774 229.095 374.438 228.737C373.927 228.192 373.83 227.531 374.308 226.956C374.786 226.382 375.503 226.075 376.193 225.788C381.251 223.684 386.549 221.314 391.607 219.21C389.019 219.496 386.533 220.354 384.001 220.963C381.469 221.572 378.784 221.929 376.281 221.212C375.475 220.981 374.537 220.293 374.85 219.516C375.001 219.14 375.398 218.934 375.763 218.759C381.974 215.799 388.185 212.839 394.395 209.878C396.137 209.048 397.88 208.217 399.653 207.453C403.502 205.795 407.223 203.899 411.083 202.245C415.136 200.509 419.21 198.826 423.306 197.194" fill="#D16159"/>
<path d="M404.462 233.652C406.35 233.15 408.256 232.715 410.175 232.347" stroke="black" stroke-miterlimit="10"/>
<path d="M394.266 231.425C396.919 230.159 399.639 229.032 402.41 228.051" stroke="black" stroke-miterlimit="10"/>
<path d="M390.463 226.057C392.626 225.117 394.79 224.176 396.953 223.236" stroke="black" stroke-miterlimit="10"/>
<path d="M389.173 220.083C390.765 219.504 392.318 218.818 393.817 218.03" stroke="black" stroke-miterlimit="10"/>
<path d="M495.303 129.46C490.679 132.54 486.106 135.98 483.172 139.171C478.467 144.289 450.802 177.819 450.802 177.819C450.802 177.819 422.464 194.909 406.223 204.347L423.981 233.278C423.981 233.278 456.905 221.441 473.696 209.646C488.959 198.924 518.179 163.793 518.179 163.793" fill="#3980FF"/>
<path d="M506.881 177.825L497.981 150.147" stroke="black" stroke-miterlimit="10"/>
<path d="M421.168 195.552L440.871 226.161" stroke="black" stroke-miterlimit="10"/>
<path d="M418.749 224.755L435.094 217.187" stroke="black" stroke-miterlimit="10"/>
<path d="M429.694 216.807C429.776 217.557 429.235 218.231 428.486 218.314C427.736 218.396 427.062 217.855 426.979 217.105C426.897 216.355 427.438 215.681 428.188 215.598C428.937 215.516 429.611 216.057 429.694 216.807Z" stroke="black" stroke-miterlimit="10"/>
<path d="M421.71 220.424C422.464 220.424 423.076 219.812 423.076 219.058C423.076 218.304 422.464 217.692 421.71 217.692C420.955 217.692 420.344 218.304 420.344 219.058C420.344 219.812 420.955 220.424 421.71 220.424Z" stroke="black" stroke-miterlimit="10"/>
<path d="M450.611 178.236C450.588 178.052 450.565 177.868 450.542 177.685C454.315 176.554 457.917 174.852 461.188 172.656" stroke="black" stroke-miterlimit="10"/>
<path d="M463.941 145.618C469.296 139.176 475.852 133.735 483.171 129.659" stroke="black" stroke-miterlimit="10"/>
<path d="M468.255 130.901C473.323 127.129 478.864 123.993 484.708 121.591" stroke="black" stroke-miterlimit="10"/>
<path d="M522.454 78.247L526.411 89.966L540.529 103.624C540.529 103.624 540.897 111.75 532.91 120.269C524.984 128.723 516.396 123.049 516.396 123.049L506.146 107.978" fill="#D16159"/>
<path d="M489.403 108.791C487.779 103.588 485.731 92.364 485.888 88.09C486.021 84.471 487.103 80.9301 489.487 78.1321C492.556 74.5291 499.772 75.8201 504.38 75.3821C511.946 74.6631 516.673 83.6281 518.806 90.0551C520.444 94.9921 521.223 100.075 519.551 105.111C516.831 113.299 508.097 121.575 498.856 119.336C493.836 118.119 490.976 113.834 489.403 108.791Z" fill="#D16159"/>
<path d="M529.599 76.78C528.385 75.484 526.716 74.467 526.176 72.775C525.877 71.837 525.412 69.03 525.109 68.094C523.42 62.872 519.041 61.124 514.065 61.982C513.534 56.988 508.237 56.506 503.887 56.456C502.075 56.435 500.232 56.258 498.609 55.391C496.893 54.474 495.337 53.176 493.333 52.985C491.545 52.815 489.704 53.404 488.219 54.381C483.061 57.772 481.588 64.333 475.27 66.314C473.274 66.94 471.188 67.125 469.465 68.435C468.179 69.412 467.222 70.874 467.041 72.48C466.783 74.771 468.297 76.165 469.86 77.559C471.683 79.185 472.746 81.257 472.599 83.731C472.51 85.229 472.109 86.688 471.869 88.169C471.187 92.386 472.534 96.372 476.066 98.925C476.811 99.463 477.819 99.967 480.546 100.559C482.468 100.976 487.454 100.256 487.454 100.256C487.454 100.256 486.223 93.083 486.246 90.291C486.268 87.635 487.078 85.16 488.632 83.038C489.958 81.227 492.857 80.59 495.017 80.687C498.252 80.832 501.342 82.615 504.558 82.238C505.894 82.081 507.164 81.518 508.213 80.679C512.539 83.48 517.017 87.598 518.008 92.619C518.058 92.874 518.694 95.847 518.47 95.894C522.179 95.114 526.852 94.814 528.519 90.764C529.094 89.367 528.804 87.898 529.239 86.482C529.599 85.309 530.648 84.453 531.137 83.327C532.081 81.148 531.221 78.512 529.599 76.78Z" fill="#2C221D"/>
<path d="M514.18 92.005C514.372 88.778 518.828 86.416 521.655 87.557C528.452 90.301 525.648 102.555 519.197 103.489C517.372 103.753 514.799 102.938 514.238 100.861" fill="#D16159"/>
<path d="M521.941 93.082L515.807 98.218" stroke="black" stroke-miterlimit="10"/>
<path d="M517.377 88.143C515.9 88.955 514.678 90.244 513.921 91.789" stroke="black" stroke-miterlimit="10"/>
<path d="M525.202 97.893C524.211 100.498 522.288 103.222 519.398 103.585C517.392 103.837 515.144 102.875 514.409 100.776" stroke="black" stroke-miterlimit="10"/>
<path d="M511.904 116.443C511.904 116.443 515.205 114.346 517.377 109.728" stroke="black" stroke-miterlimit="10"/>
<path d="M494.91 96.376C495.216 99.254 495.533 102.131 495.861 105.007C495.906 105.404 495.965 105.83 496.24 106.121C497.325 107.268 499.813 106.717 500.969 106.03" stroke="black" stroke-miterlimit="10"/>
<path d="M503.68 107.21L498.705 110.116C498.705 110.116 500.63 113.806 502.557 113.085C506.146 111.744 503.68 107.21 503.68 107.21Z" fill="white"/>
<path d="M497.444 90.155C497.954 89.108 499.002 88.405 500.11 88.047C501.983 87.442 504.126 87.739 505.764 88.831" stroke="black" stroke-miterlimit="10"/>
<path d="M485.82 94.331C485.999 93.234 486.629 92.404 487.365 91.905C488.608 91.062 490.209 91.071 491.588 91.927" stroke="black" stroke-miterlimit="10"/>
<path d="M504.026 94.4461C504.281 95.5201 503.812 96.5511 502.979 96.7481C502.146 96.9451 501.264 96.2351 501.01 95.1611C500.755 94.0871 501.224 93.0561 502.057 92.8591C502.89 92.6621 503.771 93.3721 504.026 94.4461Z" fill="black"/>
<path d="M492.555 97.8601C492.81 98.9341 492.341 99.9651 491.508 100.162C490.675 100.36 489.793 99.6491 489.539 98.5751C489.284 97.5011 489.753 96.4701 490.586 96.2731C491.418 96.0761 492.3 96.7861 492.555 97.8601Z" fill="black"/>
<path d="M489.531 82.0781C487.391 83.2281 486.46 85.7421 485.014 87.6941C482.676 90.8491 478.623 92.6461 474.714 92.2591" stroke="#635149" stroke-miterlimit="10"/>
<path d="M508.579 80.391C510.517 78.602 511.908 76.229 512.522 73.665" stroke="#635149" stroke-miterlimit="10"/>
<path d="M690.208 345.078H522.615C519.151 345.078 516.344 342.27 516.344 338.807V219.74H696.48V338.807C696.479 342.271 693.672 345.078 690.208 345.078Z" fill="#F9D4BB"/>
<path d="M690.208 203.018C693.672 203.018 696.479 205.826 696.479 209.289V338.807C696.479 342.271 693.671 345.078 690.208 345.078H522.615C519.151 345.078 516.344 342.27 516.344 338.807V209.289C516.344 205.825 519.152 203.018 522.615 203.018H690.208ZM690.208 201.518H522.615C518.33 201.518 514.844 205.004 514.844 209.289V338.807C514.844 343.092 518.33 346.578 522.615 346.578H690.208C694.493 346.578 697.979 343.092 697.979 338.807V209.289C697.979 205.004 694.493 201.518 690.208 201.518Z" fill="white"/>
<path d="M531.071 211.869C531.071 213.851 529.464 215.458 527.482 215.458C525.5 215.458 523.893 213.851 523.893 211.869C523.893 209.887 525.5 208.28 527.482 208.28C529.464 208.28 531.071 209.887 531.071 211.869Z" stroke="white" stroke-width="1.5" stroke-miterlimit="10"/>
<path d="M544.982 211.869C544.982 213.851 543.375 215.458 541.393 215.458C539.411 215.458 537.804 213.851 537.804 211.869C537.804 209.887 539.411 208.28 541.393 208.28C543.375 208.28 544.982 209.887 544.982 211.869Z" stroke="white" stroke-width="1.5" stroke-miterlimit="10"/>
<path d="M516.344 219.74H696.479" stroke="white" stroke-width="1.5" stroke-miterlimit="10"/>
<path d="M650.048 296.819C645.923 296.097 644.757 307.188 646.735 310.879C641.303 303.111 634.427 291.213 628.994 283.445C622.901 274.732 615.62 263.88 604.632 261.044C594.734 258.489 589.571 267.109 589.416 275.91C589.268 284.336 590.115 292.836 591.676 301.11C593.377 310.131 595.586 320.406 600.497 328.282C595.277 319.912 586.923 317.082 577.588 317.859C573.24 318.221 568.72 319.684 565.975 323.075C561.584 328.499 563.231 338.356 565.102 345.08C569.184 345.08 573.267 345.08 577.349 345.08C599.062 345.08 685.075 345.116 685.075 345.116C685.075 345.116 663.434 299.163 650.048 296.819Z" fill="#EF9748"/>
<path d="M525.297 281.195C507.4 281.461 489.66 277.676 472.539 272.457C455.418 267.239 424.225 255.782 424.225 255.782L415.319 282.674C415.319 282.674 461.43 311.885 522.793 316.874" fill="#E27769"/>
<path d="M563.629 288.498C551.702 278.378 525.86 279.101 518.451 279.39C511.042 279.679 497.838 277.491 497.838 277.491L492.977 318.005C492.977 318.005 520.414 322.61 535.679 323.725" fill="#2C221D"/>
<path d="M530.015 298.217C531.888 303.499 531.033 311.27 531.054 316.874C531.073 321.873 532.83 324.65 533.568 329.594C534.451 335.503 537.803 339.724 541.339 345.078H617.328L613.325 302.946L602.981 287.997L581.14 282.174L531.833 295.142" fill="#2C221D"/>
<path d="M553.874 287.998C553.116 290.673 552.564 293.674 553.024 296.446C553.563 299.694 555.623 301.739 558.562 302.947" stroke="#6D574E" stroke-miterlimit="10"/>
<path d="M562.298 303.841C575.765 306.254 589.936 296.628 591.289 284.374" stroke="#6D574E" stroke-miterlimit="10"/>
<path d="M663.612 340.221C662.518 337.046 660.463 334.302 658.35 331.693C652.54 324.519 646.036 317.907 638.959 311.978L613.53 335.125L629.266 350.379L610.888 383.69L635.265 390.647C635.265 390.647 653.921 370.044 661.06 358.559C664.564 352.922 665.792 346.548 663.612 340.221Z" fill="#E27769"/>
<path d="M615.751 376.227C615.751 376.227 605.09 391.57 604.013 394.339C603.045 396.827 602.517 399.94 602.137 402.591C601.089 409.898 605.006 417.41 607.959 420.959C608.292 421.359 608.785 421.617 609.28 421.709C610.375 421.913 610.814 421.344 610.79 420.052C611.388 420.865 611.985 421.677 612.583 422.49C612.83 422.826 613.089 423.173 613.443 423.348C614.122 423.684 614.971 423.274 615.492 422.61C616.013 421.946 616.279 421.082 616.532 420.245C617.165 421.161 618.148 422.122 619.096 421.561C620.044 421 620.863 418.972 620.651 417.807C620.962 418.831 622.32 418.859 623.062 418.114C623.803 417.369 624.075 416.202 624.296 415.114C624.855 412.359 625.381 409.518 626.73 407.111C627.629 405.506 628.852 404.175 629.918 402.707C633.39 397.927 635.108 391.834 636.229 385.832" fill="#E27769"/>
<path d="M622.745 399.877C622.265 400.94 621.784 402.003 621.304 403.065C620.914 403.928 620.523 404.793 620.209 405.689C618.81 409.682 619.042 414.248 620.837 418.043" stroke="black" stroke-miterlimit="10"/>
<path d="M614.722 399.48C613.744 404.31 613.346 410.118 614.042 413.75C614.493 416.103 615.52 418.34 616.778 420.357" stroke="black" stroke-miterlimit="10"/>
<path d="M607.694 397.664C607.694 397.664 607.069 401.227 606.921 403.241C606.451 409.643 607.299 415.826 610.787 420.572" stroke="black" stroke-miterlimit="10"/>
<path d="M422.046 283.128C420.128 282.942 418.209 282.756 416.291 282.57C414.574 282.404 412.842 282.234 411.2 281.707C410.104 281.355 409.065 280.85 408.031 280.346C403.771 278.272 401.59 277.651 397.515 275.25C395.174 273.871 392.779 272.571 390.283 271.492C387.838 270.435 385.301 269.866 383.043 268.437C382.847 268.313 382.644 268.173 382.554 267.96C382.485 267.796 382.491 267.61 382.516 267.433C383.04 263.749 390.548 264.592 393.468 265.408C394.348 265.654 395.262 265.949 396.158 265.767C396.218 264.595 395.702 263.473 395.131 262.448C393.449 259.432 390.989 257.029 388.768 254.407C386.714 251.981 384.633 249.557 382.74 247.001C380.967 244.608 379.142 239.396 380.534 238.76C381.926 238.124 381.182 239.394 381.631 239.452C380.733 238.899 381.075 236.688 381.72 235.817C382.365 234.947 384.154 236.265 384.774 237.109C384.127 236.301 384.346 234.467 385.007 234.139C385.968 233.661 387.107 234.305 387.999 234.845C388.891 235.385 389.751 236.041 390.791 236.23C390.529 235.573 390.372 234.872 390.326 234.16C390.833 233.542 391.814 233.861 392.498 234.233C406.41 241.812 418.281 253.291 433.073 260.046" fill="#E27769"/>
<path d="M393.228 259.629C394.79 261.869 395.843 264.564 396.66 267.869" stroke="black" stroke-miterlimit="10"/>
<path d="M381.676 238.675C383.523 240.972 385.99 242.563 388.143 244.532C391.57 247.665 394.829 250.973 398.141 254.225" stroke="black" stroke-miterlimit="10"/>
<path d="M384.764 236.888C385.821 237.888 386.945 238.816 388.126 239.666C389.392 240.576 390.721 241.395 392.028 242.245C395.764 244.674 399.328 247.368 402.685 250.301" stroke="black" stroke-miterlimit="10"/>
<path d="M391.279 236.522C392.454 237.645 393.942 238.37 395.377 239.134C399.872 241.525 404.081 244.455 407.883 247.842" stroke="black" stroke-miterlimit="10"/>
<path d="M422.606 284.003C422.606 284.003 414.744 282.937 411.534 282.09" stroke="black" stroke-miterlimit="10"/>
<path d="M596.589 286.328C602.003 286.851 607.418 287.357 612.571 289.302C619.082 291.76 624.741 296.38 630.07 301.103C635.637 306.037 641.317 312.753 646.735 317.902L618.964 342.203L599.3 323.041" fill="#2C221D"/>
<path d="M629.266 350.379C629.266 350.379 633.374 345.12 637.538 342.203" stroke="black" stroke-miterlimit="10"/>
<path d="M610.883 334.328L639.842 310.879" stroke="#6D574E" stroke-miterlimit="10"/>
<path d="M503.595 319.695L507.8 278.825" stroke="#6D574E" stroke-miterlimit="10"/>
<path d="M530.015 311.978C530.015 311.978 531.935 320.701 532.461 324.442" stroke="#6D574E" stroke-miterlimit="10"/>
<path d="M598.318 322.968C604.336 327.614 618.965 342.203 618.965 342.203" stroke="#6D574E" stroke-miterlimit="10"/>
<path d="M567.424 257.333L580.365 262.578L579.605 271.206L586.129 283.815C586.129 283.815 582.945 295.706 568.659 298.667C556.597 301.167 556.87 293.383 556.87 293.383L551.125 276.802" fill="#E27769"/>
<path d="M540.086 263.976C541.997 257.507 543.031 253.536 545.475 248.841C547.544 244.866 551.159 239.106 555.309 237.244C560.652 234.845 566.763 237.788 572.148 239.743C580.989 242.955 583.023 253.41 581.996 261.727C581.207 268.117 577.48 271.269 572.937 276.011C567.001 282.208 552.392 287.494 544.843 283.631C539.196 280.74 538.062 270.827 540.086 263.976Z" fill="#E27769"/>
<path d="M632.528 303.075C636.007 301.932 637.717 297.839 637.523 294.931C637.211 290.248 635.023 287.833 634.664 284.94C634.43 283.056 634.99 281.149 634.83 279.258C634.567 276.135 632.301 273.416 629.502 272.007C626.703 270.598 623.447 270.344 620.326 270.623C617.933 270.837 615.528 271.347 613.149 271.008C611.162 270.725 609.301 269.861 607.569 268.845C604.507 267.049 601.713 264.711 599.741 261.759C596.389 256.739 595.674 250.425 593.088 244.97C591.785 242.222 589.976 239.723 587.811 237.59C582.551 232.408 577.543 230.489 570.085 230.241C564.977 230.071 557.87 230.753 553.961 235.517C553.961 235.517 546.406 235.711 542.802 239.516C538.524 244.033 538.831 250.571 542.568 255.782C544.499 252.613 546.143 249.261 548.97 246.825C548.644 247.339 548.8 248.06 549.218 248.502C549.636 248.944 550.257 249.144 550.864 249.193C552.48 249.324 554.008 248.519 555.429 247.738C554.949 249.019 554.745 250.404 554.836 251.769C554.855 252.057 554.895 252.364 555.085 252.581C555.301 252.829 555.656 252.896 555.983 252.924C558.21 253.111 560.501 252.04 561.787 250.212C561.178 251.869 560.646 253.948 561.873 255.217C562.74 256.114 564.207 256.18 565.362 255.71C566.517 255.24 567.434 254.34 568.319 253.461C567.893 253.884 568.453 256.271 568.557 256.822C568.785 258.029 569.155 259.201 569.566 260.356C570.828 263.907 572.383 267.367 574.404 270.554C576.49 273.844 579.471 276.339 581.603 279.545C582.954 281.577 584.096 283.802 585.912 285.432C588.144 287.435 591.221 288.942 594.154 289.539C597.109 290.141 600.165 289.868 603.154 289.77C614.202 289.41 622.578 294.942 632.528 303.075Z" fill="#893D33"/>
<path d="M606.753 231.529C606.117 229.958 605.186 228.518 603.993 227.419C599.686 223.454 590.297 223.711 587.087 229.098C585.323 232.059 586.181 235.868 587.519 239.044L590.157 244.832C593.835 246.831 598.489 246.916 602.238 245.054C605.37 243.499 607.58 240.629 607.736 237.072C607.817 235.258 607.474 233.309 606.753 231.529Z" fill="#893D33"/>
<path d="M568.425 265.107C569.321 262.434 573.61 261.46 575.73 263.063C580.828 266.92 575.679 276.598 570.035 275.916C568.438 275.723 566.458 274.452 566.458 272.576" fill="#E27769"/>
<path d="M574.714 267.779L568.382 270.707" stroke="black" stroke-miterlimit="10"/>
<path d="M571.995 262.582C570.567 262.929 569.245 263.737 568.256 264.865" stroke="black" stroke-miterlimit="10"/>
<path d="M576.364 272.571C574.937 274.539 572.699 276.394 570.183 276.042C568.437 275.798 566.763 274.476 566.622 272.542" stroke="black" stroke-miterlimit="10"/>
<path d="M554.065 285.287C554.065 285.287 560.009 285.004 566.028 280.939" stroke="black" stroke-miterlimit="10"/>
<path d="M547.823 260.719C546.886 262.357 545.908 264.042 544.395 265.171C544.033 265.441 543.64 265.68 543.346 266.022C542.924 266.512 542.744 267.201 542.872 267.835C543 268.469 543.433 269.034 544.012 269.323" stroke="black" stroke-miterlimit="10"/>
<path d="M545.153 273.146C546.103 273.935 547.525 274.245 548.65 273.642C550.071 272.88 550.1 271.065 550.148 269.651" stroke="black" stroke-miterlimit="10"/>
<path d="M554.755 257.207C555.794 256.989 556.882 256.942 557.915 257.186C558.949 257.43 559.926 257.979 560.586 258.811C561.424 259.867 561.685 261.256 561.919 262.583" stroke="black" stroke-miterlimit="10"/>
<path d="M543.186 253.258C544.174 252.549 545.56 252.503 546.654 253.033C547.748 253.564 548.546 254.616 548.89 255.782" stroke="black" stroke-miterlimit="10"/>
<path d="M556.5 263.184C556.093 264.032 555.269 264.482 554.657 264.189C554.046 263.896 553.88 262.971 554.286 262.123C554.693 261.275 555.517 260.825 556.129 261.118C556.74 261.411 556.906 262.336 556.5 263.184Z" fill="black"/>
<path d="M545.267 259.488C544.861 260.336 544.036 260.786 543.424 260.493C542.813 260.2 542.647 259.275 543.053 258.427C543.459 257.579 544.284 257.129 544.896 257.422C545.508 257.715 545.674 258.64 545.267 259.488Z" fill="black"/>
<path d="M661.775 375.464C667.869 369.269 672.187 361.346 674.092 352.868" stroke="black" stroke-miterlimit="10"/>
<path d="M675.732 372.013C677.575 368.378 678.751 364.406 679.185 360.354" stroke="black" stroke-miterlimit="10"/>
<path d="M556.448 177.778C556.448 177.778 546.039 182.552 539.051 185.72C535.098 187.512 528.474 192.414 526.211 196.144C523.333 200.889 522.581 206.757 522.909 211.602C523.127 214.808 524.593 218.439 526.741 221.934C528.156 224.236 529.665 226.643 530.983 226.33C532.3 226.018 531.826 222.791 531.826 222.787C531.83 222.982 533.387 226.043 533.746 226.287C534.227 226.614 534.796 226.897 535.293 226.637C535.967 226.283 536.425 225.897 536.751 225.209C537.026 224.627 537.048 224.023 537.105 223.374C537.157 222.785 537.108 221.364 537.078 220.765C537.369 221.411 537.648 223.426 538.2 223.32C538.752 223.213 539.653 222.752 540.148 222.148C541.109 220.975 541.618 219.507 542.11 218.072C542.115 218.419 542.121 218.776 542.252 219.098C542.382 219.42 542.666 219.704 543.013 219.73C543.45 219.762 545.231 218.462 545.49 218.11C546.612 216.587 547.03 214.549 547.841 212.84C548.518 211.414 549.18 210.404 550.156 209.164C551.046 208.033 552.405 206.634 553.702 205.953C556.345 204.566 557.968 204.188 560.672 202.91C562.951 201.833 565.183 200.502 566.758 198.489" fill="#D16159"/>
<path d="M541.875 218.672C542.076 216.395 542.354 214.125 542.709 211.867C542.946 210.362 543.221 208.846 543.822 207.446C544.807 205.152 546.595 203.316 548.346 201.536" stroke="black" stroke-miterlimit="10"/>
<path d="M537.32 221.266C536.435 217.471 536.53 213.526 536.63 209.63C536.658 208.553 536.687 207.467 536.944 206.421C537.389 204.616 538.483 203.05 539.555 201.531" stroke="black" stroke-miterlimit="10"/>
<path d="M531.935 223.543C530.717 219.767 529.491 215.95 529.154 211.996C529.09 211.239 529.058 210.478 529.085 209.718C529.186 206.882 530.109 204.112 531.506 201.641" stroke="black" stroke-miterlimit="10"/>
<path d="M565.304 121.344L583.62 155.898L542.744 183.89L569.645 205.078C569.645 205.078 615.512 190.147 628.005 182.74C637.814 176.925 642.023 161.822 623.127 137.188C604.23 112.554 591.185 97.945 587.31 93.837C578.971 84.996 569.049 81.324 559.802 85.979" fill="#3D81FC"/>
<path d="M565.304 121.344L583.62 155.898L542.745 183.889" stroke="black" stroke-miterlimit="10"/>
<path d="M566.36 195.552C566.36 196.306 565.748 196.918 564.994 196.918C564.24 196.918 563.628 196.307 563.628 195.552C563.628 194.798 564.24 194.186 564.994 194.186C565.749 194.186 566.36 194.798 566.36 195.552Z" stroke="black" stroke-miterlimit="10"/>
<path d="M573.429 192.663C574.183 192.663 574.795 192.051 574.795 191.297C574.795 190.543 574.183 189.931 573.429 189.931C572.674 189.931 572.063 190.543 572.063 191.297C572.063 192.051 572.674 192.663 573.429 192.663Z" stroke="black" stroke-miterlimit="10"/>
<path d="M557.174 195.255C557.324 195.373 574.795 186.567 574.795 186.567" stroke="black" stroke-miterlimit="10"/>
<path d="M558.13 173.354C558.303 173.235 589.539 198.317 589.539 198.317" stroke="black" stroke-miterlimit="10"/>
<path d="M582.622 156.243C586.457 154.745 590.312 153.131 594.41 152.515C598.79 151.856 603.244 152.083 607.649 152.311" stroke="black" stroke-miterlimit="10"/>
<path d="M569.645 205.077L622.587 185.835" stroke="black" stroke-miterlimit="10"/>
<path d="M578.904 77.351C568.324 67.411 557.518 57.522 545.01 50.154C521.853 36.513 489.532 38.624 473.557 48.549C461.295 56.167 454.832 65.655 446.956 77.404C437.098 92.111 426.76 107.932 410.515 114.973C402.597 118.405 393.89 119.436 385.421 121.094C376.952 122.752 368.292 125.236 361.804 130.927C355.316 136.617 351.619 146.278 355.124 154.165C357.877 160.36 364.657 164.257 371.434 164.449C378.21 164.642 384.817 161.496 389.695 156.789C402.144 144.778 407.938 113.18 384.944 104.084" stroke="#ED725A" stroke-width="1.5" stroke-miterlimit="10"/>
<path d="M76.531 291.565C77.994 298.504 81.693 305.89 86.693 311.588C93.202 319.006 106.477 323.807 112.185 313.021C114.84 308.005 116.164 299.888 109.837 296.298C109.388 296.043 108.884 295.814 108.34 295.808C107.117 295.795 106.306 296.858 105.945 297.829C104.254 302.379 106.976 307.296 110.65 310.951C112.355 312.647 114.341 314.228 116.8 315.072C119.258 315.916 122.269 315.907 124.414 314.599C127.75 312.564 128.628 308.082 128.384 304.873" stroke="#8F96DB" stroke-width="1.5" stroke-miterlimit="10"/>
<path d="M62.5459 108.86C68.4329 101.437 76.3599 94.732 85.2679 91.296C90.0879 89.437 96.3849 88.77 101.453 89.776C103.983 90.278 106.922 91.076 108.468 93.351C110.099 95.751 108.195 100.199 111.42 101.559C112.248 101.908 113.19 101.824 114.079 101.69C116.874 101.27 119.594 100.428 122.39 100.017C125.187 99.607 128.164 99.662 130.682 100.947C133.2 102.232 135.114 104.985 134.738 107.787C134.591 108.884 134.114 109.97 134.317 111.058C134.657 112.878 136.719 113.83 138.563 114.004C142.381 114.363 146.011 114.239 149.257 116.683C151.639 118.476 153.007 121.683 151.788 124.257" stroke="#FFDD99" stroke-width="1.5" stroke-miterlimit="10"/>
<path d="M311.972 101.8C313.456 98.498 315.119 95.187 317.709 92.658C320.299 90.129 323.996 88.479 327.549 89.17C329.386 89.528 331.122 90.484 332.993 90.445C335.567 90.391 337.77 88.411 338.928 86.111C340.086 83.811 340.423 81.202 340.893 78.671C341.643 74.629 342.859 70.498 345.624 67.456C348.389 64.414 353.061 62.783 356.756 64.587" stroke="#FFDD99" stroke-width="1.5" stroke-miterlimit="10"/>
<path d="M137.73 438.566C138.758 432.434 134.62 426.629 128.487 425.602C122.355 424.574 116.551 428.712 115.523 434.844C114.495 440.976 118.633 446.781 124.765 447.809C130.898 448.837 136.702 444.699 137.73 438.566Z" stroke="#909DF4" stroke-width="1.5" stroke-miterlimit="10"/>
<path d="M318.254 62.087C323.297 62.087 327.385 57.9989 327.385 52.956C327.385 47.9131 323.297 43.825 318.254 43.825C313.211 43.825 309.123 47.9131 309.123 52.956C309.123 57.9989 313.211 62.087 318.254 62.087Z" stroke="#8F96DB" stroke-width="1.5" stroke-miterlimit="10"/>
<path d="M643.167 403.247L649.22 443.115L673.008 425.592L643.167 403.247Z" fill="#FFDD99"/>
<path d="M44.2989 359.502L60.3919 341.256L32.8999 342.242L44.2989 359.502Z" stroke="#8F96DB" stroke-width="1.5" stroke-miterlimit="10"/>
<path d="M70.015 404.687C73.6131 404.687 76.53 401.77 76.53 398.172C76.53 394.574 73.6131 391.657 70.015 391.657C66.4169 391.657 63.5 394.574 63.5 398.172C63.5 401.77 66.4169 404.687 70.015 404.687Z" fill="#FFDD99"/>
<path d="M83.9379 126.246L68.2749 160.422L116.135 153.481L83.9379 126.246Z" fill="#ED725A"/>
<path d="M53.2239 211.398C53.2239 213.582 51.4539 215.352 49.2699 215.352C47.0859 215.352 45.3159 213.582 45.3159 211.398C45.3159 209.214 47.0859 207.444 49.2699 207.444C51.4539 207.444 53.2239 209.214 53.2239 211.398Z" fill="#909DF4"/>
<path d="M589.876 55.517C589.876 57.701 588.106 59.471 585.922 59.471C583.738 59.471 581.968 57.701 581.968 55.517C581.968 53.333 583.738 51.563 585.922 51.563C588.106 51.563 589.876 53.333 589.876 55.517Z" fill="#ED725A"/>
<path d="M662.591 400.768C665.54 399.558 669.352 399.792 672.021 401.584C674.377 403.165 675.609 406.139 678.449 407.066C682.615 408.426 686.29 404.548 690.308 404.282C693.783 404.052 696.585 406.407 697.943 409.44C699.106 412.036 699.328 414.94 699.535 417.777" stroke="#8F96DB" stroke-width="1.5" stroke-miterlimit="10"/>
<path d="M631.991 129.609C633.436 126.016 637.243 123.514 641.115 123.613C643.085 123.663 645.083 124.317 646.991 123.823C652.927 122.286 652.433 111.949 658.298 110.159C662.363 108.919 666.782 112.856 670.761 111.363C674.184 110.078 675.023 105.768 676.107 102.277C679.037 92.839 687.711 85.446 697.494 84.047" stroke="#8F96DB" stroke-width="1.5" stroke-miterlimit="10"/>
<path d="M586.748 337.119C590.212 337.119 593.019 339.927 593.019 343.39V454.432C593.019 457.896 590.211 460.703 586.748 460.703H406.887C403.423 460.703 400.616 457.895 400.616 454.432V343.391C400.616 339.927 403.424 337.12 406.887 337.12H586.748M586.748 335.619H406.887C402.602 335.619 399.116 339.105 399.116 343.39V454.432C399.116 458.717 402.602 462.203 406.887 462.203H586.748C591.033 462.203 594.519 458.717 594.519 454.432V343.391C594.52 339.106 591.034 335.619 586.748 335.619Z" fill="white"/>
<path d="M586.748 460.704H406.887C403.423 460.704 400.616 457.896 400.616 454.433V353.842H593.02V454.433C593.02 457.896 590.212 460.704 586.748 460.704Z" fill="#C5B3DD"/>
<path d="M415.343 345.971C415.343 347.953 413.736 349.56 411.754 349.56C409.772 349.56 408.165 347.953 408.165 345.971C408.165 343.989 409.772 342.382 411.754 342.382C413.736 342.382 415.343 343.989 415.343 345.971Z" stroke="white" stroke-width="1.5" stroke-miterlimit="10"/>
<path d="M429.255 345.971C429.255 347.953 427.648 349.56 425.666 349.56C423.684 349.56 422.077 347.953 422.077 345.971C422.077 343.989 423.684 342.382 425.666 342.382C427.648 342.382 429.255 343.989 429.255 345.971Z" stroke="white" stroke-width="1.5" stroke-miterlimit="10"/>
<path d="M400.616 353.842H593.02" stroke="white" stroke-width="1.5" stroke-miterlimit="10"/>
<path d="M566.027 436.685C556.455 426.085 545.334 420.842 539.679 422.12C531.36 424.001 532.873 445.232 533.105 453.757C529.088 449.111 524.109 445.3 518.574 442.637C514.405 440.631 509.659 439.261 505.165 440.356C500.67 441.451 496.711 445.677 497.238 450.273C486.768 434.7 472.316 421.827 455.639 413.223C445.098 407.784 416.44 396.476 411.534 408.211C406.153 421.082 436.68 460.703 436.68 460.703H584.638C584.638 460.703 574.672 446.258 566.027 436.685Z" fill="#A29DCE"/>
<path d="M381.144 323.468C375.712 317.777 370.494 306.78 369.028 300.915C367.739 295.756 366.588 290.475 364.151 285.706C363.494 284.42 360.672 281.452 361.695 279.908C363.759 276.798 368.765 280.895 370.07 282.747C370.537 283.41 372.261 286.203 373.124 286.366C373.987 286.529 374.351 283.185 374.456 281.751C374.86 276.239 374.886 270.23 374.419 264.653C373.938 258.909 374.756 253.869 376.558 253.603C378.385 253.334 378.29 254.415 378.622 254.775C378.914 252.956 380.57 250.799 381.64 251.406C382.29 251.775 382.526 252.59 382.617 253.332C382.708 254.074 383.15 255.486 383.15 255.486C383.15 255.486 384.186 251.614 386.078 253.804C387.034 254.911 388.49 260.794 389.423 262.662C389.33 261.427 389.017 260.739 389.415 259.296C389.631 258.513 390.073 257.869 390.921 258.281C391.421 258.524 391.566 259.019 391.741 259.505C392.69 262.141 395.025 266.382 395.874 269.052C396.758 271.836 397.642 274.621 398.527 277.405C400.189 282.639 401.814 288.147 403.006 293.607C404.109 298.658 408.158 311.105 408.158 311.105" fill="#A04B4B"/>
<path d="M378.572 255.087C379.054 258.082 380.15 261.901 380.751 265.296C381.612 270.164 382.001 274.671 382.737 278.958" stroke="black" stroke-miterlimit="10"/>
<path d="M383.41 255.579C383.986 258.144 384.985 261.697 385.655 264.616C386.773 269.494 387.594 273.866 388.556 278.151" stroke="black" stroke-miterlimit="10"/>
<path d="M389.411 262.579C390.832 267.24 392.888 272.587 394.517 278.486" stroke="black" stroke-miterlimit="10"/>
<path d="M373.669 286.071C373.304 288.533 373.121 291.149 371.48 293.3" stroke="black" stroke-miterlimit="10"/>
<path d="M564.985 460.704C563.061 455.563 561.003 450.161 558.11 445.448C555.217 440.735 551.436 436.422 546.611 433.468C544.447 432.143 542.104 431.107 539.769 430.076C533.49 427.303 527.212 424.53 520.933 421.756L490.115 409.734C488.208 407.964 486.302 406.194 484.398 404.422C480.718 400.995 477.048 397.558 473.406 394.088C473.266 393.955 473.127 393.822 472.987 393.689C445.091 367.063 424.345 337.314 406.222 302.596L373.669 316.874C373.669 316.874 387.749 364.851 401.126 385.218C418.797 412.122 439.236 436.594 448.472 444.343C450.12 449.878 452.008 455.341 454.147 460.705L564.985 460.704Z" fill="#FCDDD2"/>
<path d="M378.912 333.376L413.829 316.587" stroke="black" stroke-miterlimit="10"/>
<path d="M380.654 313.81L392.427 339.357" stroke="black" stroke-miterlimit="10"/>
<path d="M391.717 319.179C391.717 320.452 390.685 321.485 389.411 321.485C388.138 321.485 387.105 320.453 387.105 319.179C387.105 317.906 388.137 316.873 389.411 316.873C390.684 316.874 391.717 317.906 391.717 319.179Z" stroke="#D8A798" stroke-miterlimit="10"/>
<path d="M517.548 460.021C519.153 457.93 520.758 455.839 522.364 453.748C524.096 451.492 525.833 449.231 527.788 447.165C533.494 441.136 541.195 436.846 549.448 435.951" stroke="#D8A798" stroke-miterlimit="10"/>
<path d="M447.506 441.343C447.506 433.001 450.293 424.72 455.091 417.92C461.136 409.355 470.031 403.205 480.782 402.898" stroke="#D8A798" stroke-miterlimit="10"/>
<path d="M448.33 444.016C446.791 439.432 445.906 434.291 443.47 430.075" stroke="black" stroke-miterlimit="10"/>
<path d="M480.306 406.318L478.275 431.925C478.275 431.925 486.882 440.692 498.717 434.983C510.552 429.274 519.185 418.414 519.185 418.414L515.315 402.541" fill="#A04B4B"/>
<path d="M527.347 374.412C526.151 370.67 523.908 367.251 520.892 364.782C513.634 358.84 505.65 359.002 497.855 363.582C491.08 367.562 481.781 373.844 476.614 379.854C471.281 386.058 467.712 393.773 473.158 401.027C481.922 412.7 506.499 408.743 518.224 399.17C522.999 395.272 527.505 388.943 528.21 382.71C528.523 379.931 528.203 377.089 527.347 374.412Z" fill="#A04B4B"/>
<path d="M496.347 366.841C492.441 368.829 488.165 369.357 483.886 369.864C481.83 370.107 479.108 370.797 479.48 373.497C479.72 375.238 481.235 376.738 482.497 377.802" fill="#A04B4B"/>
<path d="M479.31 393.425C479.31 393.425 480.021 391.826 480.375 391.025C481.057 389.483 478.839 388.443 477.782 387.911C477.015 387.525 476.609 387.182 475.844 387.685C475.648 387.814 474.533 388.892 474.293 388.696C474.28 388.686 472.229 386.298 472.229 386.298C470.635 388.788 469.61 393.515 469.837 396.319C470.065 399.123 471.15 401.912 473.155 403.886C473.96 404.678 475.221 405.821 476.189 406.403C484.258 411.256 494.319 410.887 503.095 407.475C505.805 406.422 508.445 405.015 510.419 402.88C483.552 402.49 479.31 393.425 479.31 393.425Z" fill="#1E1611"/>
<path d="M511.352 391.63C511.232 391.604 511.112 391.581 510.994 391.561C509.201 391.265 507.426 391.528 505.658 390.947C504.234 390.479 502.909 389.594 502.127 388.316C501.203 386.805 502.472 385.925 503.702 385.246C505.522 384.241 507.295 383.113 508.776 381.654C511.21 379.256 512.493 375.817 511.437 372.468C510.292 368.836 506.715 366.703 503.94 364.401C501.266 362.183 497.849 358.729 498.976 354.882C500.107 351.023 503.837 349.616 507.519 350.161C509.496 350.454 511.488 351.007 513.462 350.7C514.465 350.544 515.421 350.17 516.412 349.947C519.454 349.265 522.961 350.239 524.773 352.776C526.078 354.604 526.584 357.195 528.597 358.192C529.565 358.672 530.695 358.662 531.747 358.91C533.886 359.413 535.692 361.039 536.563 363.056C537.433 365.073 537.398 367.431 536.616 369.486C535.212 373.178 533.109 375.026 534.835 379.099C538.842 388.555 540.526 400.166 530.954 406.965C528.436 408.754 525.282 409.678 523.187 411.947C521.88 413.361 520.813 415.378 518.898 415.582C517.611 415.719 516.398 414.924 515.516 413.977C514.725 413.127 514.104 412.137 513.491 411.152C512.642 409.787 511.778 408.359 511.604 406.762C511.354 404.482 512.538 402.322 513.613 400.296C514.626 398.386 516.665 394.426 514.253 392.847C513.422 392.302 512.356 391.85 511.352 391.63Z" fill="#1E1611"/>
<path d="M505.441 370.971C504.839 369.14 503.737 367.321 502.041 368.148C501.617 368.354 501.369 368.821 501.303 369.288C501.236 369.754 501.322 370.228 501.407 370.691C501.807 372.861 502.23 375.09 503.405 376.958C503.642 377.335 503.923 377.707 504.322 377.907C506.982 379.242 505.785 372.017 505.441 370.971Z" fill="#1E1611"/>
<path d="M488.635 383.353L481.109 381.647C481.109 381.647 480.371 388.101 483.57 388.741C486.768 389.381 488.635 383.353 488.635 383.353Z" fill="white"/>
<path d="M480.655 375.779C481.28 376.59 482.129 377.226 483.082 377.599" stroke="black" stroke-miterlimit="10"/>
<path d="M488.969 369.157C491.794 368.745 494.541 367.801 497.021 366.388" stroke="black" stroke-miterlimit="10"/>
<path d="M509.6 391.892C512.375 389.802 517.414 391.805 518.448 394.914C520.935 402.39 508.949 408.629 503.691 403.998C502.203 402.688 501.079 400.014 502.388 398.107" fill="#A04B4B"/>
<path d="M514.124 398.996L505.647 397.551" stroke="black" stroke-miterlimit="10"/>
<path d="M514.989 391.819C513.296 391.175 511.39 391.073 509.597 391.529" stroke="black" stroke-miterlimit="10"/>
<path d="M502.579 398.187C501.633 399.805 501.914 401.795 502.944 403.3C504.819 406.038 509.353 406.05 512.089 404.879" stroke="black" stroke-miterlimit="10"/>
<path d="M497.559 377.169C496.486 377.945 495.166 377.952 494.611 377.185C494.055 376.417 494.474 375.165 495.547 374.389C496.62 373.613 497.94 373.606 498.495 374.373C499.05 375.141 498.631 376.393 497.559 377.169Z" fill="black"/>
<path d="M523.362 417.578C496.347 420.781 479.808 433.151 479.808 433.151L484.506 454.615C508.669 431.641 532.176 426.458 532.412 426.211L523.362 417.578Z" fill="#FCDDD2"/>
<path d="M479.026 419.438L468.852 425.969C468.852 425.969 467.102 444.224 470.442 453.932L479.809 433.15L479.026 419.438Z" fill="#FCDDD2"/>
<path d="M479.808 433.151L484.506 454.615C508.669 431.641 532.176 426.458 532.412 426.211" stroke="black" stroke-miterlimit="10"/>
<path d="M479.026 419.438L468.852 425.969C468.852 425.969 467.102 444.224 470.442 453.932L479.809 433.15" stroke="black" stroke-miterlimit="10"/>
<path d="M378.768 361.399C381.498 371.105 385.543 380.439 390.759 389.067" stroke="black" stroke-miterlimit="10"/>
<path d="M379.659 378.07C381.374 384.311 383.43 390.457 385.815 396.473" stroke="black" stroke-miterlimit="10"/>
<path d="M546.455 391.153C546.601 395.6 544.872 399.974 542.225 403.551C539.578 407.127 536.056 409.972 532.337 412.415" stroke="black" stroke-miterlimit="10"/>
<path d="M543.429 412.258C547.153 410.145 550.33 407.078 552.574 403.432" stroke="black" stroke-miterlimit="10"/>
</g>
<defs>
<clipPath id="clip0_34_1391">
<rect width="750" height="500" fill="white"/>
</clipPath>
</defs>
</svg>
