<svg width="445" height="379" viewBox="0 0 445 379" fill="none" xmlns="http://www.w3.org/2000/svg">
<g opacity="0.4">
<path d="M421.945 251.743H377.261C374.121 251.743 371.44 249.23 371.498 246.091C371.558 242.859 368.956 240.22 365.738 240.22H180.783C175.227 240.22 170.723 235.716 170.723 230.16V224.887C170.723 221.088 173.452 217.689 177.223 217.231C181.743 216.682 185.584 220.195 185.584 224.605V225.738C185.584 227.372 186.909 228.697 188.543 228.697H391.087C396.788 228.697 401.889 224.695 402.784 219.064C403.928 211.864 398.396 205.65 391.412 205.65H366.945C363.805 205.65 361.124 203.138 361.183 199.998C361.243 196.766 358.641 194.127 355.423 194.127H243.93C240.857 194.127 238.107 191.919 237.736 188.868C237.292 185.212 240.134 182.104 243.702 182.104H421.621C427.322 182.104 432.423 178.102 433.318 172.472C434.462 165.272 428.929 159.058 421.945 159.058H402.835C399.559 159.058 396.761 156.436 396.822 153.161C396.885 149.788 394.17 147.035 390.812 147.035H285.638C282.565 147.035 279.815 144.827 279.444 141.776C279 138.12 281.842 135.012 285.41 135.012H356.526C362.227 135.012 367.328 131.01 368.223 125.38C369.367 118.179 363.835 111.966 356.851 111.966H314.761C308.461 111.966 303.096 106.926 303.194 100.627C303.294 94.1786 298.098 88.9196 291.672 88.9196H97.6921C91.9911 88.9196 86.8901 92.9216 85.9951 98.5516C84.8511 105.753 90.3831 111.966 97.3671 111.966H144.783C147.856 111.966 150.606 114.174 150.977 117.225C151.421 120.881 148.579 123.989 145.011 123.989H73.8951C68.1941 123.989 63.0931 127.991 62.1981 133.621C61.0541 140.822 66.5861 147.035 73.5701 147.035H82.4241C88.7241 147.035 94.0891 152.075 93.9911 158.374C93.8901 164.822 99.0871 170.081 105.513 170.081H151.01C158.207 170.081 164.041 164.247 164.041 157.05V154.993C164.041 151.424 166.871 147.756 170.389 147.152C175.298 146.309 179.55 150.11 179.472 154.88C179.335 163.242 186.715 170.08 195.078 170.08H209.878C212.951 170.08 215.701 172.288 216.072 175.339C216.516 178.995 213.674 182.103 210.106 182.103H32.1881C26.4871 182.103 21.3861 186.105 20.4911 191.735C19.3471 198.935 24.8801 205.149 31.8631 205.149H137.592C140.665 205.149 143.415 207.357 143.786 210.408C144.23 214.064 141.388 217.173 137.82 217.173H61.9871C55.6871 217.173 50.3221 222.213 50.4201 228.512C50.5211 234.96 45.3241 240.219 38.8991 240.219H20.5611C14.8601 240.219 9.75909 244.221 8.86409 249.851C7.72009 257.052 13.2531 263.265 20.2371 263.265H210.138C213.084 263.265 215.719 265.381 216.074 268.305C216.5 271.809 213.776 274.788 210.356 274.788H43.9041C38.2031 274.788 33.1021 278.79 32.2081 284.42C31.0641 291.621 36.5971 297.834 43.5811 297.834H74.3211C80.6851 297.834 85.8441 302.993 85.8441 309.357C85.8441 315.721 91.0031 320.88 97.3671 320.88H188.982C192.02 320.88 194.484 323.343 194.484 326.382C194.484 329.42 192.021 331.884 188.982 331.884H70.5951C64.2311 331.884 59.0721 337.043 59.0721 343.407C59.0721 349.771 64.2311 354.93 70.5951 354.93H139.463C145.827 354.93 150.986 360.089 150.986 366.453C150.986 372.817 156.145 377.976 162.509 377.976H356.813C363.177 377.976 368.336 372.817 368.336 366.453C368.336 360.089 363.177 354.93 356.813 354.93H281.933C278.889 354.93 276.422 352.462 276.422 349.419C276.422 346.375 278.889 343.907 281.933 343.907H400.309C406.673 343.907 411.832 338.748 411.832 332.384C411.832 326.02 406.673 320.861 400.309 320.861H314.004C308.033 320.861 303.193 316.021 303.193 310.05V300.233C303.193 298.89 304.294 297.859 305.636 297.834C306.94 297.81 307.989 296.745 307.989 295.436V286.924C307.989 281.084 312.089 275.859 317.856 274.943C325.232 273.771 331.596 279.438 331.596 286.592V287.152C331.596 293.052 336.379 297.835 342.279 297.835H395.796C402.838 297.835 408.547 292.126 408.547 285.084C408.547 279.398 413.156 274.789 418.842 274.789H421.621C427.322 274.789 432.423 270.787 433.318 265.157C434.462 257.956 428.929 251.743 421.945 251.743ZM257.025 274.789C261.232 274.789 264.643 278.2 264.643 282.407V290.217C264.643 294.424 261.232 297.835 257.025 297.835C252.818 297.835 249.407 294.424 249.407 290.217V282.407C249.407 278.2 252.818 274.789 257.025 274.789Z" fill="#D4EEFF"/>
<path d="M429.146 102.809H360.626C357.189 102.809 354.402 100.023 354.402 96.5846C354.402 93.1476 357.188 90.3616 360.626 90.3616H429.146C432.583 90.3616 435.37 93.1476 435.37 96.5846C435.37 100.022 432.583 102.809 429.146 102.809Z" fill="#D4EEFF"/>
<path d="M358.155 315.92H350.435C346.998 315.92 344.211 313.134 344.211 309.696C344.211 306.259 346.997 303.472 350.435 303.472H358.155C361.592 303.472 364.379 306.258 364.379 309.696C364.379 313.133 361.592 315.92 358.155 315.92Z" fill="#D4EEFF"/>
<path d="M427.245 315.92H375.587C372.15 315.92 369.363 313.134 369.363 309.696C369.363 306.259 372.149 303.472 375.587 303.472H427.245C430.682 303.472 433.469 306.258 433.469 309.696C433.469 313.133 430.682 315.92 427.245 315.92Z" fill="#D4EEFF"/>
<path d="M48.318 102.809H22.9959C19.5589 102.809 16.7729 100.023 16.7729 96.5846C16.7729 93.1476 19.5589 90.3616 22.9959 90.3616H48.318C51.755 90.3616 54.542 93.1476 54.542 96.5846C54.542 100.022 51.755 102.809 48.318 102.809Z" fill="#D4EEFF"/>
<path d="M6.224 164.542C2.787 164.542 0 161.756 0 158.318C0 154.881 2.786 152.095 6.224 152.095C9.661 152.095 12.447 154.881 12.447 158.318C12.447 161.756 9.661 164.542 6.224 164.542Z" fill="#D4EEFF"/>
<path d="M51.0409 164.542H24.8719C21.4349 164.542 18.6489 161.756 18.6489 158.318C18.6489 154.881 21.4349 152.095 24.8719 152.095H51.0409C54.4779 152.095 57.2649 154.881 57.2649 158.318C57.2639 161.756 54.4779 164.542 51.0409 164.542Z" fill="#D4EEFF"/>
<path d="M13.2479 322.143C9.81092 322.143 7.02393 319.357 7.02393 315.92C7.02393 312.483 9.80992 309.696 13.2479 309.696C16.6849 309.696 19.4709 312.482 19.4709 315.92C19.4719 319.357 16.6849 322.143 13.2479 322.143Z" fill="#D4EEFF"/>
<path d="M58.0661 322.143H31.8971C28.4601 322.143 25.6741 319.357 25.6741 315.92C25.6741 312.483 28.4601 309.696 31.8971 309.696H58.0661C61.5031 309.696 64.2891 312.482 64.2891 315.92C64.2891 319.357 61.5031 322.143 58.0661 322.143Z" fill="#D4EEFF"/>
<path d="M417.021 200.496H391.699C388.262 200.496 385.475 197.71 385.475 194.273C385.475 190.836 388.261 188.049 391.699 188.049H417.021C420.458 188.049 423.245 190.835 423.245 194.273C423.245 197.71 420.458 200.496 417.021 200.496Z" fill="#D4EEFF"/>
<path d="M210.528 118.443H167.555C164.635 118.443 162.268 116.076 162.268 113.156C162.268 110.236 164.635 107.869 167.555 107.869H210.528C213.448 107.869 215.815 110.236 215.815 113.156C215.815 116.076 213.448 118.443 210.528 118.443Z" stroke="white" stroke-miterlimit="10"/>
<path d="M369.793 169.03H247.91C244.99 169.03 242.623 166.663 242.623 163.743C242.623 160.823 244.99 158.456 247.91 158.456H369.793C372.713 158.456 375.08 160.823 375.08 163.743C375.08 166.663 372.713 169.03 369.793 169.03Z" stroke="white" stroke-miterlimit="10"/>
<path d="M59.002 257.389H25.257C22.337 257.389 19.97 255.022 19.97 252.102C19.97 249.182 22.337 246.815 25.257 246.815H59.002C61.922 246.815 64.289 249.182 64.289 252.102C64.289 255.022 61.922 257.389 59.002 257.389Z" stroke="white" stroke-miterlimit="10"/>
<path d="M438.803 344.512H437.803V349.471H438.803V344.512Z" fill="#D4EEFF"/>
<path d="M438.803 352.498H437.803V357.457H438.803V352.498Z" fill="#D4EEFF"/>
<path d="M444.776 350.485H439.818V351.485H444.776V350.485Z" fill="#D4EEFF"/>
<path d="M436.79 350.485H431.831V351.485H436.79V350.485Z" fill="#D4EEFF"/>
<path d="M432.331 135.842H431.331V140.8H432.331V135.842Z" fill="#D4EEFF"/>
<path d="M432.331 143.829H431.331V148.787H432.331V143.829Z" fill="#D4EEFF"/>
<path d="M438.303 141.814H433.345V142.814H438.303V141.814Z" fill="#D4EEFF"/>
<path d="M430.317 141.814H425.359V142.814H430.317V141.814Z" fill="#D4EEFF"/>
<path d="M47.1099 329.602H46.1099V334.561H47.1099V329.602Z" fill="#D4EEFF"/>
<path d="M47.1099 337.589H46.1099V342.547H47.1099V337.589Z" fill="#D4EEFF"/>
<path d="M53.083 335.574H48.125V336.574H53.083V335.574Z" fill="#D4EEFF"/>
<path d="M45.0959 335.574H40.1379V336.574H45.0959V335.574Z" fill="#D4EEFF"/>
<path d="M116.632 226.363V231.321" stroke="#FBFDFB" stroke-miterlimit="10"/>
<path d="M116.632 234.35V239.308" stroke="#FBFDFB" stroke-miterlimit="10"/>
<path d="M123.105 232.835H118.146" stroke="#FBFDFB" stroke-miterlimit="10"/>
<path d="M115.118 232.835H110.16" stroke="#FBFDFB" stroke-miterlimit="10"/>
<path d="M292.22 205.202V210.16" stroke="#FBFDFB" stroke-miterlimit="10"/>
<path d="M292.22 213.188V218.147" stroke="#FBFDFB" stroke-miterlimit="10"/>
<path d="M298.692 211.674H293.734" stroke="#FBFDFB" stroke-miterlimit="10"/>
<path d="M290.706 211.674H285.747" stroke="#FBFDFB" stroke-miterlimit="10"/>
<path d="M224.731 129.369V134.328" stroke="#FBFDFB" stroke-miterlimit="10"/>
<path d="M224.731 137.356V142.315" stroke="#FBFDFB" stroke-miterlimit="10"/>
<path d="M231.203 135.842H226.245" stroke="#FBFDFB" stroke-miterlimit="10"/>
<path d="M223.217 135.842H218.258" stroke="#FBFDFB" stroke-miterlimit="10"/>
<path d="M36.157 58.4606H35.157V63.4186H36.157V58.4606Z" fill="#D4EEFF"/>
<path d="M36.157 66.4466H35.157V71.4046H36.157V66.4466Z" fill="#D4EEFF"/>
<path d="M42.1292 64.4326H37.1702V65.4326H42.1292V64.4326Z" fill="#D4EEFF"/>
<path d="M34.1431 64.4326H29.1841V65.4326H34.1431V64.4326Z" fill="#D4EEFF"/>
<path d="M413.376 47.0686H412.376V52.0266H413.376V47.0686Z" fill="#D4EEFF"/>
<path d="M413.376 55.0546H412.376V60.0126H413.376V55.0546Z" fill="#D4EEFF"/>
<path d="M419.349 53.0416H414.391V54.0416H419.349V53.0416Z" fill="#D4EEFF"/>
<path d="M411.363 53.0416H406.404V54.0416H411.363V53.0416Z" fill="#D4EEFF"/>
</g>
<path d="M377.868 109.193C375.477 97.7816 365.36 89.2116 353.238 89.2116C352.446 89.2116 351.664 89.2526 350.89 89.3246C349.253 82.2876 342.948 77.0426 335.413 77.0426C330.167 77.0426 325.516 79.5856 322.621 83.5036C317.836 80.3806 312.123 78.5586 305.983 78.5586C289.142 78.5586 275.49 92.2106 275.49 109.052C275.49 109.498 275.505 109.94 275.524 110.381C269.932 112.832 266.023 118.412 266.023 124.909C266.023 133.667 273.123 140.766 281.88 140.766H375.791C384.549 140.766 391.648 133.666 391.648 124.909C391.65 116.857 385.644 110.21 377.868 109.193Z" fill="url(#paint0_linear_24_800)"/>
<path d="M301.639 125.998C293.856 125.998 287.546 119.688 287.546 111.905C287.546 106.131 291.02 101.171 295.99 98.9936C295.973 98.6016 295.96 98.2086 295.96 97.8126C295.96 90.3226 298.999 83.5426 303.91 78.6376C288.037 79.7046 275.49 92.9096 275.49 109.053C275.49 109.499 275.505 109.941 275.524 110.382C269.932 112.833 266.023 118.413 266.023 124.91C266.023 133.668 273.123 140.767 281.88 140.767H375.791C384.549 140.767 391.648 133.667 391.648 124.91C391.648 124.735 391.63 124.564 391.624 124.39C389.672 125.412 387.455 125.998 385.098 125.998H301.639Z" fill="url(#paint1_linear_24_800)"/>
<path d="M347.673 97.6806C347.909 97.8166 347.24 99.4766 345.234 101.474C344.231 102.46 342.875 103.513 341.151 104.327C339.436 105.143 337.339 105.683 335.126 105.675C332.918 105.682 330.811 105.179 329.096 104.352C327.37 103.537 326.013 102.482 325.011 101.492C323.008 99.4856 322.36 97.8126 322.597 97.6806C322.847 97.5166 323.898 98.8166 325.974 100.381C327.011 101.154 328.311 101.974 329.86 102.596C331.402 103.231 333.213 103.601 335.124 103.596C338.982 103.629 342.222 101.908 344.274 100.36C346.359 98.7996 347.426 97.5156 347.673 97.6806Z" fill="url(#paint2_linear_24_800)"/>
<path d="M370.011 115.551C370.145 115.628 369.766 116.567 368.631 117.697C368.063 118.255 367.296 118.851 366.321 119.311C365.351 119.773 364.164 120.078 362.912 120.074C361.663 120.078 360.47 119.794 359.5 119.325C358.523 118.864 357.755 118.267 357.189 117.706C356.055 116.571 355.689 115.624 355.823 115.55C355.965 115.457 356.559 116.193 357.734 117.078C358.321 117.515 359.056 117.979 359.933 118.331C360.806 118.69 361.83 118.899 362.912 118.897C365.095 118.916 366.928 117.942 368.089 117.066C369.267 116.185 369.871 115.458 370.011 115.551Z" fill="url(#paint3_linear_24_800)"/>
<path d="M419.412 248.171C417.418 240.769 414.479 233.76 410.739 227.266L422.453 208.215L409.892 195.654L397.331 183.093L378.279 194.807C371.785 191.067 364.776 188.128 357.374 186.134L352.189 164.395H334.426H316.663L311.478 186.134C304.076 188.128 297.067 191.067 290.573 194.807L271.521 183.093L258.96 195.654L246.399 208.215L258.113 227.266C254.373 233.76 251.434 240.769 249.44 248.171L227.701 253.356V271.12V288.884L249.44 294.069C251.434 301.471 254.373 308.48 258.113 314.974L246.399 334.026L258.96 346.587L271.521 359.148L290.573 347.434C297.067 351.174 304.076 354.113 311.478 356.107L316.663 377.846H334.426H352.189L357.374 356.107C364.776 354.113 371.785 351.174 378.279 347.434L397.331 359.148L409.892 346.587L422.453 334.026L410.739 314.974C414.479 308.48 417.418 301.471 419.412 294.069L441.151 288.884V271.12V253.356L419.412 248.171ZM334.427 338.882C297.003 338.882 266.665 308.544 266.665 271.12C266.665 233.696 297.003 203.358 334.427 203.358C371.851 203.358 402.189 233.696 402.189 271.12C402.189 308.544 371.851 338.882 334.427 338.882Z" fill="#0248C1"/>
<path d="M328.425 164.395H316.663L311.478 186.134C311.215 186.205 310.956 186.286 310.694 186.359C314.152 185.388 317.685 184.618 321.285 184.076L328.425 164.395Z" fill="url(#paint4_linear_24_800)"/>
<path d="M405.649 191.41L397.332 183.093L378.28 194.807C378.268 194.8 378.257 194.794 378.245 194.787C381.164 196.467 383.979 198.298 386.668 200.284L405.649 191.41Z" fill="url(#paint5_linear_24_800)"/>
<path d="M227.702 277.121V288.883L249.441 294.068C249.512 294.33 249.592 294.588 249.665 294.849C248.694 291.392 247.924 287.86 247.383 284.261L227.702 277.121Z" fill="url(#paint6_linear_24_800)"/>
<path d="M254.717 199.898L246.4 208.215L258.114 227.266C258.107 227.279 258.1 227.292 258.093 227.304C259.773 224.383 261.605 221.567 263.592 218.877L254.717 199.898Z" fill="url(#paint7_linear_24_800)"/>
<path d="M441.151 265.118V253.356L419.412 248.171C419.342 247.909 419.261 247.652 419.188 247.391C420.158 250.847 420.928 254.379 421.469 257.978L441.151 265.118Z" fill="url(#paint8_linear_24_800)"/>
<path d="M334.427 203.357C297.003 203.357 266.665 233.695 266.665 271.119C266.665 308.543 297.003 338.881 334.427 338.881C371.851 338.881 402.189 308.543 402.189 271.119C402.189 233.696 371.851 203.357 334.427 203.357ZM334.427 328.564C302.702 328.564 276.983 302.845 276.983 271.12C276.983 239.395 302.701 213.676 334.427 213.676C366.152 213.676 391.871 239.395 391.871 271.12C391.871 302.845 366.152 328.564 334.427 328.564Z" fill="#80DBFF"/>
<path d="M413.872 259.207C413.454 259.292 412.436 254.186 409.421 246.449C406.406 238.755 401.183 228.387 392.707 219.023C384.34 209.569 374.68 203.138 367.345 199.324C359.989 195.475 355.031 193.886 355.161 193.483C355.236 193.185 360.431 194.14 368.172 197.638C375.874 201.092 386.047 207.489 394.689 217.255C403.445 226.93 408.574 237.801 411.189 245.816C413.812 253.894 414.174 259.167 413.872 259.207Z" fill="url(#paint9_linear_24_800)"/>
<path d="M81.0518 84.3955L39.7363 146.656L40.5695 147.209L81.885 84.9484L81.0518 84.3955Z" fill="#0248C1"/>
<path d="M223.242 176.197H222.242V218.106H223.242V176.197Z" fill="#0248C1"/>
<path d="M41.2361 157.975C39.9181 157.975 38.8491 156.906 38.8491 155.588V147.408C38.8491 146.09 39.9181 145.021 41.2361 145.021C42.5551 145.021 43.6231 146.09 43.6231 147.408V155.588C43.6231 156.907 42.5551 157.975 41.2361 157.975Z" fill="url(#paint10_linear_24_800)"/>
<path d="M48.73 182.674H33.742C32.624 182.674 31.718 181.768 31.718 180.65V150.012C31.718 148.894 32.624 147.988 33.742 147.988H48.73C49.848 147.988 50.754 148.894 50.754 150.012V180.649C50.754 181.768 49.848 182.674 48.73 182.674Z" fill="url(#paint11_linear_24_800)"/>
<path d="M90.3271 132.733H72.6441C71.5261 132.733 70.6201 131.827 70.6201 130.709V126.791C70.6201 125.673 71.5261 124.767 72.6441 124.767H90.3271C91.4451 124.767 92.3511 125.673 92.3511 126.791V130.709C92.3511 131.827 91.4451 132.733 90.3271 132.733Z" fill="url(#paint12_linear_24_800)"/>
<path d="M231.616 180.18H213.868C212.768 180.18 211.876 179.288 211.876 178.188C211.876 177.088 212.768 176.196 213.868 176.196H231.616C232.716 176.196 233.608 177.088 233.608 178.188C233.608 179.289 232.716 180.18 231.616 180.18Z" fill="url(#paint13_linear_24_800)"/>
<path d="M82.2592 84.0786V124.858C82.2592 125.285 81.9132 125.632 81.4852 125.632C81.0582 125.632 80.7112 125.286 80.7112 124.858V84.0786C80.7112 83.6516 81.0572 83.3056 81.4852 83.3056C81.9132 83.3046 82.2592 83.6506 82.2592 84.0786Z" fill="url(#paint14_linear_24_800)"/>
<path d="M222.742 154.965C222.667 154.965 222.592 154.948 222.52 154.913L81.2641 85.1196C81.0161 84.9976 80.9151 84.6976 81.0371 84.4496C81.1591 84.2026 81.4591 84.1016 81.7071 84.2226L222.963 154.016C223.21 154.138 223.312 154.438 223.19 154.686C223.103 154.863 222.925 154.965 222.742 154.965Z" fill="#0248C1"/>
<path d="M91.6407 349.342L69.9094 371.073L71.3236 372.487L93.0549 350.756L91.6407 349.342Z" fill="#F8D613"/>
<path d="M93.3511 372.783H69.6201V349.052H93.3511V372.783ZM71.6201 370.783H91.3521V351.052H71.6201V370.783Z" fill="#F8D613"/>
<path d="M71.3236 349.341L69.9094 350.755L91.6407 372.486L93.0549 371.072L71.3236 349.341Z" fill="#F8D613"/>
<path d="M91.6485 327.597L69.9165 349.329L71.3307 350.743L93.0627 329.011L91.6485 327.597Z" fill="#F8D613"/>
<path d="M93.3511 351.051H69.6201V327.319H93.3511V351.051ZM71.6201 349.051H91.3521V329.319H71.6201V349.051Z" fill="#F8D613"/>
<path d="M71.3283 327.601L69.9141 329.015L91.6461 350.747L93.0603 349.333L71.3283 327.601Z" fill="#F8D613"/>
<path d="M91.6473 305.866L69.916 327.598L71.3302 329.012L93.0615 307.281L91.6473 305.866Z" fill="#F8D613"/>
<path d="M93.3511 329.319H69.6201V305.588H93.3511V329.319ZM71.6201 327.319H91.3521V307.588H71.6201V327.319Z" fill="#F8D613"/>
<path d="M71.3248 305.877L69.9106 307.291L91.6419 329.023L93.0561 327.609L71.3248 305.877Z" fill="#F8D613"/>
<path d="M91.6415 284.147L69.9102 305.878L71.3244 307.293L93.0557 285.561L91.6415 284.147Z" fill="#F8D613"/>
<path d="M93.3511 307.587H69.6201V283.856H93.3511V307.587ZM71.6201 305.587H91.3521V285.856H71.6201V305.587Z" fill="#F8D613"/>
<path d="M71.3244 284.146L69.9102 285.561L91.6415 307.292L93.0557 305.878L71.3244 284.146Z" fill="#F8D613"/>
<path d="M91.6475 262.404L69.9155 284.136L71.3297 285.55L93.0617 263.818L91.6475 262.404Z" fill="#F8D613"/>
<path d="M93.3511 285.856H69.6201V262.123H93.3511V285.856ZM71.6201 283.856H91.3521V264.123H71.6201V283.856Z" fill="#F8D613"/>
<path d="M71.3278 262.408L69.9136 263.822L91.6456 285.554L93.0598 284.14L71.3278 262.408Z" fill="#F8D613"/>
<path d="M91.6463 240.673L69.915 262.405L71.3292 263.819L93.0605 242.087L91.6463 240.673Z" fill="#F8D613"/>
<path d="M93.3511 264.123H69.6201V240.392H93.3511V264.123ZM71.6201 262.123H91.3521V242.392H71.6201V262.123Z" fill="#F8D613"/>
<path d="M71.3248 240.682L69.9106 242.096L91.6419 263.827L93.0561 262.413L71.3248 240.682Z" fill="#F8D613"/>
<path d="M91.6412 218.952L69.9099 240.683L71.3241 242.097L93.0554 220.366L91.6412 218.952Z" fill="#F8D613"/>
<path d="M93.3511 242.392H69.6201V218.66H93.3511V242.392ZM71.6201 240.392H91.3521V220.66H71.6201V240.392Z" fill="#F8D613"/>
<path d="M71.3248 218.952L69.9106 220.366L91.6419 242.097L93.0561 240.683L71.3248 218.952Z" fill="#F8D613"/>
<path d="M93.3511 220.661H69.6201V196.929H93.3511V220.661ZM71.6201 218.661H91.3521V198.929H71.6201V218.661Z" fill="#F8D613"/>
<path d="M91.6456 197.212L69.9143 218.943L71.3285 220.357L93.0598 198.626L91.6456 197.212Z" fill="#F8D613"/>
<path d="M71.3263 197.216L69.9121 198.631L91.6434 220.362L93.0576 218.948L71.3263 197.216Z" fill="#F8D613"/>
<path d="M91.6419 175.489L69.9106 197.22L71.3248 198.634L93.0561 176.903L91.6419 175.489Z" fill="#F8D613"/>
<path d="M93.3511 198.929H69.6201V175.197H93.3511V198.929ZM71.6201 196.929H91.3521V177.197H71.6201V196.929Z" fill="#F8D613"/>
<path d="M71.3261 175.485L69.9119 176.9L91.6432 198.631L93.0574 197.217L71.3261 175.485Z" fill="#F8D613"/>
<path d="M93.3511 177.197H69.6201V153.465H93.3511V177.197ZM71.6201 175.197H91.3521V155.465H71.6201V175.197Z" fill="#F8D613"/>
<path d="M91.6446 153.749L69.9133 175.48L71.3275 176.895L93.0588 155.163L91.6446 153.749Z" fill="#F8D613"/>
<path d="M71.3256 153.757L69.9114 155.171L91.6427 176.903L93.0569 175.488L71.3256 153.757Z" fill="#F8D613"/>
<path d="M93.3511 155.465H69.6201V131.733H93.3511V155.465ZM71.6201 153.465H91.3521V133.733H71.6201V153.465Z" fill="#F8D613"/>
<path d="M91.6439 132.018L69.9126 153.749L71.3268 155.163L93.0581 133.432L91.6439 132.018Z" fill="#F8D613"/>
<path d="M71.3263 132.022L69.9121 133.437L91.6434 155.168L93.0576 153.754L71.3263 132.022Z" fill="#F8D613"/>
<path d="M69.91 153.757L48.1787 175.488L49.5929 176.903L71.3242 155.171L69.91 153.757Z" fill="#F8D613"/>
<path d="M71.6199 177.197H47.8879V153.465H71.6199V177.197ZM49.8879 175.197H69.6199V155.465H49.8879V175.197Z" fill="#F8D613"/>
<path d="M49.5917 153.759L48.1775 155.174L69.9088 176.905L71.323 175.491L49.5917 153.759Z" fill="#F8D613"/>
<path d="M113.374 153.757L91.6423 175.488L93.0565 176.903L114.788 155.171L113.374 153.757Z" fill="#F8D613"/>
<path d="M115.083 177.197H91.3511V153.465H115.083V177.197ZM93.3511 175.197H113.083V155.465H93.3511V175.197Z" fill="#F8D613"/>
<path d="M93.0551 153.76L91.6409 155.175L113.372 176.906L114.786 175.492L93.0551 153.76Z" fill="#F8D613"/>
<path d="M135.106 153.749L113.375 175.48L114.789 176.894L136.521 155.163L135.106 153.749Z" fill="#F8D613"/>
<path d="M136.815 177.197H113.083V153.465H136.815V177.197ZM115.083 175.197H134.815V155.465H115.083V175.197Z" fill="#F8D613"/>
<path d="M114.787 153.76L113.373 155.174L135.104 176.906L136.519 175.491L114.787 153.76Z" fill="#F8D613"/>
<path d="M156.837 153.757L135.105 175.489L136.519 176.903L158.251 155.171L156.837 153.757Z" fill="#F8D613"/>
<path d="M158.546 177.197H134.815V153.465H158.546V177.197ZM136.815 175.197H156.546V155.465H136.815V175.197Z" fill="#F8D613"/>
<path d="M136.52 153.758L135.106 155.172L156.837 176.903L158.251 175.489L136.52 153.758Z" fill="#F8D613"/>
<path d="M178.568 153.758L156.837 175.489L158.251 176.903L179.982 155.172L178.568 153.758Z" fill="#F8D613"/>
<path d="M180.278 177.197H156.546V153.465H180.278V177.197ZM158.546 175.197H178.278V155.465H158.546V175.197Z" fill="#F8D613"/>
<path d="M158.251 153.761L156.837 155.175L178.568 176.906L179.982 175.492L158.251 153.761Z" fill="#F8D613"/>
<path d="M200.3 153.747L178.569 175.478L179.983 176.892L201.714 155.161L200.3 153.747Z" fill="#F8D613"/>
<path d="M202.01 177.197H178.278V153.465H202.009L202.01 177.197ZM180.278 175.197H200.009V155.465H180.278V175.197Z" fill="#F8D613"/>
<path d="M179.983 153.758L178.569 155.172L200.3 176.904L201.714 175.49L179.983 153.758Z" fill="#F8D613"/>
<path d="M222.031 153.758L200.3 175.49L201.714 176.904L223.445 155.172L222.031 153.758Z" fill="#F8D613"/>
<path d="M223.742 177.197H200.01V153.465H223.742V177.197ZM202.01 175.197H221.742V155.465H202.01V175.197Z" fill="#F8D613"/>
<path d="M201.714 153.762L200.3 155.176L222.031 176.907L223.446 175.493L201.714 153.762Z" fill="#F8D613"/>
<path d="M246.521 177.197H221.742V153.465H228.015L246.521 177.197ZM223.742 175.197H242.426L227.039 155.465H223.742V175.197Z" fill="#F8D613"/>
<path d="M48.1791 153.757L26.4478 175.488L27.862 176.902L49.5933 155.171L48.1791 153.757Z" fill="#F8D613"/>
<path d="M49.888 177.197H26.156V153.465H49.888V177.197ZM28.156 175.197H47.888V155.465H28.156V175.197Z" fill="#F8D613"/>
<path d="M27.862 153.757L26.4478 155.171L48.1791 176.903L49.5933 175.489L27.862 153.757Z" fill="#F8D613"/>
<path d="M201.01 378.797H8.61108V372.783C8.61108 372.231 9.05908 371.783 9.61108 371.783H200.01C200.562 371.783 201.01 372.231 201.01 372.783V378.797Z" fill="url(#paint15_linear_24_800)"/>
<path d="M106.221 179.2H56.75V134.959H92.351L106.221 154.465V179.2Z" fill="#0248C1"/>
<path d="M90.3541 155.37H78.5391V157.079H90.3541V155.37Z" fill="#0248C1"/>
<path d="M98.7251 150.401H79.5031C78.9701 150.401 78.5391 149.969 78.5391 149.437V138.496C78.5391 137.963 78.9711 137.532 79.5031 137.532H91.0751C91.3901 137.532 91.6851 137.686 91.8651 137.944L99.5151 148.885C99.9621 149.523 99.5051 150.401 98.7251 150.401Z" fill="#FBFDFB"/>
<path d="M76.2519 137.532H59.0259V161.801H76.2519V137.532Z" fill="#0248C1"/>
<path d="M75.3399 165.887H59.9379C59.4339 165.887 59.0259 165.478 59.0259 164.975C59.0259 164.471 59.4339 164.063 59.9379 164.063H75.3399C75.8439 164.063 76.2519 164.471 76.2519 164.975C76.2519 165.478 75.8429 165.887 75.3399 165.887Z" fill="#0248C1"/>
<path d="M75.3399 168.764H59.9379C59.4339 168.764 59.0259 168.356 59.0259 167.852C59.0259 167.348 59.4339 166.94 59.9379 166.94H75.3399C75.8439 166.94 76.2519 167.348 76.2519 167.852C76.2519 168.355 75.8429 168.764 75.3399 168.764Z" fill="#0248C1"/>
<path d="M76.2519 169.816H59.0259V171.64H76.2519V169.816Z" fill="#0248C1"/>
<path d="M76.2519 172.694H59.0259V174.519H76.2519V172.694Z" fill="#0248C1"/>
<path d="M76.2519 175.571H59.0259V177.395H76.2519V175.571Z" fill="#0248C1"/>
<path d="M110.949 111.259V150.143C110.949 151.977 112.436 153.463 114.269 153.463H201.713C203.547 153.463 205.033 151.976 205.033 150.143V111.259C205.033 109.425 203.547 107.939 201.713 107.939H114.269C112.436 107.939 110.949 109.426 110.949 111.259Z" fill="url(#paint16_linear_24_800)"/>
<path d="M118.758 111.941V149.462C118.758 150.392 119.512 151.145 120.441 151.145H198.508C199.438 151.145 200.191 150.391 200.191 149.462V111.941C200.191 111.011 199.437 110.258 198.508 110.258H120.441C119.512 110.258 118.758 111.011 118.758 111.941Z" fill="#80DBFF"/>
<path d="M193.8 107.939H176.406C176.406 107.62 176.665 107.361 176.984 107.361H193.221C193.541 107.361 193.8 107.62 193.8 107.939Z" fill="black"/>
<path d="M112.693 130.204V131.199C112.693 132.469 113.722 133.498 114.992 133.498C116.262 133.498 117.291 132.469 117.291 131.199V130.204C117.291 128.934 116.262 127.905 114.992 127.905C113.722 127.905 112.693 128.934 112.693 130.204Z" fill="black"/>
<path d="M202.169 120.732V140.67C202.169 140.852 202.318 141 202.499 141C202.681 141 202.829 140.851 202.829 140.67V120.732C202.829 120.55 202.68 120.402 202.499 120.402C202.317 120.402 202.169 120.551 202.169 120.732Z" fill="black"/>
<path d="M191.735 130.829C191.329 130.423 187.633 133.461 183.48 137.614C179.327 141.767 176.289 145.463 176.695 145.869C177.101 146.275 180.797 143.237 184.95 139.084C189.104 134.93 192.141 131.234 191.735 130.829Z" fill="url(#paint17_linear_24_800)"/>
<path d="M193.353 116.443C192.947 116.037 185.713 122.613 177.195 131.131C168.677 139.649 162.101 146.883 162.507 147.289C162.913 147.695 170.147 141.119 178.665 132.601C187.183 124.083 193.759 116.849 193.353 116.443Z" fill="url(#paint18_linear_24_800)"/>
<path d="M150.184 127.612C149.778 127.206 146.082 130.244 141.929 134.397C137.776 138.55 134.738 142.246 135.144 142.652C135.55 143.058 139.246 140.02 143.399 135.867C147.552 131.714 150.59 128.018 150.184 127.612Z" fill="url(#paint19_linear_24_800)"/>
<path d="M154.012 112.153C153.606 111.747 146.372 118.323 137.854 126.841C129.336 135.359 122.76 142.593 123.166 142.999C123.572 143.405 130.806 136.829 139.324 128.311C147.842 119.793 154.418 112.559 154.012 112.153Z" fill="url(#paint20_linear_24_800)"/>
<path d="M326.837 217.331H107.467C106.362 217.331 105.467 218.226 105.467 219.331V363.095C105.467 364.2 106.362 365.095 107.467 365.095H326.836C327.941 365.095 328.836 364.2 328.836 363.095V219.331C328.837 218.227 327.941 217.331 326.837 217.331Z" fill="#76AEFF"/>
<path d="M338.73 365.095H95.573C94.468 365.095 93.573 365.99 93.573 367.095V376.796C93.573 377.901 94.468 378.796 95.573 378.796H338.73C339.835 378.796 340.73 377.901 340.73 376.796V367.095C340.73 365.991 339.835 365.095 338.73 365.095Z" fill="#0248C1"/>
<path d="M318.627 226.027H115.677C114.573 226.027 113.677 226.922 113.677 228.027V354.399C113.677 355.503 114.573 356.399 115.677 356.399H318.628C319.733 356.399 320.628 355.503 320.628 354.399V228.027C320.627 226.923 319.732 226.027 318.627 226.027Z" fill="#FBFDFB"/>
<path d="M130.029 361.97H110.96C110.408 361.97 109.96 362.418 109.96 362.97V365.095H131.029V362.97C131.029 362.418 130.581 361.97 130.029 361.97Z" fill="url(#paint21_linear_24_800)"/>
<path d="M154.193 361.97H135.124C134.572 361.97 134.124 362.418 134.124 362.97V365.095H155.193V362.97C155.193 362.418 154.745 361.97 154.193 361.97Z" fill="url(#paint22_linear_24_800)"/>
<path d="M159.289 361.97C158.737 361.97 158.289 362.418 158.289 362.97V365.096H230.782H251.851V362.97C251.851 362.418 251.403 361.97 250.851 361.97H159.289Z" fill="url(#paint23_linear_24_800)"/>
<path d="M275.015 361.97H255.946C255.394 361.97 254.946 362.418 254.946 362.97V365.095H276.015V362.97C276.015 362.418 275.567 361.97 275.015 361.97Z" fill="url(#paint24_linear_24_800)"/>
<path d="M299.179 361.97H280.11C279.558 361.97 279.11 362.418 279.11 362.97V365.095H300.179V362.97C300.179 362.418 299.732 361.97 299.179 361.97Z" fill="url(#paint25_linear_24_800)"/>
<path d="M323.344 361.97H304.275C303.723 361.97 303.275 362.418 303.275 362.97V365.095H324.344V362.97C324.344 362.418 323.896 361.97 323.344 361.97Z" fill="url(#paint26_linear_24_800)"/>
<path d="M241.259 365.095H193.044L193.832 367.758C193.958 368.183 194.348 368.474 194.791 368.474H239.512C239.955 368.474 240.345 368.182 240.471 367.758L241.259 365.095Z" fill="url(#paint27_linear_24_800)"/>
<path d="M116.317 376.123C118.624 376.123 120.494 374.253 120.494 371.946C120.494 369.639 118.624 367.769 116.317 367.769C114.01 367.769 112.14 369.639 112.14 371.946C112.14 374.253 114.01 376.123 116.317 376.123Z" fill="url(#paint28_linear_24_800)"/>
<path d="M128.85 376.123C131.157 376.123 133.027 374.253 133.027 371.946C133.027 369.639 131.157 367.769 128.85 367.769C126.543 367.769 124.673 369.639 124.673 371.946C124.673 374.253 126.543 376.123 128.85 376.123Z" fill="url(#paint29_linear_24_800)"/>
<path d="M145.56 371.946C145.56 374.253 143.69 376.123 141.383 376.123C139.076 376.123 137.206 374.253 137.206 371.946C137.206 369.639 139.076 367.769 141.383 367.769C143.69 367.769 145.56 369.639 145.56 371.946Z" fill="url(#paint30_linear_24_800)"/>
<path d="M319.627 375.417H250.018C249.466 375.417 249.018 374.969 249.018 374.417V369.475C249.018 368.923 249.466 368.475 250.018 368.475H319.627C320.179 368.475 320.627 368.923 320.627 369.475V374.417C320.627 374.97 320.179 375.417 319.627 375.417Z" fill="url(#paint31_linear_24_800)"/>
<path d="M317.13 228.558H215.202V353.868H317.13V228.558Z" fill="#D4EEFF"/>
<path d="M203.73 234.241H124.131V245.624H203.73V234.241Z" fill="#80DBFF"/>
<path d="M152.173 253.447H134.889V257.122H152.173V253.447Z" fill="#0248C1"/>
<path d="M152.173 260.18H134.889V263.855H152.173V260.18Z" fill="#0248C1"/>
<path d="M152.173 266.912H134.889V270.587H152.173V266.912Z" fill="#0248C1"/>
<path d="M152.173 273.645H134.889V277.32H152.173V273.645Z" fill="#D4EEFF"/>
<path d="M186.658 253.447H156.121V257.122H186.658V253.447Z" fill="#0248C1"/>
<path d="M186.658 260.18H156.121V263.855H186.658V260.18Z" fill="#0248C1"/>
<path d="M186.658 266.912H156.121V270.587H186.658V266.912Z" fill="#0248C1"/>
<path d="M186.658 273.645H156.121V277.32H186.658V273.645Z" fill="#D4EEFF"/>
<path d="M203.73 253.447H199.762V257.122H203.73V253.447Z" fill="#0248C1"/>
<path d="M203.73 260.18H199.762V263.855H203.73V260.18Z" fill="#0248C1"/>
<path d="M203.73 266.912H199.762V270.587H203.73V266.912Z" fill="#0248C1"/>
<path d="M203.73 273.645H199.762V277.32H203.73V273.645Z" fill="#D4EEFF"/>
<path d="M203.73 280.377H134.889V284.052H203.73V280.377Z" fill="#D4EEFF"/>
<path d="M203.73 287.11H134.889V290.785H203.73V287.11Z" fill="#0248C1"/>
<path d="M203.73 293.842H134.889V297.517H203.73V293.842Z" fill="#0248C1"/>
<path d="M203.73 300.575H134.889V304.25H203.73V300.575Z" fill="#0248C1"/>
<path d="M203.73 307.307H134.889V310.982H203.73V307.307Z" fill="#0248C1"/>
<path d="M165.266 314.04H134.889V317.715H165.266V314.04Z" fill="#F8D613"/>
<path d="M165.266 320.772H134.889V324.447H165.266V320.772Z" fill="#F8D613"/>
<path d="M165.266 327.505H134.889V331.18H165.266V327.505Z" fill="#D4EEFF"/>
<path d="M203.731 314.04H183.752V317.715H203.731V314.04Z" fill="#F8D613"/>
<path d="M203.731 320.772H183.752V324.447H203.731V320.772Z" fill="#F8D613"/>
<path d="M203.731 327.505H183.752V331.18H203.731V327.505Z" fill="#D4EEFF"/>
<path d="M128.805 253.447H124.131V257.122H128.805V253.447Z" fill="#0248C1"/>
<path d="M128.805 260.18H124.131V263.855H128.805V260.18Z" fill="#0248C1"/>
<path d="M128.805 266.912H124.131V270.587H128.805V266.912Z" fill="#0248C1"/>
<path d="M128.805 273.645H124.131V277.32H128.805V273.645Z" fill="#0248C1"/>
<path d="M128.805 280.377H124.131V284.052H128.805V280.377Z" fill="#0248C1"/>
<path d="M128.805 287.11H124.131V290.785H128.805V287.11Z" fill="#0248C1"/>
<path d="M128.805 293.842H124.131V297.517H128.805V293.842Z" fill="#0248C1"/>
<path d="M128.805 300.575H124.131V304.25H128.805V300.575Z" fill="#0248C1"/>
<path d="M128.805 307.307H124.131V310.982H128.805V307.307Z" fill="#0248C1"/>
<path d="M128.805 314.04H124.131V317.715H128.805V314.04Z" fill="#0248C1"/>
<path d="M128.805 320.772H124.131V324.447H128.805V320.772Z" fill="#0248C1"/>
<path d="M128.805 327.505H124.131V331.18H128.805V327.505Z" fill="#0248C1"/>
<path d="M164.614 334.237H134.889V337.912H164.614V334.237Z" fill="#D4EEFF"/>
<path d="M265.481 236.445C265.481 236.445 247.384 254.542 225.059 254.542C225.059 314.902 265.481 341.449 265.481 341.449C265.481 341.449 305.903 314.903 305.903 254.542C283.578 254.542 265.481 236.445 265.481 236.445Z" fill="#0248C1"/>
<path d="M265.481 245.624C265.481 245.624 250.548 260.557 232.127 260.557C232.127 310.364 265.481 332.269 265.481 332.269C265.481 332.269 298.835 310.364 298.835 260.557C280.414 260.558 265.481 245.624 265.481 245.624Z" fill="url(#paint32_linear_24_800)"/>
<path d="M265.481 305.102C277.165 305.102 286.636 295.63 286.636 283.947C286.636 272.263 277.165 262.792 265.481 262.792C253.797 262.792 244.326 272.263 244.326 283.947C244.326 295.63 253.797 305.102 265.481 305.102Z" fill="#80DBFF"/>
<path d="M260.278 295.996L250.322 286.04L252.813 283.548L260.278 291.014L278.149 273.144L280.64 275.635L260.278 295.996Z" fill="#FBFDFB"/>
<path d="M208.505 229.801C209.317 230.613 190.616 250.63 166.736 274.51C142.856 298.39 122.839 317.091 122.027 316.279C121.215 315.467 139.916 295.45 163.796 271.57C187.677 247.69 207.693 228.989 208.505 229.801Z" fill="url(#paint33_linear_24_800)"/>
<path d="M179.372 242.712C180.184 243.524 170.895 254.129 158.625 266.399C146.355 278.669 135.75 287.958 134.938 287.146C134.126 286.334 143.415 275.729 155.685 263.459C167.955 251.189 178.56 241.9 179.372 242.712Z" fill="url(#paint34_linear_24_800)"/>
<path d="M310.561 241.902C311.373 242.714 287.131 268.272 256.416 298.987C225.701 329.702 200.143 353.944 199.331 353.132C198.519 352.32 222.761 326.762 253.476 296.047C284.191 265.332 309.749 241.09 310.561 241.902Z" fill="url(#paint35_linear_24_800)"/>
<path d="M275.411 260.83C276.223 261.642 264.087 275.094 248.305 290.876C232.523 306.658 219.071 318.794 218.259 317.982C217.447 317.17 229.583 303.718 245.365 287.936C261.147 272.154 274.599 260.019 275.411 260.83Z" fill="url(#paint36_linear_24_800)"/>
<path d="M248.022 233.441C248.834 234.253 240.911 243.492 230.326 254.077C219.741 264.662 210.502 272.585 209.69 271.773C208.878 270.961 216.801 261.722 227.386 251.137C237.971 240.552 247.21 232.63 248.022 233.441Z" fill="url(#paint37_linear_24_800)"/>
<path d="M301.856 322.283C302.668 323.095 297.541 329.538 290.405 336.674C283.269 343.81 276.826 348.937 276.014 348.125C275.202 347.313 280.329 340.87 287.465 333.734C294.601 326.598 301.045 321.472 301.856 322.283Z" fill="url(#paint38_linear_24_800)"/>
<path d="M377.958 296.239V215.342C377.958 215.342 378.034 208.388 380.846 199.877C380.846 199.877 385.355 197.091 383.633 189.998C381.91 182.905 375.577 179.713 375.577 179.713C375.577 179.713 374.716 179.561 374.082 180.194L377.353 187.764L373.848 193.78L370.241 193.275C370.014 193.256 369.792 193.226 369.576 193.182L366.743 192.785L362.266 183.866C362.049 183.88 361.808 183.924 361.581 184.031C361.581 184.031 357.439 198.356 365.039 201.751C365.039 201.751 368.637 210.364 368.637 214.518C368.637 218.672 368.637 297.91 368.637 297.91C368.637 297.91 368.155 304.75 366.369 308.511C364.583 312.273 363.139 317.63 368.839 321.088C374.539 324.546 381.568 320.1 381.606 314.666C381.644 309.232 379.25 308.092 378.566 303.381C377.882 298.67 377.958 296.239 377.958 296.239ZM379.503 313.743C379.503 313.743 377.933 314.858 378.667 316.96C378.667 316.96 376.742 317.467 376.438 319.341C376.438 319.341 374.31 318.632 373.145 320.101C373.145 320.101 371.828 318.682 370.004 319.29C370.004 319.29 369.751 317.111 367.724 316.959C367.724 316.959 368.281 314.983 366.913 313.717C366.913 313.717 368.509 312.324 367.673 310.525C367.673 310.525 369.826 310.348 369.927 308.347C369.927 308.347 372.258 309.132 373.195 307.384C373.195 307.384 374.234 309.107 376.387 308.347C376.387 308.347 376.514 310.196 378.667 310.551C378.667 310.551 378.009 312.451 379.503 313.743Z" fill="#F8D613"/>
<path d="M370.093 221.713C370.093 220.034 371.525 218.673 373.291 218.673C375.057 218.673 376.489 220.034 376.489 221.713V280.293C376.489 281.972 375.057 283.333 373.291 283.333C371.525 283.333 370.093 281.972 370.093 280.293V221.713Z" fill="#F8D613"/>
<path d="M353.341 327.795V246.898C353.341 246.898 353.417 239.944 356.229 231.433C356.229 231.433 360.738 228.647 359.015 221.554C357.292 214.461 350.959 211.269 350.959 211.269C350.959 211.269 350.098 211.117 349.464 211.75L352.735 219.32L349.23 225.336L345.623 224.831C345.396 224.812 345.174 224.782 344.958 224.738L342.125 224.341L337.648 215.422C337.431 215.436 337.191 215.48 336.963 215.587C336.963 215.587 332.821 229.912 340.421 233.306C340.421 233.306 344.019 241.919 344.019 246.073C344.019 250.227 344.019 329.465 344.019 329.465C344.019 329.465 343.537 336.305 341.751 340.066C339.965 343.828 338.521 349.185 344.221 352.643C349.921 356.101 356.95 351.655 356.988 346.221C357.026 340.787 354.632 339.647 353.948 334.936C353.264 330.225 353.341 327.795 353.341 327.795ZM354.887 345.299C354.887 345.299 353.317 346.414 354.051 348.516C354.051 348.516 352.126 349.023 351.822 350.897C351.822 350.897 349.694 350.188 348.529 351.657C348.529 351.657 347.212 350.239 345.388 350.847C345.388 350.847 345.135 348.668 343.108 348.516C343.108 348.516 343.665 346.54 342.297 345.274C342.297 345.274 343.893 343.881 343.057 342.082C343.057 342.082 345.21 341.905 345.311 339.903C345.311 339.903 347.642 340.688 348.579 338.94C348.579 338.94 349.618 340.663 351.771 339.903C351.771 339.903 351.898 341.752 354.051 342.107C354.051 342.107 353.392 344.007 354.887 345.299Z" fill="#F8D613"/>
<path d="M345.476 253.269C345.476 251.59 346.908 250.229 348.674 250.229C350.44 250.229 351.872 251.59 351.872 253.269V311.849C351.872 313.528 350.44 314.889 348.674 314.889C346.908 314.889 345.476 313.528 345.476 311.849V253.269Z" fill="#F8D613"/>
<path d="M357.769 244.962C356.392 245.447 355.514 246.83 355.681 248.28C355.683 248.297 355.685 248.315 355.687 248.333C355.719 248.587 355.792 248.829 355.889 249.067C355.956 249.232 356.044 249.445 356.15 249.692C356.964 251.574 357.182 253.654 356.849 255.676C356.639 256.951 356.417 258.579 356.245 260.525C356.145 261.654 356.1 262.795 356.1 263.929V305.12C356.1 306.166 356.283 307.215 356.726 308.163C357.404 309.611 358.803 311.22 361.673 311.22C364.543 311.22 365.942 309.611 366.62 308.163C367.064 307.215 367.246 306.167 367.246 305.12V263.929C367.246 262.795 367.201 261.654 367.101 260.525C366.928 258.579 366.707 256.951 366.497 255.676C366.164 253.653 366.382 251.573 367.196 249.692C367.303 249.445 367.391 249.232 367.457 249.067C367.553 248.829 367.627 248.588 367.659 248.333C367.661 248.315 367.663 248.298 367.665 248.28C367.833 246.83 366.954 245.447 365.577 244.962C365.001 244.759 364.329 244.564 363.598 244.429H359.747C359.017 244.564 358.345 244.759 357.769 244.962Z" fill="#0248C1"/>
<path d="M359.747 244.428H363.598V189.221L364.763 184.307L363.598 179.697H362.078H361.673H361.267H359.747L358.582 184.307L359.747 189.221V244.428Z" fill="url(#paint39_linear_24_800)"/>
<path d="M359.378 258.04C359.976 258.04 360.461 258.525 360.461 259.123V305.064C360.461 305.662 359.976 306.147 359.378 306.147C358.78 306.147 358.295 305.662 358.295 305.064V259.123C358.295 258.524 358.78 258.04 359.378 258.04Z" fill="#299B72"/>
<path d="M363.711 258.04C364.309 258.04 364.794 258.525 364.794 259.123V305.064C364.794 305.662 364.309 306.147 363.711 306.147C363.113 306.147 362.628 305.662 362.628 305.064V259.123C362.628 258.524 363.113 258.04 363.711 258.04Z" fill="#299B72"/>
<path d="M380.849 329.528H341.434C339.777 329.528 338.434 328.185 338.434 326.528V255.472C338.434 254.92 338.882 254.472 339.434 254.472H382.849C383.401 254.472 383.849 254.92 383.849 255.472V326.527C383.849 328.184 382.506 329.528 380.849 329.528Z" fill="url(#paint40_linear_24_800)"/>
<path d="M361.141 311.583C372.056 311.583 380.904 302.734 380.904 291.82C380.904 280.905 372.056 272.057 361.141 272.057C350.226 272.057 341.378 280.905 341.378 291.82C341.378 302.734 350.226 311.583 361.141 311.583Z" fill="#0248C1"/>
<path d="M371.05 289.144C370.817 288.281 370.475 287.464 370.039 286.707L371.405 284.486L369.94 283.021L368.475 281.556L366.254 282.922C365.497 282.486 364.68 282.143 363.817 281.911L363.212 279.376H361.141H359.07L358.465 281.911C357.602 282.144 356.785 282.486 356.027 282.922L353.806 281.556L352.341 283.021L350.876 284.486L352.242 286.707C351.806 287.464 351.463 288.281 351.231 289.144L348.696 289.748V291.819V293.89L351.231 294.495C351.464 295.358 351.806 296.175 352.242 296.932L350.876 299.153L352.341 300.618L353.806 302.083L356.027 300.717C356.784 301.153 357.602 301.496 358.465 301.728L359.07 304.263H361.141H363.212L363.817 301.728C364.68 301.496 365.497 301.153 366.254 300.717L368.475 302.083L369.94 300.618L371.405 299.153L370.039 296.932C370.475 296.175 370.818 295.358 371.05 294.495L373.585 293.89V291.819V289.748L371.05 289.144ZM361.141 299.721C356.778 299.721 353.24 296.184 353.24 291.82C353.24 287.456 356.777 283.919 361.141 283.919C365.505 283.919 369.042 287.456 369.042 291.82C369.042 296.184 365.505 299.721 361.141 299.721Z" fill="#FBFDFB"/>
<g opacity="0.15">
<path d="M360.442 279.376H359.071L358.466 281.911C358.435 281.919 358.405 281.929 358.375 281.937C358.778 281.824 359.19 281.734 359.61 281.671L360.442 279.376Z" fill="#FBFDFB"/>
<path d="M369.446 282.526L368.476 281.556L366.255 282.922L366.251 282.92C366.591 283.116 366.92 283.329 367.233 283.561L369.446 282.526Z" fill="#FBFDFB"/>
<path d="M348.698 292.52V293.891L351.233 294.496C351.241 294.527 351.251 294.557 351.259 294.587C351.146 294.184 351.056 293.772 350.993 293.353L348.698 292.52Z" fill="#FBFDFB"/>
<path d="M351.848 283.516L350.878 284.486L352.244 286.707L352.241 286.711C352.437 286.371 352.65 286.042 352.882 285.729L351.848 283.516Z" fill="#FBFDFB"/>
<path d="M373.585 291.12V289.749L371.05 289.144C371.042 289.113 371.032 289.083 371.024 289.053C371.137 289.456 371.227 289.868 371.29 290.287L373.585 291.12Z" fill="#FBFDFB"/>
</g>
<path d="M361.141 283.919C356.778 283.919 353.24 287.456 353.24 291.82C353.24 296.184 356.777 299.721 361.141 299.721C365.505 299.721 369.042 296.184 369.042 291.82C369.042 287.456 365.505 283.919 361.141 283.919ZM361.141 298.518C357.442 298.518 354.443 295.519 354.443 291.82C354.443 288.121 357.442 285.122 361.141 285.122C364.84 285.122 367.839 288.121 367.839 291.82C367.839 295.519 364.841 298.518 361.141 298.518Z" fill="url(#paint41_linear_24_800)"/>
<path d="M370.404 290.431C370.355 290.441 370.236 289.845 369.885 288.943C369.533 288.046 368.924 286.837 367.936 285.745C366.96 284.643 365.834 283.893 364.979 283.448C364.121 282.999 363.543 282.814 363.558 282.767C363.567 282.732 364.173 282.844 365.075 283.251C365.973 283.654 367.159 284.4 368.167 285.538C369.188 286.666 369.786 287.934 370.091 288.868C370.397 289.812 370.44 290.426 370.404 290.431Z" fill="#FBFDFB"/>
<path d="M388.245 243.314L381.308 245.005L382.115 248.313L389.051 246.621L388.245 243.314Z" fill="#0248C1"/>
<path d="M388.25 243.348L381.313 245.039L379.684 238.357C379.292 236.747 380.278 235.124 381.888 234.732L382.996 234.462C384.606 234.07 386.229 235.056 386.621 236.666L388.25 243.348Z" fill="url(#paint42_linear_24_800)"/>
<path d="M405.729 314.673L398.792 316.364L382.119 248.347L389.056 246.656L405.729 314.673Z" fill="#F8D613"/>
<path d="M405.729 314.673L398.792 316.364L402.813 324.045L405.694 323.342L405.729 314.673Z" fill="white"/>
<path d="M405.694 323.342L402.813 324.045L405.669 329.499L405.694 323.342Z" fill="url(#paint43_linear_24_800)"/>
<path d="M403.401 315.24L401.119 315.796L384.447 247.78L386.729 247.224L403.401 315.24Z" fill="#F8D613"/>
<path d="M429.664 372.468H329.612C329.06 372.468 328.612 372.02 328.612 371.468V355.078C328.612 354.526 329.06 354.078 329.612 354.078H429.664C430.216 354.078 430.664 354.526 430.664 355.078V371.468C430.664 372.02 430.216 372.468 429.664 372.468Z" fill="url(#paint44_linear_24_800)"/>
<path d="M429.664 378.797H329.612C329.06 378.797 328.612 378.349 328.612 377.797V374.113H430.664V377.797C430.664 378.349 430.216 378.797 429.664 378.797Z" fill="#FBFDFB"/>
<path d="M430.664 374.113H328.612V375.174H430.664V374.113Z" fill="#F8D613"/>
<path d="M426.455 368.078H332.82C332.268 368.078 331.82 367.63 331.82 367.078V359.47C331.82 358.918 332.268 358.47 332.82 358.47H426.455C427.007 358.47 427.455 358.918 427.455 359.47V367.078C427.455 367.63 427.008 368.078 426.455 368.078Z" fill="#0248C1"/>
<path d="M423.728 366.814H335.548C334.996 366.814 334.548 366.366 334.548 365.814V360.732C334.548 360.18 334.996 359.732 335.548 359.732H423.727C424.279 359.732 424.727 360.18 424.727 360.732V365.814C424.728 366.366 424.28 366.814 423.728 366.814Z" fill="url(#paint45_linear_24_800)"/>
<path d="M429.426 372.468H329.849V374.113H429.426V372.468Z" fill="url(#paint46_linear_24_800)"/>
<path d="M333.891 375.904H331.821V378.797H333.891V375.904Z" fill="#F8D613"/>
<path d="M342.413 375.904H340.343V378.797H342.413V375.904Z" fill="#F8D613"/>
<path d="M350.936 375.904H348.866V378.797H350.936V375.904Z" fill="#F8D613"/>
<path d="M359.459 375.904H357.389V378.797H359.459V375.904Z" fill="#F8D613"/>
<path d="M367.982 375.904H365.912V378.797H367.982V375.904Z" fill="#F8D613"/>
<path d="M376.505 375.904H374.435V378.797H376.505V375.904Z" fill="#F8D613"/>
<path d="M385.027 375.904H382.957V378.797H385.027V375.904Z" fill="#F8D613"/>
<path d="M393.55 375.904H391.48V378.797H393.55V375.904Z" fill="#F8D613"/>
<path d="M402.073 375.904H400.003V378.797H402.073V375.904Z" fill="#F8D613"/>
<path d="M410.596 375.904H408.526V378.797H410.596V375.904Z" fill="#F8D613"/>
<path d="M419.119 375.904H417.049V378.797H419.119V375.904Z" fill="#F8D613"/>
<path d="M427.641 375.904H425.571V378.797H427.641V375.904Z" fill="#F8D613"/>
<path d="M412.074 347.75H312.022C311.47 347.75 311.022 347.302 311.022 346.75V330.36C311.022 329.808 311.47 329.36 312.022 329.36H412.074C412.626 329.36 413.074 329.808 413.074 330.36V346.75C413.074 347.302 412.626 347.75 412.074 347.75Z" fill="url(#paint47_linear_24_800)"/>
<path d="M412.074 354.078H312.022C311.47 354.078 311.022 353.63 311.022 353.078V349.395H413.074V353.078C413.074 353.631 412.626 354.078 412.074 354.078Z" fill="#FBFDFB"/>
<path d="M413.074 349.395H311.022V350.456H413.074V349.395Z" fill="#F8D613"/>
<path d="M408.865 343.359H315.23C314.678 343.359 314.23 342.911 314.23 342.359V334.751C314.23 334.199 314.678 333.751 315.23 333.751H408.865C409.417 333.751 409.865 334.199 409.865 334.751V342.359C409.865 342.911 409.418 343.359 408.865 343.359Z" fill="#0248C1"/>
<path d="M406.138 342.096H317.958C317.406 342.096 316.958 341.648 316.958 341.096V336.014C316.958 335.462 317.406 335.014 317.958 335.014H406.138C406.69 335.014 407.138 335.462 407.138 336.014V341.096C407.138 341.648 406.69 342.096 406.138 342.096Z" fill="url(#paint48_linear_24_800)"/>
<path d="M411.836 347.75H312.259V349.395H411.836V347.75Z" fill="url(#paint49_linear_24_800)"/>
<path d="M316.3 351.185H314.23V354.078H316.3V351.185Z" fill="#F8D613"/>
<path d="M324.823 351.185H322.753V354.078H324.823V351.185Z" fill="#F8D613"/>
<path d="M333.346 351.185H331.276V354.078H333.346V351.185Z" fill="#F8D613"/>
<path d="M341.869 351.185H339.799V354.078H341.869V351.185Z" fill="#F8D613"/>
<path d="M350.392 351.185H348.322V354.078H350.392V351.185Z" fill="#F8D613"/>
<path d="M358.915 351.185H356.845V354.078H358.915V351.185Z" fill="#F8D613"/>
<path d="M367.437 351.185H365.367V354.078H367.437V351.185Z" fill="#F8D613"/>
<path d="M375.96 351.185H373.89V354.078H375.96V351.185Z" fill="#F8D613"/>
<path d="M384.483 351.185H382.413V354.078H384.483V351.185Z" fill="#F8D613"/>
<path d="M393.006 351.185H390.936V354.078H393.006V351.185Z" fill="#F8D613"/>
<path d="M401.528 351.185H399.458V354.078H401.528V351.185Z" fill="#F8D613"/>
<path d="M410.051 351.185H407.981V354.078H410.051V351.185Z" fill="#F8D613"/>
<path d="M159.486 233C168.568 225.347 169.726 211.78 162.073 202.698C154.419 193.615 140.852 192.457 131.77 200.111C122.688 207.764 121.53 221.331 129.183 230.413C136.836 239.496 150.403 240.654 159.486 233Z" fill="#F8D613"/>
<path d="M164.072 217.191C163.706 217.193 163.534 215.514 162.763 213.031C162.547 212.416 162.355 211.735 162.026 211.049C161.757 210.34 161.372 209.63 160.971 208.885C160.122 207.422 159.038 205.908 157.672 204.52C156.284 203.154 154.77 202.07 153.307 201.221C152.562 200.821 151.852 200.436 151.143 200.166C150.456 199.837 149.776 199.644 149.161 199.429C146.678 198.658 144.999 198.485 145.001 198.12C144.988 197.855 146.715 197.43 149.531 197.844C150.227 197.971 151.001 198.092 151.792 198.371C152.605 198.59 153.428 198.945 154.289 199.34C155.983 200.177 157.738 201.35 159.301 202.892C160.843 204.455 162.016 206.21 162.853 207.904C163.248 208.765 163.603 209.588 163.822 210.401C164.101 211.192 164.221 211.966 164.349 212.662C164.762 215.478 164.337 217.204 164.072 217.191Z" fill="url(#paint50_linear_24_800)"/>
<path d="M160.885 216.571L137.989 203.351V229.79L160.885 216.571Z" fill="#FBFDFB"/>
<path d="M311.78 197.852C318.85 197.852 324.582 192.12 324.582 185.05C324.582 177.979 318.85 172.248 311.78 172.248C304.71 172.248 298.978 177.979 298.978 185.05C298.978 192.12 304.71 197.852 311.78 197.852Z" fill="#F8D613"/>
<path d="M322.764 185.419C322.546 185.42 322.444 184.42 321.985 182.942C321.857 182.576 321.742 182.171 321.546 181.762C321.386 181.34 321.156 180.917 320.918 180.474C320.413 179.603 319.767 178.702 318.954 177.876C318.128 177.063 317.227 176.418 316.356 175.912C315.912 175.674 315.49 175.445 315.068 175.284C314.659 175.088 314.254 174.973 313.888 174.845C312.41 174.386 311.41 174.283 311.411 174.066C311.403 173.908 312.431 173.656 314.108 173.902C314.522 173.978 314.983 174.05 315.454 174.216C315.938 174.346 316.428 174.558 316.94 174.793C317.948 175.291 318.993 175.99 319.924 176.908C320.842 177.839 321.54 178.883 322.039 179.892C322.274 180.405 322.486 180.895 322.616 181.378C322.782 181.849 322.854 182.31 322.93 182.724C323.174 184.399 322.922 185.427 322.764 185.419Z" fill="url(#paint51_linear_24_800)"/>
<path d="M305.113 182.597L306.263 183.746C309.31 180.699 314.251 180.699 317.298 183.746L318.448 182.597C314.765 178.915 308.795 178.915 305.113 182.597Z" fill="white"/>
<path d="M315.108 185.936L316.191 184.853C313.755 182.417 309.806 182.417 307.37 184.853L308.452 185.936C310.29 184.098 313.27 184.098 315.108 185.936Z" fill="white"/>
<path d="M309.495 186.978L310.497 187.98C311.206 187.271 312.355 187.271 313.063 187.98L314.065 186.978C312.803 185.716 310.757 185.716 309.495 186.978Z" fill="white"/>
<path d="M312.549 189.085C312.973 189.509 312.973 190.197 312.549 190.622C312.125 191.046 311.437 191.046 311.012 190.622C310.588 190.198 310.588 189.51 311.012 189.085C311.436 188.661 312.124 188.661 312.549 189.085Z" fill="white"/>
<path d="M53.8749 264.56C55.0118 257.582 50.2763 251.003 43.2979 249.866C36.3194 248.729 29.7406 253.465 28.6037 260.443C27.4668 267.422 32.2023 274 39.1807 275.137C46.1592 276.274 52.738 271.539 53.8749 264.56Z" fill="#F8D613"/>
<path d="M52.22 262.88C52.002 262.881 51.899 261.881 51.44 260.403C51.312 260.037 51.197 259.632 51.001 259.223C50.841 258.801 50.611 258.378 50.373 257.935C49.868 257.064 49.222 256.163 48.409 255.337C47.583 254.524 46.682 253.879 45.811 253.373C45.367 253.135 44.945 252.906 44.523 252.745C44.114 252.549 43.709 252.434 43.343 252.306C41.865 251.847 40.865 251.744 40.866 251.526C40.858 251.368 41.886 251.116 43.563 251.362C43.977 251.438 44.438 251.51 44.909 251.676C45.393 251.806 45.883 252.018 46.395 252.253C47.403 252.751 48.448 253.449 49.379 254.368C50.297 255.299 50.995 256.343 51.493 257.352C51.728 257.865 51.94 258.355 52.07 258.838C52.236 259.309 52.308 259.77 52.384 260.184C52.63 261.86 52.378 262.887 52.22 262.88Z" fill="url(#paint52_linear_24_800)"/>
<path d="M34.5691 260.057L35.7181 261.207C38.7651 258.16 43.7061 258.16 46.7531 261.207L47.9021 260.057C44.2211 256.375 38.2511 256.375 34.5691 260.057Z" fill="white"/>
<path d="M44.5642 263.396L45.6472 262.313C43.2112 259.877 39.2622 259.877 36.8262 262.313L37.9092 263.396C39.7462 261.558 42.7262 261.558 44.5642 263.396Z" fill="white"/>
<path d="M38.9512 264.439L39.9532 265.441C40.6622 264.732 41.8102 264.732 42.5192 265.441L43.5212 264.439C42.2592 263.177 40.2132 263.177 38.9512 264.439Z" fill="white"/>
<path d="M42.0042 266.546C42.4282 266.97 42.4282 267.658 42.0042 268.083C41.5802 268.508 40.8922 268.507 40.4672 268.083C40.0432 267.659 40.0432 266.971 40.4672 266.546C40.8922 266.121 41.5802 266.121 42.0042 266.546Z" fill="white"/>
<path d="M270.515 167.21C280.572 167.21 288.724 159.057 288.724 149.001C288.724 138.944 280.572 130.792 270.515 130.792C260.459 130.792 252.306 138.944 252.306 149.001C252.306 159.057 260.459 167.21 270.515 167.21Z" fill="#0248C1"/>
<path d="M286.138 149.527C285.828 149.529 285.682 148.107 285.029 146.004C284.846 145.483 284.684 144.907 284.405 144.325C284.177 143.725 283.851 143.124 283.512 142.493C282.793 141.254 281.875 139.972 280.719 138.797C279.544 137.641 278.262 136.722 277.023 136.004C276.392 135.665 275.791 135.339 275.19 135.111C274.608 134.832 274.032 134.669 273.511 134.487C271.409 133.834 269.986 133.688 269.988 133.378C269.977 133.153 271.439 132.794 273.824 133.144C274.413 133.252 275.069 133.354 275.738 133.59C276.426 133.775 277.123 134.076 277.852 134.411C279.286 135.12 280.772 136.113 282.096 137.419C283.402 138.743 284.395 140.229 285.104 141.663C285.438 142.392 285.739 143.089 285.925 143.777C286.161 144.447 286.263 145.102 286.371 145.691C286.721 148.076 286.362 149.538 286.138 149.527Z" fill="url(#paint53_linear_24_800)"/>
<path d="M270.332 151.411L272.975 148.77L273.14 148.606L273.305 148.441L275.056 146.691C275.512 146.235 275.795 145.998 276.031 145.872C276.061 145.856 276.09 145.842 276.12 145.829C276.313 145.744 276.485 145.73 276.722 145.71L276.771 145.706C276.806 145.703 276.845 145.702 276.889 145.702C276.972 145.702 277.065 145.707 277.162 145.713C277.275 145.719 277.402 145.727 277.535 145.727C277.905 145.727 278.213 145.67 278.505 145.546L278.53 145.535C278.908 145.369 279.261 145.083 279.58 144.684C279.831 144.37 280.034 144.034 280.182 143.687C280.3 143.409 280.384 143.123 280.431 142.837C280.511 142.35 280.455 142.026 280.455 142.023C280.455 142.023 280.454 142.019 280.452 142.017C280.45 142.015 280.447 142.014 280.447 142.014C280.442 142.013 280.44 142.014 280.438 142.015L279.036 143.415C278.949 143.502 278.834 143.554 278.711 143.561C278.665 143.564 278.617 143.565 278.57 143.565C278.157 143.565 277.563 143.463 277.077 142.976C276.495 142.394 276.475 141.638 276.492 141.341C276.499 141.218 276.552 141.103 276.638 141.016L278.037 139.618C278.04 139.615 278.041 139.61 278.04 139.606C278.04 139.606 278.039 139.603 278.037 139.601C278.034 139.598 278.032 139.598 278.03 139.598C278.026 139.597 277.917 139.578 277.729 139.578C277.41 139.578 276.906 139.632 276.321 139.889C275.99 140.034 275.669 140.23 275.368 140.47C275.106 140.679 274.892 140.902 274.732 141.135C274.592 141.337 274.488 141.554 274.421 141.779C274.298 142.194 274.32 142.578 274.337 142.887C274.345 143.031 274.353 143.167 274.343 143.279L274.339 143.328C274.317 143.594 274.301 143.786 274.176 144.018C274.049 144.255 273.812 144.537 273.356 144.993L271.365 146.982C271.35 146.996 271.335 147.01 271.319 147.022L268.052 150.287L267.887 150.451L267.722 150.615L265.971 152.365C265.515 152.821 265.232 153.058 264.996 153.184C264.966 153.2 264.936 153.214 264.907 153.227C264.714 153.312 264.542 153.326 264.305 153.346L264.256 153.35C264.221 153.353 264.182 153.354 264.138 153.354C264.054 153.354 263.962 153.349 263.865 153.343C263.752 153.337 263.625 153.329 263.492 153.329C263.122 153.329 262.814 153.386 262.522 153.51L262.497 153.521C262.119 153.687 261.766 153.973 261.447 154.372C261.196 154.686 260.993 155.022 260.845 155.369C260.727 155.647 260.643 155.933 260.596 156.219C260.516 156.706 260.572 157.03 260.572 157.033C260.572 157.035 260.575 157.039 260.575 157.039C260.577 157.041 260.58 157.042 260.58 157.042C260.585 157.043 260.587 157.042 260.589 157.041L261.991 155.641C262.078 155.554 262.193 155.502 262.316 155.495C262.362 155.492 262.41 155.491 262.457 155.491C262.87 155.491 263.464 155.593 263.95 156.08C264.531 156.662 264.552 157.418 264.534 157.715C264.527 157.838 264.475 157.953 264.388 158.04L262.989 159.438C262.986 159.441 262.985 159.446 262.986 159.45C262.986 159.45 262.987 159.453 262.989 159.455C262.992 159.458 262.995 159.458 262.995 159.458C262.999 159.459 263.108 159.478 263.296 159.478C263.615 159.478 264.119 159.424 264.704 159.167C265.035 159.022 265.356 158.826 265.657 158.586C265.919 158.377 266.132 158.153 266.293 157.921C266.433 157.719 266.537 157.502 266.603 157.277C266.726 156.862 266.705 156.478 266.687 156.169C266.679 156.025 266.671 155.889 266.681 155.777L266.685 155.728C266.707 155.462 266.723 155.27 266.848 155.038C266.975 154.801 267.212 154.519 267.668 154.063L270.283 151.451C270.302 151.437 270.317 151.423 270.332 151.411Z" fill="#FBFDFB"/>
<path d="M94.911 215.316C93.251 207.392 86.225 201.441 77.807 201.441C77.257 201.441 76.714 201.47 76.177 201.519C75.041 196.632 70.662 192.99 65.429 192.99C61.786 192.99 58.556 194.756 56.546 197.477C53.223 195.308 49.256 194.043 44.992 194.043C33.297 194.043 23.816 203.524 23.816 215.219C23.816 215.529 23.826 215.836 23.839 216.142C19.956 217.844 17.241 221.719 17.241 226.231C17.241 232.313 22.171 237.243 28.253 237.243H93.468C99.55 237.243 104.48 232.313 104.48 226.231C104.482 220.638 100.311 216.022 94.911 215.316Z" fill="url(#paint54_linear_24_800)"/>
<path d="M41.975 226.986C36.57 226.986 32.188 222.604 32.188 217.199C32.188 213.189 34.6 209.745 38.051 208.233C38.039 207.961 38.03 207.688 38.03 207.413C38.03 202.212 40.14 197.504 43.551 194.097C32.528 194.838 23.815 204.008 23.815 215.219C23.815 215.529 23.825 215.836 23.838 216.142C19.955 217.844 17.24 221.719 17.24 226.231C17.24 232.313 22.17 237.243 28.252 237.243H93.467C99.549 237.243 104.479 232.313 104.479 226.231C104.479 226.109 104.466 225.99 104.462 225.869C103.106 226.579 101.567 226.986 99.931 226.986H41.975Z" fill="url(#paint55_linear_24_800)"/>
<path d="M73.9429 207.322C74.1069 207.417 73.6419 208.57 72.2489 209.956C71.5519 210.64 70.6109 211.372 69.4139 211.937C68.2229 212.504 66.7669 212.879 65.2299 212.873C63.6959 212.878 62.2339 212.529 61.0429 211.954C59.8449 211.388 58.9019 210.655 58.2059 209.968C56.8149 208.575 56.3649 207.414 56.5289 207.322C56.7029 207.208 57.4319 208.111 58.8739 209.197C59.5939 209.734 60.4969 210.303 61.5729 210.735C62.6439 211.176 63.9009 211.433 65.2289 211.43C67.9079 211.453 70.1579 210.258 71.5829 209.183C73.0299 208.099 73.7709 207.207 73.9429 207.322Z" fill="url(#paint56_linear_24_800)"/>
<path d="M89.455 219.732C89.548 219.785 89.285 220.438 88.496 221.222C88.102 221.609 87.569 222.023 86.892 222.343C86.218 222.664 85.394 222.876 84.524 222.873C83.656 222.876 82.828 222.678 82.155 222.353C81.477 222.033 80.943 221.618 80.55 221.229C79.763 220.441 79.508 219.783 79.601 219.732C79.699 219.667 80.112 220.178 80.928 220.793C81.336 221.097 81.846 221.419 82.455 221.663C83.061 221.912 83.772 222.058 84.524 222.056C86.04 222.069 87.313 221.393 88.119 220.784C88.938 220.171 89.358 219.667 89.455 219.732Z" fill="url(#paint57_linear_24_800)"/>
<path d="M190.144 195.065C198.365 195.065 205.029 188.4 205.029 180.18C205.029 171.959 198.365 165.295 190.144 165.295C181.923 165.295 175.259 171.959 175.259 180.18C175.259 188.4 181.923 195.065 190.144 195.065Z" fill="#80DBFF"/>
<path d="M202.915 180.61C202.662 180.612 202.542 179.449 202.009 177.73C201.86 177.304 201.727 176.833 201.499 176.358C201.312 175.867 201.046 175.376 200.769 174.86C200.182 173.847 199.431 172.799 198.486 171.839C197.526 170.894 196.478 170.143 195.465 169.556C194.949 169.279 194.458 169.013 193.967 168.826C193.492 168.598 193.021 168.465 192.595 168.316C190.876 167.782 189.714 167.663 189.715 167.41C189.706 167.226 190.901 166.933 192.851 167.219C193.332 167.307 193.869 167.391 194.416 167.584C194.978 167.736 195.548 167.982 196.144 168.255C197.316 168.834 198.531 169.646 199.613 170.714C200.68 171.796 201.492 173.011 202.071 174.183C202.344 174.779 202.59 175.349 202.742 175.911C202.935 176.458 203.019 176.994 203.107 177.476C203.392 179.424 203.098 180.619 202.915 180.61Z" fill="url(#paint58_linear_24_800)"/>
<path d="M195.327 175.033C197.279 176.984 197.892 179.775 197.169 182.254C197.115 182.438 196.885 182.499 196.75 182.363C196.614 182.227 196.381 182.289 196.332 182.475L195.686 184.887C195.636 185.073 195.806 185.243 195.992 185.193L198.404 184.547C198.59 184.497 198.652 184.265 198.516 184.129L198.39 184.003C198.318 183.931 198.299 183.822 198.339 183.729C199.739 180.476 199.114 176.552 196.461 173.899C194.171 171.609 190.934 170.83 187.999 171.56C187.808 171.608 187.74 171.843 187.879 171.981L188.816 172.918C188.872 172.974 188.951 172.999 189.029 172.986C191.256 172.64 193.614 173.32 195.327 175.033Z" fill="white"/>
<path d="M184.997 185.363C182.698 183.064 182.256 179.603 183.668 176.855C183.744 176.706 183.947 176.679 184.065 176.798L184.142 176.875C184.278 177.011 184.511 176.949 184.56 176.763L185.206 174.351C185.256 174.165 185.086 173.995 184.9 174.045L182.488 174.691C182.302 174.741 182.24 174.973 182.376 175.109L182.522 175.255C182.604 175.337 182.617 175.463 182.557 175.561C180.467 178.989 180.901 183.534 183.863 186.496C186.508 189.141 190.416 189.77 193.664 188.386C193.825 188.317 193.862 188.104 193.738 187.98L192.885 187.127C192.817 187.059 192.716 187.038 192.625 187.07C190.049 187.991 187.056 187.422 184.997 185.363Z" fill="white"/>
<defs>
<linearGradient id="paint0_linear_24_800" x1="150.868" y1="108.264" x2="399.457" y2="109.274" gradientUnits="userSpaceOnUse">
<stop offset="0.4078" stop-color="#C0EDFF"/>
<stop offset="0.743" stop-color="white"/>
</linearGradient>
<linearGradient id="paint1_linear_24_800" x1="122.535" y1="91.7067" x2="437.44" y2="125.054" gradientUnits="userSpaceOnUse">
<stop stop-color="#5DC7FF"/>
<stop offset="1" stop-color="white"/>
</linearGradient>
<linearGradient id="paint2_linear_24_800" x1="123.914" y1="78.685" x2="438.82" y2="112.032" gradientUnits="userSpaceOnUse">
<stop stop-color="#5DC7FF"/>
<stop offset="1" stop-color="white"/>
</linearGradient>
<linearGradient id="paint3_linear_24_800" x1="122.504" y1="92.0003" x2="437.411" y2="125.348" gradientUnits="userSpaceOnUse">
<stop stop-color="#5DC7FF"/>
<stop offset="1" stop-color="white"/>
</linearGradient>
<linearGradient id="paint4_linear_24_800" x1="310.694" y1="175.377" x2="328.425" y2="175.377" gradientUnits="userSpaceOnUse">
<stop stop-color="#1C397C"/>
<stop offset="1" stop-color="#1F54BF"/>
</linearGradient>
<linearGradient id="paint5_linear_24_800" x1="378.245" y1="191.689" x2="405.649" y2="191.689" gradientUnits="userSpaceOnUse">
<stop stop-color="#1C397C"/>
<stop offset="1" stop-color="#1F54BF"/>
</linearGradient>
<linearGradient id="paint6_linear_24_800" x1="227.702" y1="285.985" x2="249.666" y2="285.985" gradientUnits="userSpaceOnUse">
<stop stop-color="#1C397C"/>
<stop offset="1" stop-color="#1F54BF"/>
</linearGradient>
<linearGradient id="paint7_linear_24_800" x1="246.4" y1="213.601" x2="263.592" y2="213.601" gradientUnits="userSpaceOnUse">
<stop stop-color="#1C397C"/>
<stop offset="1" stop-color="#1F54BF"/>
</linearGradient>
<linearGradient id="paint8_linear_24_800" x1="419.188" y1="256.254" x2="441.151" y2="256.254" gradientUnits="userSpaceOnUse">
<stop stop-color="#1C397C"/>
<stop offset="1" stop-color="#1F54BF"/>
</linearGradient>
<linearGradient id="paint9_linear_24_800" x1="355.159" y1="226.319" x2="413.962" y2="226.319" gradientUnits="userSpaceOnUse">
<stop stop-color="white"/>
<stop offset="1" stop-color="white" stop-opacity="0"/>
</linearGradient>
<linearGradient id="paint10_linear_24_800" x1="38.8489" y1="151.498" x2="43.6235" y2="151.498" gradientUnits="userSpaceOnUse">
<stop stop-color="#1C397C"/>
<stop offset="1" stop-color="#1F54BF"/>
</linearGradient>
<linearGradient id="paint11_linear_24_800" x1="31.7178" y1="165.33" x2="50.7545" y2="165.33" gradientUnits="userSpaceOnUse">
<stop stop-color="#1C397C"/>
<stop offset="1" stop-color="#1F54BF"/>
</linearGradient>
<linearGradient id="paint12_linear_24_800" x1="70.6197" y1="128.749" x2="92.3515" y2="128.749" gradientUnits="userSpaceOnUse">
<stop stop-color="#1C397C"/>
<stop offset="1" stop-color="#1F54BF"/>
</linearGradient>
<linearGradient id="paint13_linear_24_800" x1="211.876" y1="178.188" x2="233.608" y2="178.188" gradientUnits="userSpaceOnUse">
<stop stop-color="#1C397C"/>
<stop offset="1" stop-color="#1F54BF"/>
</linearGradient>
<linearGradient id="paint14_linear_24_800" x1="81.4857" y1="87.331" x2="81.4857" y2="156.491" gradientUnits="userSpaceOnUse">
<stop stop-color="#1C397C"/>
<stop offset="1" stop-color="#1F54BF"/>
</linearGradient>
<linearGradient id="paint15_linear_24_800" x1="8.61098" y1="375.289" x2="201.01" y2="375.289" gradientUnits="userSpaceOnUse">
<stop stop-color="#1C397C"/>
<stop offset="1" stop-color="#1F54BF"/>
</linearGradient>
<linearGradient id="paint16_linear_24_800" x1="110.949" y1="130.701" x2="205.033" y2="130.701" gradientUnits="userSpaceOnUse">
<stop stop-color="#1C397C"/>
<stop offset="1" stop-color="#1F54BF"/>
</linearGradient>
<linearGradient id="paint17_linear_24_800" x1="189.68" y1="89.9844" x2="183.333" y2="146.163" gradientUnits="userSpaceOnUse">
<stop stop-color="white"/>
<stop offset="1" stop-color="white" stop-opacity="0"/>
</linearGradient>
<linearGradient id="paint18_linear_24_800" x1="182.751" y1="89.2014" x2="176.403" y2="145.38" gradientUnits="userSpaceOnUse">
<stop stop-color="white"/>
<stop offset="1" stop-color="white" stop-opacity="0"/>
</linearGradient>
<linearGradient id="paint19_linear_24_800" x1="148.293" y1="85.3081" x2="141.946" y2="141.487" gradientUnits="userSpaceOnUse">
<stop stop-color="white"/>
<stop offset="1" stop-color="white" stop-opacity="0"/>
</linearGradient>
<linearGradient id="paint20_linear_24_800" x1="143.427" y1="84.7583" x2="137.08" y2="140.937" gradientUnits="userSpaceOnUse">
<stop stop-color="white"/>
<stop offset="1" stop-color="white" stop-opacity="0"/>
</linearGradient>
<linearGradient id="paint21_linear_24_800" x1="329.647" y1="363.532" x2="82.1587" y2="363.532" gradientUnits="userSpaceOnUse">
<stop stop-color="#1C397C"/>
<stop offset="1" stop-color="#1F54BF"/>
</linearGradient>
<linearGradient id="paint22_linear_24_800" x1="329.647" y1="363.532" x2="82.1589" y2="363.532" gradientUnits="userSpaceOnUse">
<stop stop-color="#1C397C"/>
<stop offset="1" stop-color="#1F54BF"/>
</linearGradient>
<linearGradient id="paint23_linear_24_800" x1="329.647" y1="363.532" x2="82.1588" y2="363.532" gradientUnits="userSpaceOnUse">
<stop stop-color="#1C397C"/>
<stop offset="1" stop-color="#1F54BF"/>
</linearGradient>
<linearGradient id="paint24_linear_24_800" x1="329.647" y1="363.532" x2="82.159" y2="363.532" gradientUnits="userSpaceOnUse">
<stop stop-color="#1C397C"/>
<stop offset="1" stop-color="#1F54BF"/>
</linearGradient>
<linearGradient id="paint25_linear_24_800" x1="329.647" y1="363.532" x2="82.158" y2="363.532" gradientUnits="userSpaceOnUse">
<stop stop-color="#1C397C"/>
<stop offset="1" stop-color="#1F54BF"/>
</linearGradient>
<linearGradient id="paint26_linear_24_800" x1="329.647" y1="363.532" x2="82.1588" y2="363.532" gradientUnits="userSpaceOnUse">
<stop stop-color="#1C397C"/>
<stop offset="1" stop-color="#1F54BF"/>
</linearGradient>
<linearGradient id="paint27_linear_24_800" x1="121.099" y1="366.785" x2="237.816" y2="366.785" gradientUnits="userSpaceOnUse">
<stop stop-color="#1C397C"/>
<stop offset="1" stop-color="#1F54BF"/>
</linearGradient>
<linearGradient id="paint28_linear_24_800" x1="116.317" y1="405.549" x2="116.317" y2="370.94" gradientUnits="userSpaceOnUse">
<stop stop-color="#1C397C"/>
<stop offset="1" stop-color="#1F54BF"/>
</linearGradient>
<linearGradient id="paint29_linear_24_800" x1="128.851" y1="405.549" x2="128.851" y2="370.94" gradientUnits="userSpaceOnUse">
<stop stop-color="#1C397C"/>
<stop offset="1" stop-color="#1F54BF"/>
</linearGradient>
<linearGradient id="paint30_linear_24_800" x1="141.383" y1="405.549" x2="141.383" y2="370.94" gradientUnits="userSpaceOnUse">
<stop stop-color="#1C397C"/>
<stop offset="1" stop-color="#1F54BF"/>
</linearGradient>
<linearGradient id="paint31_linear_24_800" x1="284.823" y1="405.549" x2="284.823" y2="370.94" gradientUnits="userSpaceOnUse">
<stop stop-color="#1C397C"/>
<stop offset="1" stop-color="#1F54BF"/>
</linearGradient>
<linearGradient id="paint32_linear_24_800" x1="232.126" y1="288.947" x2="298.835" y2="288.947" gradientUnits="userSpaceOnUse">
<stop stop-color="#1C397C"/>
<stop offset="1" stop-color="#1F54BF"/>
</linearGradient>
<linearGradient id="paint33_linear_24_800" x1="165.266" y1="-75.2736" x2="165.266" y2="344.625" gradientUnits="userSpaceOnUse">
<stop stop-color="white" stop-opacity="0.5"/>
<stop offset="1" stop-color="white" stop-opacity="0"/>
</linearGradient>
<linearGradient id="paint34_linear_24_800" x1="157.156" y1="-75.2744" x2="157.156" y2="344.625" gradientUnits="userSpaceOnUse">
<stop stop-color="white" stop-opacity="0.5"/>
<stop offset="1" stop-color="white" stop-opacity="0"/>
</linearGradient>
<linearGradient id="paint35_linear_24_800" x1="254.946" y1="-75.2735" x2="254.946" y2="344.625" gradientUnits="userSpaceOnUse">
<stop stop-color="white" stop-opacity="0.5"/>
<stop offset="1" stop-color="white" stop-opacity="0"/>
</linearGradient>
<linearGradient id="paint36_linear_24_800" x1="246.835" y1="-75.2739" x2="246.835" y2="344.625" gradientUnits="userSpaceOnUse">
<stop stop-color="white" stop-opacity="0.5"/>
<stop offset="1" stop-color="white" stop-opacity="0"/>
</linearGradient>
<linearGradient id="paint37_linear_24_800" x1="228.856" y1="-75.2734" x2="228.856" y2="344.625" gradientUnits="userSpaceOnUse">
<stop stop-color="white" stop-opacity="0.5"/>
<stop offset="1" stop-color="white" stop-opacity="0"/>
</linearGradient>
<linearGradient id="paint38_linear_24_800" x1="288.936" y1="-75.2727" x2="288.936" y2="344.625" gradientUnits="userSpaceOnUse">
<stop stop-color="white" stop-opacity="0.5"/>
<stop offset="1" stop-color="white" stop-opacity="0"/>
</linearGradient>
<linearGradient id="paint39_linear_24_800" x1="358.582" y1="212.062" x2="364.764" y2="212.062" gradientUnits="userSpaceOnUse">
<stop stop-color="#1C397C"/>
<stop offset="1" stop-color="#1F54BF"/>
</linearGradient>
<linearGradient id="paint40_linear_24_800" x1="361.141" y1="323.399" x2="361.141" y2="258.208" gradientUnits="userSpaceOnUse">
<stop stop-color="#1C397C"/>
<stop offset="1" stop-color="#1F54BF"/>
</linearGradient>
<linearGradient id="paint41_linear_24_800" x1="323.517" y1="291.82" x2="371.049" y2="291.82" gradientUnits="userSpaceOnUse">
<stop stop-color="#5DC7FF"/>
<stop offset="1" stop-color="white"/>
</linearGradient>
<linearGradient id="paint42_linear_24_800" x1="379.597" y1="239.707" x2="388.25" y2="239.707" gradientUnits="userSpaceOnUse">
<stop stop-color="#1C397C"/>
<stop offset="1" stop-color="#1F54BF"/>
</linearGradient>
<linearGradient id="paint43_linear_24_800" x1="402.813" y1="326.42" x2="405.694" y2="326.42" gradientUnits="userSpaceOnUse">
<stop stop-color="#1C397C"/>
<stop offset="1" stop-color="#1F54BF"/>
</linearGradient>
<linearGradient id="paint44_linear_24_800" x1="328.612" y1="363.273" x2="430.664" y2="363.273" gradientUnits="userSpaceOnUse">
<stop stop-color="#1C397C"/>
<stop offset="1" stop-color="#1F54BF"/>
</linearGradient>
<linearGradient id="paint45_linear_24_800" x1="334.548" y1="363.273" x2="424.728" y2="363.273" gradientUnits="userSpaceOnUse">
<stop stop-color="#76AEFF"/>
<stop offset="1" stop-color="#76AEFF" stop-opacity="0"/>
</linearGradient>
<linearGradient id="paint46_linear_24_800" x1="425.394" y1="373.29" x2="316.636" y2="373.29" gradientUnits="userSpaceOnUse">
<stop stop-color="#1C397C"/>
<stop offset="1" stop-color="#1F54BF"/>
</linearGradient>
<linearGradient id="paint47_linear_24_800" x1="311.022" y1="338.554" x2="413.074" y2="338.554" gradientUnits="userSpaceOnUse">
<stop stop-color="#1C397C"/>
<stop offset="1" stop-color="#1F54BF"/>
</linearGradient>
<linearGradient id="paint48_linear_24_800" x1="316.958" y1="338.554" x2="407.138" y2="338.554" gradientUnits="userSpaceOnUse">
<stop stop-color="#76AEFF"/>
<stop offset="1" stop-color="#76AEFF" stop-opacity="0"/>
</linearGradient>
<linearGradient id="paint49_linear_24_800" x1="425.394" y1="348.572" x2="316.636" y2="348.572" gradientUnits="userSpaceOnUse">
<stop stop-color="#1C397C"/>
<stop offset="1" stop-color="#1F54BF"/>
</linearGradient>
<linearGradient id="paint50_linear_24_800" x1="145" y1="207.431" x2="164.521" y2="207.431" gradientUnits="userSpaceOnUse">
<stop stop-color="white"/>
<stop offset="1" stop-color="white" stop-opacity="0"/>
</linearGradient>
<linearGradient id="paint51_linear_24_800" x1="311.411" y1="179.609" x2="323.031" y2="179.609" gradientUnits="userSpaceOnUse">
<stop stop-color="white"/>
<stop offset="1" stop-color="white" stop-opacity="0"/>
</linearGradient>
<linearGradient id="paint52_linear_24_800" x1="40.8665" y1="257.069" x2="52.4871" y2="257.069" gradientUnits="userSpaceOnUse">
<stop stop-color="white"/>
<stop offset="1" stop-color="white" stop-opacity="0"/>
</linearGradient>
<linearGradient id="paint53_linear_24_800" x1="269.989" y1="141.262" x2="286.518" y2="141.262" gradientUnits="userSpaceOnUse">
<stop stop-color="white"/>
<stop offset="1" stop-color="white" stop-opacity="0"/>
</linearGradient>
<linearGradient id="paint54_linear_24_800" x1="-62.7261" y1="214.671" x2="109.904" y2="215.372" gradientUnits="userSpaceOnUse">
<stop offset="0.4078" stop-color="#C0EDFF"/>
<stop offset="0.743" stop-color="white"/>
</linearGradient>
<linearGradient id="paint55_linear_24_800" x1="-82.4018" y1="203.173" x2="136.28" y2="226.33" gradientUnits="userSpaceOnUse">
<stop stop-color="#5DC7FF"/>
<stop offset="1" stop-color="white"/>
</linearGradient>
<linearGradient id="paint56_linear_24_800" x1="-81.4441" y1="194.13" x2="137.239" y2="217.288" gradientUnits="userSpaceOnUse">
<stop stop-color="#5DC7FF"/>
<stop offset="1" stop-color="white"/>
</linearGradient>
<linearGradient id="paint57_linear_24_800" x1="-82.4228" y1="203.377" x2="136.26" y2="226.535" gradientUnits="userSpaceOnUse">
<stop stop-color="#5DC7FF"/>
<stop offset="1" stop-color="white"/>
</linearGradient>
<linearGradient id="paint58_linear_24_800" x1="189.714" y1="173.854" x2="203.226" y2="173.854" gradientUnits="userSpaceOnUse">
<stop stop-color="white"/>
<stop offset="1" stop-color="white" stop-opacity="0"/>
</linearGradient>
</defs>
</svg>
